<svg width="60" height="60" viewBox="0 0 60 60" fill="none" xmlns="http://www.w3.org/2000/svg">
<g clip-path="url(#clip0_1215_547)">
<path fill-rule="evenodd" clip-rule="evenodd" d="M42.2531 31.65L31.6481 42.2626C30.915 42.9938 29.7281 42.9938 28.9969 42.2626C28.2637 41.5313 28.2637 40.3312 28.9969 39.6L36.7237 31.875H16.875C15.8381 31.875 15 31.0312 15 30C15 28.9688 15.8381 28.125 16.875 28.125H36.7237L28.9969 20.4C28.2637 19.6688 28.2637 18.4874 28.9969 17.7374C29.7281 17.0062 30.915 17.0062 31.6481 17.7374L42.2531 28.35C42.7031 28.8 42.8438 29.4188 42.7407 30C42.8438 30.5812 42.7031 31.2 42.2531 31.65ZM30 0C13.4306 0 0 13.425 0 30C0 46.575 13.4306 60 30 60C46.5694 60 60 46.575 60 30C60 13.425 46.5694 0 30 0Z" fill="#0b3453"/>
</g>
<defs>
<clipPath id="clip0_1215_547">
<rect width="60" height="60" fill="#0b3453"/>
</clipPath>
</defs>
</svg>
