<svg width="60" height="60" viewBox="0 0 60 60" fill="none" xmlns="http://www.w3.org/2000/svg">
<g clip-path="url(#clip0_239_355)">
<path d="M30 2.49998C24.561 2.49998 19.2442 4.11283 14.7218 7.13457C10.1995 10.1563 6.67474 14.4512 4.59333 19.4762C2.51192 24.5012 1.96732 30.0305 3.02842 35.365C4.08951 40.6994 6.70863 45.5995 10.5546 49.4454C14.4005 53.2914 19.3006 55.9105 24.635 56.9716C29.9695 58.0327 35.4988 57.4881 40.5238 55.4067C45.5488 53.3253 49.8437 49.8005 52.8654 45.2782C55.8872 40.7558 57.5 35.439 57.5 30C57.5166 26.384 56.8166 22.8006 55.4404 19.4566C54.0643 16.1127 52.0393 13.0746 49.4823 10.5176C46.9254 7.96073 43.8873 5.93573 40.5434 4.55959C37.1994 3.18344 33.616 2.48343 30 2.49998ZM44.25 23L26.75 40.5C26.5275 40.7425 26.2571 40.9361 25.9558 41.0685C25.6546 41.2009 25.3291 41.2693 25 41.2693C24.6709 41.2693 24.3454 41.2009 24.0442 41.0685C23.7429 40.9361 23.4725 40.7425 23.25 40.5L15.875 33.125C15.4239 32.7009 15.1291 32.1369 15.0383 31.5244C14.9476 30.9119 15.0662 30.2867 15.375 29.75C15.5903 29.4465 15.8706 29.195 16.1955 29.0137C16.5204 28.8323 16.8817 28.7258 17.253 28.7019C17.6242 28.6779 17.9962 28.7371 18.3417 28.8752C18.6872 29.0133 18.9975 29.2267 19.25 29.5L25 35.25L40.75 19.5C41.2314 19.1389 41.827 18.9636 42.4272 19.0063C43.0275 19.0489 43.5923 19.3067 44.0178 19.7322C44.4433 20.1577 44.7011 20.7225 44.7437 21.3228C44.7864 21.923 44.6111 22.5186 44.25 23Z" fill="#0b3453"/>
</g>
<defs>
<clipPath id="clip0_239_355">
<rect width="60" height="60" fill="#0b3453"/>
</clipPath>
</defs>
</svg>
