<svg width="48" height="48" viewBox="0 0 48 48" fill="none" xmlns="http://www.w3.org/2000/svg">
<path d="M24 0C10.7438 0 0 10.7438 0 24C0 37.2562 10.7438 48 24 48C37.2562 48 48 37.2562 48 24C48 10.7438 37.2562 0 24 0ZM38.9812 38.9719C37.0312 40.9219 34.7719 42.45 32.25 43.5094C29.6438 44.6156 26.8688 45.1687 24 45.1687C21.1406 45.1687 18.3656 44.6062 15.75 43.5094C13.2281 42.4406 10.9594 40.9125 9.01875 38.9719C7.06875 37.0219 5.54063 34.7625 4.48125 32.2406C3.375 29.6344 2.8125 26.8594 2.8125 24C2.8125 21.1406 3.375 18.3656 4.47187 15.75C5.54062 13.2281 7.06875 10.9594 9.00937 9.01875C10.9687 7.06875 13.2281 5.54062 15.75 4.47187C18.3656 3.375 21.1406 2.8125 24 2.8125C26.8594 2.8125 29.6344 3.375 32.25 4.47187C34.7719 5.54062 37.0406 7.06875 38.9812 9.00938C40.9312 10.9594 42.4594 13.2187 43.5188 15.7406C44.625 18.3469 45.1781 21.1219 45.1781 23.9906C45.1781 26.85 44.6156 29.625 43.5188 32.2406C42.45 34.7625 40.9219 37.0313 38.9812 38.9719Z" fill="#0b3453"/>
<path d="M37.4313 16.9612C37.3118 16.3595 37.045 15.8088 36.6724 15.3539C36.5939 15.2548 36.5118 15.166 36.4228 15.0773C35.7626 14.4139 34.8361 14 33.8239 14H14.6759C13.6636 14 12.7404 14.4139 12.0771 15.0773C11.9884 15.166 11.9063 15.2548 11.8275 15.3539C11.4547 15.8088 11.1879 16.3595 11.0717 16.9612C11.024 17.1934 11 17.4334 11 17.6761V31.1243C11 31.6402 11.1094 32.1362 11.3045 32.584C11.4855 33.0115 11.7524 33.3984 12.0771 33.7227C12.1594 33.8048 12.2411 33.8803 12.3303 33.9553C12.9662 34.482 13.787 34.8 14.6759 34.8H33.8239C34.7131 34.8 35.5375 34.482 36.1697 33.952C36.2586 33.8803 36.3407 33.8048 36.4228 33.7227C36.7473 33.3984 37.0141 33.0115 37.1989 32.584V32.5807C37.3939 32.1328 37.4997 31.6402 37.4997 31.1244V17.6761C37.4997 17.4334 37.4761 17.1934 37.4313 16.9612ZM13.4072 16.4072C13.7356 16.0791 14.1766 15.8805 14.6759 15.8805H33.8239C34.3231 15.8805 34.768 16.0791 35.0925 16.4072C35.1506 16.4656 35.2053 16.5307 35.2536 16.5954L25.2175 25.3421C24.9407 25.5847 24.5988 25.7045 24.2499 25.7045C23.9044 25.7045 23.5627 25.5847 23.2823 25.3421L13.25 16.5917C13.2944 16.527 13.3491 16.4656 13.4072 16.4072ZM12.8806 31.1243V18.5377L20.1433 24.8736L12.8842 31.2027C12.8806 31.1787 12.8806 31.1517 12.8806 31.1243ZM33.8239 32.9191H14.6759C14.3508 32.9191 14.0466 32.8336 13.787 32.6835L21.4459 26.0089L22.1609 26.6309C22.7593 27.1509 23.5081 27.4142 24.2499 27.4142C24.9955 27.4142 25.7442 27.1509 26.3425 26.6309L27.0572 26.0089L34.7131 32.6835C34.4531 32.8336 34.149 32.9191 33.8239 32.9191ZM35.6192 31.1243C35.6192 31.1517 35.6192 31.1787 35.6157 31.2027L28.3566 24.8773L35.6192 18.5411V31.1243Z" fill="#0b3453"/>
</svg>
