<svg width="148" height="148" viewBox="0 0 148 148" fill="#0b3453" xmlns="http://www.w3.org/2000/svg">
<g clip-path="url(#clip0_2034_8)">
<path d="M74 0C33.1266 0 0 33.1266 0 74C0 114.873 33.1266 148 74 148C114.873 148 148 114.873 148 74C148 33.1266 114.873 0 74 0ZM120.192 120.163C114.18 126.176 107.213 130.887 99.4375 134.154C91.4016 137.565 82.8453 139.27 74 139.27C65.1836 139.27 56.6273 137.536 48.5625 134.154C40.7867 130.859 33.7914 126.147 27.8078 120.163C21.7953 114.151 17.0836 107.184 13.8172 99.4086C10.4063 91.3727 8.67188 82.8164 8.67188 74C8.67188 65.1836 10.4062 56.6273 13.7883 48.5625C17.0836 40.7867 21.7953 33.7914 27.7789 27.8078C33.8203 21.7953 40.7867 17.0836 48.5625 13.7883C56.6273 10.4062 65.1836 8.67188 74 8.67188C82.8164 8.67188 91.3727 10.4062 99.4375 13.7883C107.213 17.0836 114.209 21.7953 120.192 27.7789C126.205 33.7914 130.916 40.7578 134.183 48.5336C137.594 56.5695 139.299 65.1258 139.299 73.9711C139.299 82.7875 137.565 91.3437 134.183 99.4086C130.888 107.184 126.176 114.18 120.192 120.163Z" fill="#0b3453"/>
<path d="M106.23 59.6047C106.491 53.7945 105.71 48.1578 103.744 42.6656C103.484 41.9718 103.166 41.7117 102.444 41.914C100.825 42.4054 99.1484 42.7812 97.5586 43.3593C93.1648 44.9492 89.1468 47.2617 85.2445 49.7765C84.8398 50.0367 84.2328 50.2101 83.7414 50.1234C77.3531 48.9961 70.9359 49.0539 64.5187 50.0367C63.8828 50.1234 63.0734 49.9789 62.5531 49.6609C58.0148 46.7125 53.3898 43.8218 48.1 42.4343C43.7351 41.2781 44.6312 41.0468 43.3882 45.007C41.914 49.7476 41.3359 54.6617 41.6539 59.6336C41.6828 59.9804 41.4226 60.414 41.1914 60.732C39.2836 63.0156 37.8093 65.5304 36.9132 68.3633C35.1789 73.8554 35.5257 79.4054 36.6242 84.9265C38.7922 95.7664 46.1054 103.369 56.9164 105.248C62.4953 106.23 68.2476 106.317 73.4797 106.751C79.3187 106.317 84.7242 106.288 89.9851 105.45C99.1773 103.976 106.115 99.0906 109.584 90.2164C110.798 87.1234 111.462 83.7414 111.867 80.4461C112.763 73.1617 111.52 66.3398 106.548 60.5875C106.375 60.3562 106.23 59.9515 106.23 59.6047ZM101.49 90.7945C100.536 95.3039 97.9054 98.3968 93.5117 99.9867C89.2625 101.548 84.8687 102.184 80.3882 102.473C78.2203 102.617 76.0523 102.502 73.8843 102.502C68.0453 102.617 62.2062 102.386 56.5695 100.709C49.4875 98.5992 46.3078 94.3789 46.1054 86.9789C46.0187 84.3484 46.3078 81.8047 47.5507 79.4343C50.0078 74.6648 54.257 72.9883 59.2867 72.9015C62.0328 72.8726 64.8078 73.1039 67.5828 73.364C73.3929 73.8843 79.1453 73.3351 84.9265 73.0172C87.4703 72.8726 90.0718 72.8148 92.5578 73.2484C97.9054 74.1734 101.952 79.4922 102.039 85.4758C102.039 87.239 101.837 89.0601 101.49 90.7945Z" fill="#0b3453"/>
<path d="M57.5524 80.8797C55.9626 82.5273 55.4134 84.6086 55.3267 86.4586C55.3267 89.2336 56.136 91.4594 57.5524 92.9047C59.5181 94.8992 62.2063 94.8414 64.0853 92.818C66.9181 89.7539 66.8892 84.0016 64.0853 80.9664C62.2063 78.9141 59.4603 78.8851 57.5524 80.8797Z" fill="#0b3453"/>
<path d="M84.175 80.6484C80.9375 83.6258 80.9375 90.1875 84.175 93.1359C86.0539 94.8414 88.5976 94.7547 90.3609 92.9336C91.9796 91.257 92.5578 89.1469 92.6156 86.8633C92.5578 84.5797 91.9796 82.4984 90.332 80.8219C88.5687 79.0008 86.025 78.9429 84.175 80.6484Z" fill="#0b3453"/>
</g>
<defs>
<clipPath id="clip0_2034_8">
<rect width="148" height="148" fill="#0b3453"/>
</clipPath>
</defs>
</svg>
