<svg width="49" height="49" viewBox="0 0 49 49" fill="none" xmlns="http://www.w3.org/2000/svg">
<path d="M24.4963 17.5162C20.6316 17.5162 17.5127 20.6352 17.5127 24.5C17.5127 28.3648 20.6316 31.4838 24.4963 31.4838C28.361 31.4838 31.48 28.3648 31.48 24.5C31.48 20.6352 28.361 17.5162 24.4963 17.5162ZM24.4963 29.039C21.9971 29.039 19.9575 26.9993 19.9575 24.5C19.9575 22.0007 21.9971 19.961 24.4963 19.961C26.9956 19.961 29.0352 22.0007 29.0352 24.5C29.0352 26.9993 26.9956 29.039 24.4963 29.039ZM31.766 15.6025C30.8637 15.6025 30.135 16.3312 30.135 17.2336C30.135 18.1359 30.8637 18.8646 31.766 18.8646C32.6684 18.8646 33.397 18.1393 33.397 17.2336C33.3973 17.0193 33.3553 16.8071 33.2734 16.6091C33.1916 16.4111 33.0714 16.2312 32.9199 16.0796C32.7684 15.9281 32.5885 15.808 32.3905 15.7261C32.1925 15.6443 31.9803 15.6023 31.766 15.6025ZM38.1096 24.5C38.1096 22.6204 38.1266 20.7578 38.0211 18.8816C37.9155 16.7024 37.4184 14.7683 35.8248 13.1747C34.2279 11.5777 32.2972 11.084 30.118 10.9784C28.2384 10.8729 26.3759 10.8899 24.4997 10.8899C22.6202 10.8899 20.7576 10.8729 18.8815 10.9784C16.7023 11.084 14.7682 11.5811 13.1747 13.1747C11.5777 14.7717 11.084 16.7024 10.9784 18.8816C10.8729 20.7612 10.8899 22.6238 10.8899 24.5C10.8899 26.3762 10.8729 28.2422 10.9784 30.1184C11.084 32.2976 11.5811 34.2317 13.1747 35.8253C14.7716 37.4223 16.7023 37.916 18.8815 38.0216C20.761 38.1271 22.6236 38.1101 24.4997 38.1101C26.3793 38.1101 28.2419 38.1271 30.118 38.0216C32.2972 37.916 34.2313 37.4189 35.8248 35.8253C37.4218 34.2283 37.9155 32.2976 38.0211 30.1184C38.13 28.2422 38.1096 26.3796 38.1096 24.5ZM35.1132 32.5292C34.8646 33.1489 34.565 33.612 34.0849 34.0887C33.6048 34.5688 33.1451 34.8685 32.5254 35.117C30.7343 35.8287 26.4815 35.6687 24.4963 35.6687C22.5112 35.6687 18.2549 35.8287 16.4639 35.1204C15.8442 34.8719 15.3811 34.5722 14.9044 34.0921C14.4243 33.612 14.1247 33.1523 13.8761 32.5326C13.1679 30.7381 13.3279 26.4852 13.3279 24.5C13.3279 22.5148 13.1679 18.2585 13.8761 16.4674C14.1247 15.8477 14.4243 15.3846 14.9044 14.9079C15.3845 14.4312 15.8442 14.1281 16.4639 13.8796C18.2549 13.1713 22.5112 13.3313 24.4963 13.3313C26.4815 13.3313 30.7377 13.1713 32.5288 13.8796C33.1485 14.1281 33.6116 14.4278 34.0883 14.9079C34.5684 15.388 34.868 15.8477 35.1166 16.4674C35.8248 18.2585 35.6648 22.5148 35.6648 24.5C35.6648 26.4852 35.8248 30.7381 35.1132 32.5292Z" fill="#0b3453"/>
<path d="M24.5 0C10.9676 0 0 10.9676 0 24.5C0 38.0324 10.9676 49 24.5 49C38.0324 49 49 38.0324 49 24.5C49 10.9676 38.0324 0 24.5 0ZM39.7934 39.7838C37.8027 41.7744 35.4963 43.3344 32.9219 44.4158C30.2613 45.5451 27.4285 46.1098 24.5 46.1098C21.5811 46.1098 18.7482 45.5355 16.0781 44.4158C13.5037 43.3248 11.1877 41.7648 9.20664 39.7838C7.21602 37.7932 5.65605 35.4867 4.57461 32.9123C3.44531 30.2518 2.87109 27.4189 2.87109 24.5C2.87109 21.5811 3.44531 18.7482 4.56504 16.0781C5.65605 13.5037 7.21602 11.1877 9.19707 9.20664C11.1973 7.21602 13.5037 5.65605 16.0781 4.56504C18.7482 3.44531 21.5811 2.87109 24.5 2.87109C27.4189 2.87109 30.2518 3.44531 32.9219 4.56504C35.4963 5.65605 37.8123 7.21602 39.7934 9.19707C41.784 11.1877 43.3439 13.4941 44.4254 16.0686C45.5547 18.7291 46.1193 21.5619 46.1193 24.4904C46.1193 27.4094 45.5451 30.2422 44.4254 32.9123C43.3344 35.4867 41.7744 37.8027 39.7934 39.7838Z" fill="#0b3453"/>
</svg>
