<svg width="61" height="61" viewBox="0 0 61 61" fill="none" xmlns="http://www.w3.org/2000/svg">
<g clip-path="url(#clip0_47_14)">
<path d="M31.2595 29.8843L2.5148 1.13965C2.02739 0.66478 1.22749 0.677199 0.752621 1.17715C0.290167 1.66456 0.290167 2.42696 0.752621 2.91437L28.61 30.7718L0.752621 58.629C0.252674 59.1039 0.240254 59.9038 0.727665 60.3912C1.21508 60.8786 2.00243 60.9036 2.48984 60.4162C2.50238 60.4036 2.5148 60.3912 2.5148 60.3912L31.2595 31.6465C31.7469 31.1591 31.7469 30.3717 31.2595 29.8843Z" fill="#0B3453"/>
<path d="M60.0042 29.8843L31.2595 1.13965C30.7595 0.664778 29.9722 0.677198 29.4973 1.16461C29.0349 1.65202 29.0349 2.41442 29.4973 2.90183L57.3547 30.7592L29.4973 58.6291C28.9974 59.104 28.9849 59.9039 29.4724 60.3913C29.9598 60.8787 30.7471 60.9037 31.2345 60.4163C31.2471 60.4037 31.2595 60.3913 31.2595 60.3913L60.0042 31.6465C60.4917 31.1591 60.4917 30.3717 60.0042 29.8843Z" fill="#0B3453"/>
</g>
<defs>
<clipPath id="clip0_47_14">
<rect width="60" height="60" fill="white" transform="translate(0.369751 0.780273)"/>
</clipPath>
</defs>
</svg>
