<svg width="37" height="37" viewBox="0 0 37 37" fill="none" xmlns="http://www.w3.org/2000/svg">
<g clip-path="url(#clip0_2005_3)">
<path d="M34.4198 8.65175H25.2072V7.04376C25.2072 5.41135 23.8791 4.08325 22.2467 4.08325H14.7533C13.1209 4.08325 11.7928 5.41128 11.7928 7.04376V8.65175H2.58025C1.15755 8.65175 0 9.80923 0 11.232V30.3364C0 31.7592 1.15755 32.9167 2.58025 32.9167H34.4197C35.8425 32.9167 36.9999 31.7592 36.9999 30.3364V11.232C37.0001 9.80923 35.8425 8.65175 34.4198 8.65175ZM13.267 7.04376C13.267 6.2242 13.9338 5.55733 14.7534 5.55733H22.2468C23.0664 5.55733 23.7332 6.22413 23.7332 7.04376V8.65175H13.267V7.04376ZM34.4198 31.4426H2.58025C1.97033 31.4426 1.47408 30.9465 1.47408 30.3364V11.232C1.47408 10.6221 1.97033 10.1258 2.58025 10.1258H34.4197C35.0296 10.1258 35.5259 10.622 35.5259 11.232V30.3364H35.5259C35.526 30.9464 35.0297 31.4426 34.4198 31.4426Z" fill="#fff"/>
<path d="M31.4722 14.6379H5.52793C5.12086 14.6379 4.79089 14.9679 4.79089 15.3749C4.79089 15.7819 5.12086 16.112 5.52793 16.112H31.4722C31.8793 16.112 32.2092 15.7819 32.2092 15.3749C32.2092 14.9679 31.8793 14.6379 31.4722 14.6379Z" fill="#fff"/>
<path d="M31.4722 19.9446H5.52793C5.12086 19.9446 4.79089 20.2747 4.79089 20.6817C4.79089 21.0887 5.12086 21.4187 5.52793 21.4187H31.4722C31.8793 21.4187 32.2092 21.0887 32.2092 20.6817C32.2092 20.2747 31.8793 19.9446 31.4722 19.9446Z" fill="#fff"/>
<path d="M31.4722 25.2514H31.1036C30.6965 25.2514 30.3666 25.5814 30.3666 25.9884C30.3666 26.3954 30.6965 26.7255 31.1036 26.7255H31.4722C31.8792 26.7255 32.2092 26.3954 32.2092 25.9884C32.2092 25.5814 31.8792 25.2514 31.4722 25.2514Z" fill="#fff"/>
<path d="M28.2292 25.2514H5.52793C5.12086 25.2514 4.79089 25.5814 4.79089 25.9884C4.79089 26.3954 5.12086 26.7255 5.52793 26.7255H28.2292C28.6363 26.7255 28.9662 26.3954 28.9662 25.9884C28.9662 25.5814 28.6363 25.2514 28.2292 25.2514Z" fill="#fff"/>
</g>
<defs>
<clipPath id="clip0_2005_3">
<rect width="37" height="37" fill="white"/>
</clipPath>
</defs>
</svg>
