<svg width="38" height="38" viewBox="0 0 38 38" fill="none" xmlns="http://www.w3.org/2000/svg">
<g clip-path="url(#clip0_2059_76)">
<path d="M31.2822 0.265625H7.60298C5.56189 0.265625 3.9021 1.92521 3.9021 3.96528V33.5666C3.9021 35.606 5.56168 37.2654 7.60298 37.2654H31.2822C33.3229 37.2654 34.9825 35.606 34.9825 33.5666V3.9665C34.9835 1.92623 33.3241 0.265625 31.2822 0.265625ZM33.5032 33.5666C33.5032 34.7911 32.507 35.7868 31.2822 35.7868H7.60298C6.37861 35.7868 5.38298 34.7911 5.38298 33.5666V3.9665C5.38298 2.74213 6.37861 1.74651 7.60298 1.74651H31.2822C32.5059 1.74651 33.5016 2.74213 33.5016 3.9665V33.5668H33.5032V33.5666Z" fill="#C4C4C4"/>
<path d="M27.2457 16.4432H11.6408C11.2652 16.4432 10.9619 16.7477 10.9619 17.1233C10.9619 17.4987 11.2652 17.8034 11.6408 17.8034H27.2455C27.6215 17.8034 27.9248 17.4989 27.9248 17.1233C27.925 16.748 27.6215 16.4432 27.2457 16.4432Z" fill="#C4C4C4"/>
<path d="M27.2457 19.5422H11.6408C11.2652 19.5422 10.9619 19.8474 10.9619 20.2229C10.9619 20.5985 11.2652 20.9022 11.6408 20.9022H27.2455C27.6215 20.9022 27.9248 20.5985 27.9248 20.2229C27.9239 19.8453 27.6215 19.5422 27.2457 19.5422Z" fill="#C4C4C4"/>
<path d="M27.2457 22.6402H11.6408C11.2652 22.6402 10.9619 22.9453 10.9619 23.3205C10.9619 23.6961 11.2652 24.0002 11.6408 24.0002H27.2455C27.6215 24.0002 27.9248 23.6961 27.9248 23.3205C27.925 22.9453 27.6215 22.6402 27.2457 22.6402Z" fill="#C4C4C4"/>
<path d="M27.2458 25.739H19.4427C19.0678 25.739 18.7631 26.0429 18.7631 26.4185C18.7631 26.7941 19.0678 27.0992 19.4427 27.0992H27.2456C27.6216 27.0992 27.9239 26.7941 27.9239 26.4185C27.9239 26.0429 27.6216 25.739 27.2458 25.739Z" fill="#C4C4C4"/>
<path d="M27.2457 31.8588H21.7832C21.4063 31.8588 21.1039 32.1629 21.1039 32.5384C21.1039 32.9136 21.4063 33.2177 21.7832 33.2177H27.2457C27.6217 33.2177 27.924 32.9136 27.924 32.5384C27.924 32.1629 27.6215 31.8588 27.2457 31.8588Z" fill="#C4C4C4"/>
<path d="M20.2006 13.4555C20.2006 12.1693 18.7197 10.4343 16.7207 9.92742C17.5558 9.36578 18.1313 8.2566 18.1313 7.2577C18.1313 5.84892 16.9905 4.70563 15.5804 4.70563C14.1721 4.70563 13.0296 5.84892 13.0296 7.2577C13.0296 8.25558 13.6051 9.36476 14.4384 9.92742C12.4422 10.4341 10.9603 12.1703 10.9603 13.4555C10.962 14.9754 20.2006 14.9754 20.2006 13.4555ZM15.3748 10.6678H15.3631L14.9408 10.1827C15.1473 10.2558 15.3578 10.3005 15.5807 10.3005C15.8039 10.3005 16.0146 10.257 16.2207 10.1837L15.7971 10.6676H15.7871L16.8771 13.3011L15.5807 14.5943L14.2856 13.3011L15.3748 10.6678Z" fill="#C4C4C4"/>
</g>
<defs>
<clipPath id="clip0_2059_76">
<rect width="37" height="37" fill="white" transform="translate(0.942383 0.265625)"/>
</clipPath>
</defs>
</svg>
