<svg width="40" height="40" viewBox="0 0 40 40" fill="none" xmlns="http://www.w3.org/2000/svg">
<path d="M25.4528 21.1405C25.4101 21.1224 23.8136 20.4248 23.5299 20.3342C23.4141 20.2973 23.29 20.2613 23.1581 20.2613C22.9425 20.2613 22.7614 20.3566 22.6203 20.5439C22.4608 20.7542 21.9781 21.2549 21.8289 21.4045C21.8094 21.4242 21.7828 21.4478 21.7669 21.4478C21.7526 21.4478 21.5055 21.3576 21.4307 21.3287C19.7182 20.6686 18.4182 19.0813 18.24 18.8136C18.2145 18.7751 18.2135 18.7576 18.2132 18.7576C18.2195 18.7373 18.2771 18.686 18.3068 18.6596C18.3938 18.5833 18.488 18.4826 18.5791 18.3853C18.6223 18.3392 18.6655 18.293 18.708 18.2495C18.8402 18.1129 18.8991 18.007 18.9673 17.8842L19.0031 17.8204C19.1698 17.5266 19.0274 17.2787 18.9814 17.1986C18.9437 17.1316 18.2696 15.688 18.1979 15.5364C18.0255 15.1704 17.7978 15 17.4813 15C17.452 15 17.4813 15 17.3582 15.0046C17.2082 15.0102 16.3916 15.1056 16.0306 15.3076C15.6477 15.5217 15 16.2045 15 17.4052C15 18.4858 15.7729 19.5061 16.1047 19.8942C16.1129 19.904 16.1281 19.9238 16.15 19.9523C17.4208 21.5991 19.005 22.8194 20.611 23.3887C22.157 23.9367 22.8892 24 23.3054 24H23.3055C23.4804 24 23.6204 23.9878 23.7439 23.977L23.8222 23.9704C24.3563 23.9284 25.53 23.3887 25.797 22.7304C26.0073 22.2119 26.0628 21.6454 25.9229 21.4398C25.827 21.3 25.6619 21.2296 25.4528 21.1405Z" fill="#10568B"/>
<path d="M20.7219 8C13.9511 8 8.44268 13.2484 8.44268 19.6995C8.44268 21.786 9.02433 23.8284 10.1262 25.6159L8.01719 31.5883C7.9779 31.6996 8.00712 31.8227 8.09292 31.9066C8.15485 31.9673 8.23886 32 8.32466 32C8.35753 32 8.39065 31.9952 8.42295 31.9854L14.91 30.0064C16.6851 30.917 18.6915 31.3976 20.722 31.3976C27.4921 31.3977 33 26.1498 33 19.6995C33 13.2484 27.4921 8 20.7219 8ZM20.7219 28.9606C18.8113 28.9606 16.9607 28.4309 15.37 27.4289C15.3165 27.3951 15.2544 27.3778 15.1919 27.3778C15.1588 27.3778 15.1257 27.3826 15.0935 27.3925L11.8439 28.3841L12.8929 25.413C12.9269 25.3169 12.9099 25.2108 12.8474 25.1288C11.636 23.5398 10.9957 21.6625 10.9957 19.6995C10.9957 14.5922 15.3588 10.4371 20.7218 10.4371C26.0842 10.4371 30.4468 14.5922 30.4468 19.6995C30.4469 24.8061 26.0843 28.9606 20.7219 28.9606Z" fill="#10568B"/>
<path d="M20 0C8.95313 0 0 8.95313 0 20C0 31.0469 8.95313 40 20 40C31.0469 40 40 31.0469 40 20C40 8.95313 31.0469 0 20 0ZM32.4844 32.4766C30.8594 34.1016 28.9766 35.375 26.875 36.2578C24.7031 37.1797 22.3906 37.6406 20 37.6406C17.6172 37.6406 15.3047 37.1719 13.125 36.2578C11.0234 35.3672 9.13281 34.0938 7.51562 32.4766C5.89062 30.8516 4.61719 28.9687 3.73437 26.8672C2.8125 24.6953 2.34375 22.3828 2.34375 20C2.34375 17.6172 2.8125 15.3047 3.72656 13.125C4.61719 11.0234 5.89062 9.13281 7.50781 7.51562C9.14062 5.89062 11.0234 4.61719 13.125 3.72656C15.3047 2.8125 17.6172 2.34375 20 2.34375C22.3828 2.34375 24.6953 2.8125 26.875 3.72656C28.9766 4.61719 30.8672 5.89062 32.4844 7.50781C34.1094 9.13281 35.3828 11.0156 36.2656 13.1172C37.1875 15.2891 37.6484 17.6016 37.6484 19.9922C37.6484 22.375 37.1797 24.6875 36.2656 26.8672C35.375 28.9687 34.1016 30.8594 32.4844 32.4766Z" fill="#10568B"/>
</svg>
