<?xml version="1.0" encoding="UTF-8"?> <svg xmlns="http://www.w3.org/2000/svg" width="70" height="70" viewBox="0 0 70 70" fill="none"><path d="M67.2319 53.8562L55.8095 42.4478C54.6716 41.31 52.8187 41.31 51.6811 42.4478L50.3537 43.7752L46.4414 39.8633C46.4414 39.8633 46.4072 39.8755 46.3972 39.8783C46.4081 39.8624 46.4169 39.8453 46.4277 39.8294C46.7045 39.4267 46.9523 39.0039 47.2061 38.5844C47.3506 38.3448 47.5059 38.1103 47.6418 37.8672C47.8885 37.4272 48.1083 36.9723 48.329 36.5168C48.4415 36.2839 48.5606 36.0538 48.6657 35.818C48.8757 35.3486 49.0626 34.8685 49.2445 34.3844C49.3316 34.1525 49.4196 33.9215 49.4996 33.6877C49.667 33.1993 49.8169 32.7044 49.9549 32.2032C50.022 31.9594 50.0838 31.7148 50.1435 31.4692C50.2633 30.9769 50.3741 30.4823 50.4646 29.979C50.5159 29.6955 50.553 29.4108 50.5947 29.1259C50.6632 28.6542 50.7343 28.1842 50.7767 27.7044C50.8162 27.2642 50.8268 26.8234 50.8435 26.3821C50.8549 26.0685 50.8907 25.7615 50.8907 25.4455C50.8907 25.2561 50.8666 25.0726 50.8625 24.8838C50.85 24.2768 50.8262 23.6701 50.7706 23.0649C50.7431 22.767 50.6961 22.476 50.6583 22.1813C50.5936 21.67 50.5212 21.1609 50.4253 20.6536C50.3723 20.3745 50.3095 20.1005 50.2473 19.8249C50.1282 19.2915 49.9928 18.7624 49.8389 18.2361C49.7745 18.0175 49.7092 17.7996 49.639 17.5835C49.4433 16.9757 49.2219 16.376 48.9795 15.7817C48.9303 15.6622 48.8853 15.5415 48.8345 15.423C47.6017 12.5288 45.8257 9.81208 43.468 7.45101C41.1428 5.12578 38.4688 3.36697 35.6209 2.13015C35.5122 2.0826 35.4082 2.02691 35.2989 1.98099C34.7318 1.74399 34.1544 1.54388 33.5745 1.34999C33.3516 1.27459 33.1347 1.18661 32.909 1.11744C32.3923 0.960426 31.8686 0.838966 31.3445 0.715284C31.0489 0.644925 30.7596 0.559459 30.4599 0.499765C29.9261 0.393413 29.3875 0.32587 28.8491 0.25403C28.5561 0.21463 28.2693 0.15701 27.9732 0.12783C27.1335 0.0448811 26.291 0 25.4482 0.000296245C25.4472 0.000296245 25.4463 0 25.4452 0C25.4107 0 25.3772 0.00488804 25.3427 0.00518429C24.5395 0.00859111 23.7365 0.0479917 22.9365 0.126645C22.5645 0.162935 22.2034 0.232849 21.8365 0.284988C21.3779 0.35031 20.9186 0.404374 20.4637 0.494433C20.0776 0.571309 19.7038 0.678253 19.3242 0.772311C18.891 0.878959 18.4564 0.975831 18.0283 1.10559C17.7011 1.20512 17.3859 1.3297 17.0645 1.44197C16.5903 1.60654 16.1156 1.76621 15.6502 1.95966C15.4161 2.05727 15.1929 2.17355 14.9627 2.27783C14.4255 2.52016 13.8896 2.76545 13.3669 3.04658C13.2423 3.11398 13.1253 3.19263 13.0019 3.26195C11.0099 4.37776 9.12716 5.75856 7.43501 7.45071C5.71723 9.17145 4.31629 11.0861 3.19397 13.1146C3.15042 13.1934 3.09961 13.2675 3.0568 13.3467C2.75197 13.9118 2.48446 14.4905 2.22554 15.0725C2.14333 15.2565 2.04913 15.4335 1.97107 15.6195C1.75881 16.1288 1.58239 16.6479 1.40465 17.1674C1.31 17.4423 1.20113 17.7104 1.11566 17.9895C0.971091 18.4641 0.862517 18.9456 0.746241 19.4263C0.665663 19.7579 0.569087 20.0829 0.501543 20.4196C0.39371 20.959 0.32587 21.5037 0.252993 22.0479C0.21537 22.3295 0.15775 22.6039 0.129311 22.8885C0.045918 23.7224 0.00414743 24.5595 0.00251808 25.3968C0.00251808 25.4132 0 25.4289 0 25.4454C0 25.6593 0.0268102 25.8666 0.0321426 26.0792C0.047103 26.6905 0.0657664 27.3011 0.124571 27.91C0.15775 28.2559 0.219814 28.5918 0.266621 28.9334C0.333128 29.4185 0.393858 29.9036 0.488212 30.3847C0.555904 30.7283 0.648184 31.0619 0.729651 31.4003C0.843558 31.8774 0.954353 32.3544 1.09611 32.8256C1.18261 33.1115 1.28837 33.3876 1.38465 33.6688C1.56062 34.1876 1.7397 34.7048 1.94988 35.2135C2.03224 35.4112 2.12778 35.6014 2.21502 35.7966C2.47098 36.3742 2.73819 36.9465 3.03903 37.5073C3.09413 37.6093 3.15664 37.7062 3.21307 37.8074C3.56368 38.44 3.93562 39.0624 4.34399 39.6691C4.34784 39.6746 4.35199 39.6799 4.35569 39.6853C5.20888 40.9507 6.17034 42.1644 7.27489 43.2915V43.2419C11.8935 47.9573 18.3238 50.8909 25.4455 50.8909C25.4777 50.8909 25.5085 50.8862 25.5406 50.886L25.4516 50.9238C28.7572 50.9238 32.0497 50.2555 35.1473 48.9655C35.3333 48.8884 35.515 48.8043 35.699 48.7231C36.1806 48.5092 36.6565 48.2802 37.1269 48.0354C37.3783 47.905 37.6287 47.7751 37.8751 47.6369C38.2832 47.4072 38.6825 47.1585 39.0802 46.9048C39.3222 46.7506 39.5706 46.6063 39.8072 46.4444C39.8174 46.4374 39.8282 46.4317 39.8384 46.4246C39.8389 46.4302 39.8399 46.4497 39.8399 46.4497L43.7625 50.3668L42.4321 51.697C41.2942 52.835 41.2942 54.6876 42.4321 55.8255L53.8545 67.2481C55.6927 69.0863 58.1144 70.0052 60.5359 70.0052C62.9576 70.0052 65.394 69.0863 67.2319 67.2481C70.9227 63.5572 70.9227 57.5468 67.2319 53.8562ZM25.4514 8.74471C29.9006 8.74471 33.5198 12.3645 33.5198 16.8138C33.5198 21.2628 29.9006 24.8813 25.4514 24.8813C21.0023 24.8813 17.3831 21.2628 17.3831 16.8138C17.3831 12.3645 21.0023 8.74471 25.4514 8.74471ZM43.7449 43.1619L43.6538 43.2005C43.6853 43.1682 43.7136 43.1328 43.7449 43.1002V43.1619ZM43.7449 38.5347C39.6536 44.2383 32.9844 47.9739 25.4454 47.9739C17.9833 47.9739 11.3766 44.3117 7.27474 38.7071V35.9479C7.27474 31.0014 10.6873 26.5225 15.5739 25.0567L17.6075 24.4567L25.4516 32.2993L33.2956 24.4567L35.3228 25.0552C40.2841 26.5424 43.7452 31.0086 43.7452 35.9148V38.5347H43.7449ZM54.7809 56.8555L52.7181 54.7926L54.7809 52.73L56.8436 54.7926L54.7809 56.8555ZM58.9073 60.9813L56.8445 58.9183L58.9073 56.8556L60.9702 58.9183L58.9073 60.9813Z" fill="white"></path></svg> 