<?xml version="1.0" encoding="UTF-8"?> <svg xmlns="http://www.w3.org/2000/svg" width="70" height="70" viewBox="0 0 70 70" fill="none"><path fill-rule="evenodd" clip-rule="evenodd" d="M43.8255 9.84375V43.2709C43.0325 44.3713 42.4714 45.6477 42.2144 47.0312H6.5625C6.27266 47.0312 5.99375 46.9164 5.78922 46.7108C5.58359 46.5063 5.46875 46.2273 5.46875 45.9375V27.3547C5.46875 26.7509 4.97875 26.2609 4.375 26.2609C3.77125 26.2609 3.28125 26.7509 3.28125 27.3547V45.9375C3.28125 46.8081 3.62687 47.6427 4.24266 48.2573C4.85734 48.8731 5.69187 49.2188 6.5625 49.2188H42.0678C42.1575 51.0388 42.7667 52.7231 43.75 54.1253C43.75 54.1308 43.75 54.1352 43.75 54.1406V65.625C43.75 66.0286 43.972 66.3994 44.3275 66.5897C44.683 66.78 45.115 66.7592 45.4508 66.535L51.4062 62.5647L57.3617 66.535C57.6975 66.7592 58.1295 66.78 58.485 66.5897C58.8405 66.3994 59.0625 66.0286 59.0625 65.625V54.2008C60.0775 52.7833 60.7064 51.0716 60.7983 49.2188H63.4375C65.2498 49.2188 66.7188 47.7498 66.7188 45.9375V10.9375C66.7188 9.12516 65.2498 7.65625 63.4375 7.65625C56.7427 7.65625 36.9841 7.65625 36.9841 7.65625C36.3803 7.65625 35.8903 8.14625 35.8903 8.75C35.8903 9.35375 36.3803 9.84375 36.9841 9.84375H43.8255ZM45.9375 56.3478V63.5808L50.7992 60.34C51.1667 60.095 51.6458 60.095 52.0133 60.34L56.875 63.5808V56.3861C55.3405 57.482 53.4614 58.1284 51.4325 58.1284C49.3806 58.1284 47.4819 57.4678 45.9375 56.3478ZM51.4325 41.5625C55.4006 41.5625 58.6217 44.7836 58.6217 48.7517C58.6217 52.7188 55.4006 55.9409 51.4325 55.9409C47.4655 55.9409 44.2444 52.7188 44.2444 48.7517C44.2444 44.7836 47.4655 41.5625 51.4325 41.5625ZM52.3884 43.0916C52.1959 42.7448 51.8295 42.5294 51.4325 42.5294C51.0355 42.5294 50.6702 42.7448 50.4766 43.0916L49.1466 45.4836L46.4603 46.0097C46.0698 46.0863 45.7527 46.3684 45.6302 46.7458C45.5066 47.1231 45.5984 47.5377 45.8686 47.8286L47.7334 49.8334L47.4031 52.5514C47.3561 52.9452 47.5256 53.3345 47.8461 53.5675C48.1677 53.8005 48.5898 53.842 48.9497 53.6747L51.4325 52.5208L53.9153 53.6747C54.2762 53.842 54.6984 53.8005 55.02 53.5675C55.3405 53.3345 55.51 52.9452 55.4619 52.5514L55.1327 49.8334L56.9964 47.8286C57.2677 47.5377 57.3584 47.1231 57.2359 46.7458C57.1134 46.3684 56.7962 46.0863 56.4058 46.0097L53.7195 45.4836L52.3884 43.0916ZM51.4325 45.873L52.0548 46.9919C52.2112 47.273 52.4836 47.4709 52.8008 47.5333L54.0553 47.7794L53.1847 48.7156C52.9648 48.9519 52.8609 49.2723 52.8992 49.5928L53.0534 50.8616L51.8941 50.3234C51.602 50.1878 51.2641 50.1878 50.972 50.3234L49.8116 50.8616L49.9658 49.5928C50.0052 49.2723 49.9013 48.9519 49.6814 48.7156L48.8108 47.7794L50.0653 47.5333C50.3814 47.4709 50.6548 47.273 50.8113 46.9919L51.4325 45.873ZM59.0406 9.84375V43.2709C59.8336 44.3702 60.3947 45.6477 60.6517 47.0312H63.4375C64.0412 47.0312 64.5312 46.5412 64.5312 45.9375V10.9375C64.5312 10.3338 64.0412 9.84375 63.4375 9.84375H59.0406ZM19.4239 28.093C17.3141 28.7897 15.3311 29.9775 13.6544 31.6553C10.6192 34.6905 9.1875 38.7253 9.35922 42.7033C9.38438 43.2884 9.86562 43.75 10.4519 43.75H37.6731C38.2594 43.75 38.7406 43.2884 38.7658 42.7033C38.9375 38.7253 37.5058 34.6905 34.4706 31.6553C32.7939 29.9775 30.8109 28.7897 28.7011 28.093C30.8536 26.6131 32.2656 24.1347 32.2656 21.3281C32.2656 16.8011 28.5895 13.125 24.0625 13.125C19.5355 13.125 15.8594 16.8011 15.8594 21.3281C15.8594 24.1347 17.2714 26.6131 19.4239 28.093ZM22.4809 29.633C19.8177 29.9698 17.243 31.1598 15.2009 33.2019C12.8822 35.5195 11.6638 38.523 11.5423 41.5625H21.7952L19.7258 38.9627C19.4917 38.6673 19.425 38.2725 19.5508 37.917L22.4809 29.633ZM25.6441 29.633L28.5742 37.917C28.7 38.2725 28.6333 38.6673 28.3992 38.9627L26.3298 41.5625H36.5827C36.4612 38.523 35.2428 35.5195 32.9241 33.2019C30.882 31.1598 28.3073 29.9698 25.6441 29.633ZM56.8531 41.1009V9.84375H46.013V41.1009C47.5431 40.0148 49.4145 39.375 51.4325 39.375C53.4516 39.375 55.3219 40.0148 56.8531 41.1009ZM24.0625 40.8997L21.8159 38.0745L24.0625 31.7209L26.3091 38.0745L24.0625 40.8997ZM24.0625 15.3125C27.3831 15.3125 30.0781 18.0075 30.0781 21.3281C30.0781 24.6488 27.3831 27.3438 24.0625 27.3438C20.7419 27.3438 18.0469 24.6488 18.0469 21.3281C18.0469 18.0075 20.7419 15.3125 24.0625 15.3125ZM32.8891 7.65625H6.5625C5.69187 7.65625 4.85734 8.00188 4.24266 8.61766C3.62687 9.23234 3.28125 10.0669 3.28125 10.9375C3.28125 14.9472 3.28125 23.0661 3.28125 23.0661C3.28125 23.6698 3.77125 24.1598 4.375 24.1598C4.97875 24.1598 5.46875 23.6698 5.46875 23.0661C5.46875 23.0661 5.46875 14.9472 5.46875 10.9375C5.46875 10.6477 5.58359 10.3688 5.78922 10.1642C5.99375 9.95859 6.27266 9.84375 6.5625 9.84375H32.8891C33.4928 9.84375 33.9828 9.35375 33.9828 8.75C33.9828 8.14625 33.4928 7.65625 32.8891 7.65625Z" fill="white"></path></svg> 