<?xml version="1.0" encoding="UTF-8"?> <svg xmlns="http://www.w3.org/2000/svg" width="70" height="70" viewBox="0 0 70 70" fill="none"><path d="M27.2316 32.9931C27.285 32.9931 27.3395 32.992 27.394 32.9893C28.3574 32.9493 29.2386 32.5605 29.8111 31.9228C30.2149 31.4732 30.1776 30.7815 29.7278 30.3783C29.2782 29.9762 28.587 30.0119 28.1833 30.4617C28.0071 30.6577 27.6696 30.7885 27.3021 30.804C26.8673 30.8259 26.4423 30.6738 26.1464 30.3965C25.7085 29.9826 25.0153 30.0029 24.6009 30.4419C24.1864 30.8815 24.2067 31.5736 24.6468 31.988C25.3293 32.6316 26.2628 32.9931 27.2316 32.9931Z" fill="white"></path><path d="M31.7797 25.0168C32.0756 24.7391 32.5039 24.5901 32.9364 24.6093C33.3038 24.6248 33.6404 24.7556 33.8166 24.9511C34.0324 25.1919 34.3314 25.3148 34.6304 25.3148C34.8911 25.3148 35.1517 25.2223 35.3611 25.0354C35.8107 24.6317 35.8481 23.9406 35.4444 23.4909C34.8729 22.8527 33.9918 22.4639 33.0272 22.4233C32.0126 22.3918 31.0011 22.7459 30.2801 23.4252C29.84 23.8396 29.8197 24.5317 30.2341 24.9713C30.6474 25.4109 31.3418 25.4307 31.7797 25.0168Z" fill="white"></path><path d="M22.0779 24.9516C22.2937 25.1924 22.5927 25.3147 22.8918 25.3147C23.1524 25.3147 23.414 25.2223 23.6224 25.0348C24.072 24.6311 24.1094 23.9394 23.7057 23.4904C23.1322 22.8516 22.2488 22.4628 21.2822 22.4233C20.2461 22.3859 19.257 22.7475 18.5393 23.4268C18.1003 23.8418 18.0821 24.5339 18.4965 24.9729C18.9141 25.4125 19.6062 25.4301 20.0432 25.0152C20.3348 24.7391 20.7332 24.5868 21.1936 24.6093C21.5631 24.6242 21.9017 24.7556 22.0779 24.9516Z" fill="white"></path><path d="M49.5243 29.0874H49.4826C48.8781 29.0874 48.4102 29.5772 48.4102 30.1812C48.4102 30.7851 48.9196 31.2749 49.5243 31.2749C50.1289 31.2749 50.618 30.7851 50.618 30.1812C50.618 29.5772 50.1288 29.0874 49.5243 29.0874Z" fill="white"></path><path d="M55.2653 29.0874H55.2226C54.6181 29.0874 54.1501 29.5772 54.1501 30.1812C54.1501 30.7851 54.6607 31.2749 55.2652 31.2749C55.8697 31.2749 56.359 30.7851 56.359 30.1812C56.359 29.5772 55.87 29.0874 55.2653 29.0874Z" fill="white"></path><path d="M61.0097 29.0874H60.9681C60.3635 29.0874 59.8947 29.5772 59.8947 30.1812C59.8947 30.7851 60.4052 31.2749 61.0097 31.2749C61.6142 31.2749 62.1035 30.7851 62.1035 30.1812C62.1035 29.5772 61.6142 29.0874 61.0097 29.0874Z" fill="white"></path><path d="M64.8375 21.8859C60.3531 16.6141 52.4125 15.9797 47.1405 20.4641C47.0858 20.5078 47.0312 20.5516 46.9874 20.6063C45.7296 15.4875 43.5968 10.2484 39.9983 6.475C36.5969 2.89844 32.2766 1.09375 27.1688 1.09375C18.9984 1.09375 12.7641 5.84063 9.16564 14.8313C5.34845 24.3469 5.43595 36.75 7.12032 38.3578C8.1467 39.2863 9.89462 40.1683 11.6537 40.8683C2.16706 45.1982 2.1629 52.9027 2.1629 58.2939V67.8125C2.1629 68.4165 2.65214 68.9062 3.25665 68.9062H27.1075L27.1109 68.9068L51.0613 68.9062C51.6658 68.9062 52.155 68.4165 52.155 67.8125V58.294C52.155 53.0411 52.1491 45.5929 43.3717 41.2088C44.722 40.6163 46.0139 39.9501 46.9547 39.4297C48.9781 41.2344 51.5266 42.3172 54.2828 42.5469C54.6219 42.5688 54.961 42.5797 55.3 42.5797C58.275 42.5797 61.1297 41.5406 63.4266 39.5828C65.975 37.4172 67.5281 34.3766 67.8016 31.0297C68.0641 27.6828 67.0141 24.4453 64.8375 21.8859ZM11.6585 66.7188V61.376C11.6585 60.772 11.1693 60.2823 10.5648 60.2823C9.96025 60.2823 9.47101 60.772 9.47101 61.376V66.7188H4.3504V58.294C4.3504 52.2823 4.35412 44.8891 16.2342 41.527L13.1506 47.1098C12.9135 47.5381 12.9904 48.0722 13.3386 48.416L16.8228 51.8607L14.3533 58.1685C14.1771 58.6197 14.3181 59.1329 14.7015 59.4304L24.0807 66.7188H11.6585ZM16.6882 58.2048L19.1225 51.9873C19.2816 51.5808 19.1834 51.1184 18.8726 50.8113L15.4653 47.4424L18.1218 42.6325L25.0635 64.7127L16.6882 58.2048ZM20.5187 37.5039C22.5086 38.9713 24.7574 39.8786 27.0874 39.8786C29.1894 39.8786 31.3656 38.9191 33.364 37.398L34.7334 39.9761L33.0527 45.311H21.257L19.5594 39.9112L20.5187 37.5039ZM15.2442 23.4297V19.1732C18.4357 18.3983 19.2485 17.3761 20.526 15.4754C20.8496 14.992 21.2064 14.4617 21.6731 13.854C27.9996 17.4722 32.7601 18.9745 39.093 19.3393V23.4525C39.093 28.9459 32.538 37.6911 27.0874 37.6911C24.8617 37.6911 22.6872 36.6143 20.8182 34.9532C20.8164 34.9513 20.8141 34.95 20.8122 34.9482C17.5617 32.0562 15.2442 27.3824 15.2442 23.4297ZM21.9448 47.4985H32.3636L27.1489 64.0514L21.9448 47.4985ZM36.1809 42.663L38.8078 47.5257L35.3952 50.8989C35.0843 51.2065 34.9861 51.669 35.1464 52.076L37.5827 58.2935L29.2071 64.7995L36.1809 42.663ZM49.9675 58.294V66.7188H44.3856V61.376C44.3856 60.772 43.8964 60.2823 43.2918 60.2823C42.6873 60.2823 42.1981 60.772 42.1981 61.376V66.7188H30.3016L39.5705 59.5191C39.9539 59.2216 40.0949 58.7079 39.9176 58.2566L37.445 51.9483L40.9291 48.5053C41.2741 48.1635 41.3532 47.6348 41.1225 47.2076L38.049 41.5186C38.7801 41.7247 39.4633 41.9471 40.1075 42.1824C40.1132 42.1844 40.1185 42.1866 40.1243 42.1883C49.9603 45.7888 49.9675 52.6496 49.9675 58.294ZM40.4658 39.9912C39.3117 39.5872 38.0394 39.2272 36.6459 38.9146L35.0549 35.9194C38.62 32.4639 41.2805 27.405 41.2805 23.4525V18.2957C41.2805 17.7077 40.8148 17.2244 40.2274 17.2025C33.4865 16.9515 28.7067 15.4572 21.9626 11.4929C21.5023 11.2221 20.9116 11.3236 20.5698 11.7343C19.7249 12.7432 19.1621 13.5816 18.7092 14.2556C17.5481 15.9844 17.1572 16.567 13.9325 17.2239C13.4231 17.3281 13.0567 17.7762 13.0567 18.2958V23.4297C13.0567 27.7044 15.3622 32.6429 18.7688 35.9875L17.5957 38.9314C16.6172 39.1527 15.7001 39.398 14.8419 39.6657C12.2413 38.8765 9.69567 37.7007 8.67345 36.8156C7.82032 35.0875 7.44845 21.5031 12.9719 11.9656C16.3078 6.20156 21.0875 3.28125 27.1688 3.28125C31.6531 3.28125 35.4375 4.85625 38.4125 7.97344C42.0219 11.7578 44.0453 17.3031 45.1719 22.5859C43.3125 25.0906 42.4594 28.2078 42.7984 31.3688L39.9656 35.2078C39.7141 35.5359 39.6814 35.9734 39.8563 36.3344C40.0313 36.7063 40.4031 36.9359 40.8078 36.9469L44.8766 37.0563C45.0406 37.3078 45.2265 37.5484 45.4125 37.7781C44.0055 38.5278 42.1061 39.4377 40.4658 39.9912ZM65.6141 30.8547C65.5047 32.2437 65.1328 33.5563 64.5203 34.7484C63.9078 35.9516 63.0656 37.0234 62.0047 37.9203C59.8938 39.7141 57.225 40.5891 54.4578 40.3594C52.3031 40.1844 50.3125 39.375 48.6938 38.0297C47.8072 37.308 46.9875 36.4008 46.4188 35.4047C46.2219 35.0875 45.8828 34.9016 45.5109 34.8906L42.9734 34.8141L44.811 32.3203C44.986 32.0906 45.0625 31.7953 45.0188 31.5109C44.7345 29.5641 45.0079 27.6281 45.7734 25.8891C46.2 24.8938 46.8016 23.9641 47.5453 23.1328C47.8516 22.7828 48.2016 22.4437 48.5626 22.1375C52.9157 18.4297 59.4673 18.9547 63.1751 23.3078C64.9688 25.4187 65.8328 28.0984 65.6141 30.8547Z" fill="white"></path></svg> 