<?xml version="1.0" encoding="UTF-8"?> <svg xmlns="http://www.w3.org/2000/svg" width="80" height="68" viewBox="0 0 80 68" fill="none"><path d="M38.2199 15.3284C34.1335 15.3284 30.8086 18.6531 30.8086 22.7395C30.8086 26.8259 34.1333 30.1508 38.2199 30.1508C42.3065 30.1508 45.631 26.8261 45.631 22.7395C45.6309 18.6528 42.3063 15.3284 38.2199 15.3284ZM38.2199 27.4195C35.6394 27.4195 33.5397 25.32 33.5397 22.7393C33.5397 20.1587 35.6393 18.0593 38.2199 18.0593C40.8004 18.0593 42.8999 20.1589 42.8999 22.7393C42.8998 25.32 40.8002 27.4195 38.2199 27.4195Z" fill="white"></path><path d="M70.6367 13.0703C67.9584 13.0703 65.7793 15.2494 65.7793 17.9277C65.7793 20.606 67.9584 22.7851 70.6367 22.7851C73.315 22.7851 75.4941 20.606 75.4941 17.9277C75.4939 15.2494 73.3148 13.0703 70.6367 13.0703ZM70.6367 20.0539C69.4643 20.0539 68.5104 19.1 68.5104 17.9277C68.5104 16.7553 69.4642 15.8014 70.6367 15.8014C71.8092 15.8014 72.763 16.7553 72.763 17.9277C72.7628 19.1002 71.8091 20.0539 70.6367 20.0539Z" fill="white"></path><path d="M74.4995 0.000780825L54.6416 0C51.6086 0 49.1411 2.4683 49.1411 5.50222V11.7713H40.9529C40.951 11.7713 40.9495 11.7712 40.9476 11.7712H11.1316C11.1282 11.7712 11.1248 11.7713 11.121 11.7713H5.83597C2.61798 11.7713 0 14.3895 0 17.6073V52.6722C0 55.8902 2.61798 58.5082 5.83597 58.5082H26.745L24.9014 65.997C24.8998 66.0034 24.8992 66.0099 24.8978 66.0163C24.8903 66.0491 24.8844 66.0824 24.8792 66.1162C24.8767 66.1324 24.8737 66.1485 24.8717 66.1649C24.868 66.1973 24.8662 66.2302 24.8648 66.2637C24.8641 66.2804 24.8625 66.2974 24.8623 66.3143C24.8623 66.3176 24.8619 66.3207 24.8619 66.3238C24.8619 66.3646 24.8644 66.4049 24.8678 66.4448C24.8683 66.4499 24.868 66.4551 24.8686 66.4602C24.8734 66.5102 24.8816 66.5596 24.8917 66.6081C24.893 66.6143 24.895 66.6202 24.8964 66.6266C24.9059 66.6684 24.917 66.7095 24.9301 66.7496C24.9339 66.761 24.9386 66.7724 24.9426 66.7838C24.955 66.8182 24.9683 66.8521 24.9833 66.8852C24.9895 66.8988 24.9962 66.9124 25.003 66.9259C25.018 66.956 25.0337 66.9857 25.0506 67.0146C25.0591 67.0288 25.0673 67.0429 25.0762 67.0568C25.0941 67.0848 25.1133 67.1118 25.1331 67.1384C25.1398 67.1474 25.1455 67.1573 25.1526 67.1663C25.1558 67.1701 25.1594 67.1737 25.1625 67.1774C25.1866 67.2074 25.212 67.2359 25.2384 67.2637C25.2455 67.2712 25.2519 67.2791 25.2592 67.2865C25.2931 67.3206 25.3286 67.3526 25.3659 67.3827C25.3758 67.3907 25.3861 67.3977 25.3961 67.4056C25.4245 67.4274 25.4534 67.4485 25.4834 67.4682C25.4964 67.4766 25.5098 67.4843 25.5231 67.4923C25.5517 67.5096 25.5808 67.5262 25.6109 67.5412C25.6248 67.5482 25.6387 67.5548 25.6528 67.5613C25.6836 67.5757 25.7147 67.5887 25.7467 67.6007C25.7608 67.606 25.7747 67.6113 25.7887 67.6162C25.8219 67.6274 25.8556 67.637 25.8897 67.6457C25.9036 67.6493 25.917 67.6534 25.9308 67.6563C25.9669 67.6643 26.0034 67.6704 26.0406 67.6752C26.053 67.6768 26.0652 67.6795 26.0778 67.6809C26.127 67.6862 26.1769 67.6895 26.2273 67.6895H42.6898H53.4978C54.2522 67.6895 54.8634 67.0781 54.8634 66.3238C54.8634 65.5698 54.2522 64.9584 53.4978 64.9584H44.432L46.0196 58.5086L69.9024 58.5078C72.7817 58.5078 75.1243 56.1663 75.1243 53.2878V41.4752C77.8642 41.1637 80 38.8326 80 36.0108V5.50175C80.0005 2.4683 77.5326 0.000780825 74.4995 0.000780825ZM56.2413 5.50175C56.2413 3.97456 57.4838 2.73205 59.0111 2.73205H74.4995C76.0268 2.73189 77.2694 3.9744 77.2694 5.50175V7.1116H56.2413V5.50175ZM56.2411 9.8424H77.2692V31.4977H76.6162L69.7445 23.9358C69.4856 23.6511 69.1185 23.4886 68.7338 23.4886C68.3491 23.4886 67.9821 23.6509 67.7232 23.9358L65.7723 26.0823L60.9275 20.7531C60.6688 20.4686 60.3018 20.3061 59.9171 20.3061C59.5325 20.3061 59.1655 20.4684 58.9068 20.7532L56.2413 23.6858L56.2411 9.8424ZM72.9259 31.4977H70.6953L67.6179 28.1127L68.7338 26.8847L72.9259 31.4977ZM56.2414 27.6372L56.2956 27.6864L59.9174 23.7019L67.0046 31.4977H56.2414V27.6372ZM51.8722 5.50238C51.8722 4.11002 52.9048 2.95736 54.2433 2.7633C53.778 3.57049 53.51 4.50503 53.51 5.50191V36.0105C53.51 37.0066 53.7775 37.941 54.2425 38.7477C52.9044 38.5532 51.872 37.4016 51.872 36.0105V5.50238H51.8722ZM8.64083 42.5062L19.6262 31.2155L34.2305 47.2787H8.64083V42.5062ZM31.6444 40.3724L34.9255 36.7619L44.4823 47.2784H37.9212V47.2786L31.6444 40.3724ZM6.54301 55.7769H5.83597C4.12393 55.777 2.73111 54.3842 2.73111 52.6722V17.6073C2.73111 15.8953 4.12393 14.5024 5.83597 14.5024H6.54301C6.13941 15.2431 5.90972 16.0918 5.90972 16.9928V53.2872C5.90972 54.1881 6.13925 55.0364 6.54301 55.7769ZM41.6196 64.9579H27.9698L29.5575 58.5082H43.2073L41.6196 64.9579ZM72.3937 53.2875C72.3937 54.6599 71.2764 55.7764 69.9029 55.7764H11.1316C9.75818 55.7764 8.64083 54.66 8.64083 53.2875V50.0098H72.3937V53.2875ZM72.3937 47.2787H48.1726L35.9363 33.8133C35.6774 33.5286 35.3105 33.3661 34.9257 33.3661C34.541 33.3661 34.1739 33.5285 33.9152 33.8133L29.7989 38.3426L20.6703 28.3042C20.4168 28.0256 20.0596 27.8639 19.6831 27.8577C19.3028 27.8564 18.9439 28.0008 18.6814 28.2708L8.64099 38.5901V16.9929C8.64099 15.6213 9.75553 14.5054 11.1265 14.5026H49.1412V36.0105C49.1412 39.0434 51.6087 41.5109 54.6417 41.5109L72.3939 41.5113V47.2787H72.3937ZM77.2694 36.0104C77.2694 37.5377 76.0268 38.7802 74.4995 38.7802L59.0005 38.7798C57.478 38.774 56.2411 37.5341 56.2411 36.0104V34.2288H77.2692V36.0104H77.2694Z" fill="white"></path><path d="M38.2199 15.3284C34.1335 15.3284 30.8086 18.6531 30.8086 22.7395C30.8086 26.8259 34.1333 30.1508 38.2199 30.1508C42.3065 30.1508 45.631 26.8261 45.631 22.7395C45.6309 18.6528 42.3063 15.3284 38.2199 15.3284ZM38.2199 27.4195C35.6394 27.4195 33.5397 25.32 33.5397 22.7393C33.5397 20.1587 35.6393 18.0593 38.2199 18.0593C40.8004 18.0593 42.8999 20.1589 42.8999 22.7393C42.8998 25.32 40.8002 27.4195 38.2199 27.4195Z" fill="white"></path><path d="M70.6367 13.0703C67.9584 13.0703 65.7793 15.2494 65.7793 17.9277C65.7793 20.606 67.9584 22.7851 70.6367 22.7851C73.315 22.7851 75.4941 20.606 75.4941 17.9277C75.4939 15.2494 73.3148 13.0703 70.6367 13.0703ZM70.6367 20.0539C69.4643 20.0539 68.5104 19.1 68.5104 17.9277C68.5104 16.7553 69.4642 15.8014 70.6367 15.8014C71.8092 15.8014 72.763 16.7553 72.763 17.9277C72.7628 19.1002 71.8091 20.0539 70.6367 20.0539Z" fill="white"></path></svg> 