<?xml version="1.0" encoding="UTF-8"?> <svg xmlns="http://www.w3.org/2000/svg" width="56" height="70" viewBox="0 0 56 70" fill="none"><path d="M8.09512 49.4143V20.5857" stroke="white" stroke-width="2.34375" stroke-linecap="round" stroke-linejoin="round"></path><path d="M8.09512 13.7225V9.60312C8.09512 8.52145 8.3082 7.45037 8.72218 6.45105C9.13616 5.45173 9.74293 4.54375 10.5079 3.77895C11.2728 3.01416 12.1809 2.40753 13.1803 1.99372C14.1796 1.5799 15.2508 1.36701 16.3324 1.36719H46.5336C48.7179 1.36719 50.8127 2.2349 52.3573 3.77944C53.9018 5.32398 54.7695 7.41882 54.7695 9.60312V60.3969C54.7695 62.5812 53.9018 64.676 52.3573 66.2206C50.8127 67.7651 48.7179 68.6328 46.5336 68.6328H16.3324C15.2508 68.633 14.1796 68.4201 13.1803 68.0063C12.1809 67.5925 11.2728 66.9858 10.5079 66.221C9.74293 65.4563 9.13616 64.5483 8.72218 63.5489C8.3082 62.5496 8.09512 61.4786 8.09512 60.3969V56.2775" stroke="white" stroke-width="2.34375" stroke-linecap="round" stroke-linejoin="round"></path><path d="M11.5281 13.7225H4.66348C2.76824 13.7225 1.23184 15.2589 1.23184 17.1541C1.23184 19.0493 2.76824 20.5857 4.66348 20.5857H11.5281C13.4234 20.5857 14.9598 19.0493 14.9598 17.1541C14.9598 15.2589 13.4234 13.7225 11.5281 13.7225Z" stroke="white" stroke-width="2.34375" stroke-linecap="round" stroke-linejoin="round"></path><path d="M11.5281 49.4142H4.66348C2.76824 49.4142 1.23184 50.9506 1.23184 52.8459C1.23184 54.7411 2.76824 56.2775 4.66348 56.2775H11.5281C13.4234 56.2775 14.9598 54.7411 14.9598 52.8459C14.9598 50.9506 13.4234 49.4142 11.5281 49.4142Z" stroke="white" stroke-width="2.34375" stroke-linecap="round" stroke-linejoin="round"></path><path d="M50.9373 14.4088H54.7654V55.5912H50.9373C50.1334 55.5912 49.3625 55.2719 48.794 54.7034C48.2256 54.135 47.9062 53.364 47.9062 52.5601V17.4398C47.9062 16.636 48.2256 15.865 48.794 15.2966C49.3625 14.7281 50.1334 14.4088 50.9373 14.4088Z" stroke="white" stroke-width="2.34375" stroke-linecap="round" stroke-linejoin="round"></path><path d="M47.9062 21.2721H54.7695" stroke="white" stroke-width="2.34375" stroke-linecap="round" stroke-linejoin="round"></path><path d="M47.9062 28.1367H54.7695" stroke="white" stroke-width="2.34375" stroke-linecap="round" stroke-linejoin="round"></path><path d="M47.9062 35H54.7695" stroke="white" stroke-width="2.34375" stroke-linecap="round" stroke-linejoin="round"></path><path d="M47.9062 41.8633H54.7695" stroke="white" stroke-width="2.34375" stroke-linecap="round" stroke-linejoin="round"></path><path d="M47.9062 48.7279H54.7695" stroke="white" stroke-width="2.34375" stroke-linecap="round" stroke-linejoin="round"></path><path d="M17.9621 24.9594C16.3215 26.6629 16.1998 28.5236 17.0967 30.6715C19.9213 37.435 27.8045 45.4604 34.4709 48.2453L34.4955 48.2549C35.3312 48.5975 36.2449 48.704 37.137 48.5627C38.0291 48.4214 38.8652 48.0378 39.5541 47.4537L41.706 45.7037C42.7998 44.7043 42.5264 43.6529 41.3643 42.8764C39.9875 41.9604 38.5725 41.099 37.1601 40.2473C36.0295 39.5637 35.1162 39.7893 34.1879 40.7873C33.7777 41.2289 32.8029 41.6076 32.3135 41.4107C29.7486 40.3881 24.7488 35.2434 23.6892 32.6607C23.5238 32.2574 23.6892 31.3811 23.9969 31.1568C25.7496 29.9086 25.431 28.5045 24.4932 26.9801C23.7904 25.8398 23.1068 24.6996 22.3877 23.5758C21.5674 22.2934 20.5652 22.0787 19.466 23.2066L17.9621 24.9594Z" stroke="white" stroke-width="2.34375" stroke-linecap="round" stroke-linejoin="round"></path></svg> 