<?xml version="1.0" encoding="UTF-8"?> <svg xmlns="http://www.w3.org/2000/svg" width="90" height="90" viewBox="0 0 90 90" fill="none"><path d="M19.6875 56.0671L34.5797 71.0296C34.5797 71.0296 80.9859 51.3421 78.4969 11.5593C78.4969 11.5593 41.6813 6.01864 19.6875 56.0671Z" stroke="white" stroke-width="2.8125"></path><path d="M62.8453 12.7827C63.4401 16.3737 65.1527 19.6856 67.7391 22.2468C70.3936 24.9249 73.85 26.6629 77.5828 27.1968" stroke="white" stroke-width="2.8125"></path><path d="M55.4906 43.2563C60.3058 43.2563 64.2094 39.3528 64.2094 34.5376C64.2094 29.7224 60.3058 25.8188 55.4906 25.8188C50.6754 25.8188 46.7719 29.7224 46.7719 34.5376C46.7719 39.3528 50.6754 43.2563 55.4906 43.2563Z" stroke="white" stroke-width="2.8125"></path><path d="M20.9391 53.1843L13.4859 54.1406C13.4205 54.1479 13.3544 54.138 13.294 54.112C13.2335 54.086 13.1809 54.0448 13.1412 53.9923C13.1015 53.9399 13.0761 53.878 13.0675 53.8128C13.0589 53.7476 13.0674 53.6812 13.0922 53.6203L18.6187 40.964C18.8565 40.421 19.2204 39.9425 19.6802 39.5682C20.14 39.194 20.6825 38.9349 21.2625 38.8125L30.5297 36.8718" stroke="white" stroke-width="2.8125"></path><path d="M37.3359 69.4688L36.3656 76.9219C36.3583 76.9873 36.3682 77.0535 36.3942 77.1139C36.4201 77.1743 36.4614 77.227 36.5138 77.2667C36.5663 77.3064 36.6282 77.3318 36.6934 77.3404C36.7586 77.349 36.825 77.3404 36.8859 77.3157L49.5422 71.8032C50.0843 71.5602 50.5616 71.193 50.9354 70.7313C51.3092 70.2695 51.569 69.7262 51.6937 69.1454L53.6344 59.8782" stroke="white" stroke-width="2.8125"></path><path d="M31.2328 67.6828C27.9 78.1031 11.4047 78.6234 11.4047 78.6234C11.4047 78.6234 11.25 62.5921 22.1625 58.5984" stroke="white" stroke-width="2.8125"></path></svg> 