<?xml version="1.0" encoding="UTF-8"?> <svg xmlns="http://www.w3.org/2000/svg" width="74" height="74" viewBox="0 0 74 74" fill="none"><path d="M65.7145 0.000175006H7.73112C5.69657 -0.0135512 3.73972 0.780654 2.29022 2.20842C0.84071 3.63618 0.0170224 5.5808 0 7.61532V37.9728C0.0170224 40.0074 0.84071 41.952 2.29022 43.3797C3.73972 44.8075 5.69657 45.6017 7.73112 45.588H32.4965C32.4128 45.7788 32.3481 45.9773 32.3032 46.1807C32.1697 47.2477 32.2979 48.3312 32.6768 49.3376L32.7928 49.6984C33.5788 52.5846 34.455 55.3936 35.2152 57.7774L35.2668 57.932C35.7325 59.9616 36.7032 61.8408 38.0886 63.3953C38.7458 64.0267 39.4158 64.6709 40.0858 65.3023C39.6057 65.4939 39.1936 65.8242 38.9022 66.2511C38.6107 66.678 38.4531 67.1821 38.4494 67.699V70.843C38.4515 71.5258 38.7236 72.1801 39.2065 72.6629C39.6893 73.1458 40.3436 73.418 41.0265 73.42H65.2635C65.9463 73.418 66.6006 73.1458 67.0835 72.6629C67.5663 72.1801 67.8385 71.5258 67.8405 70.843V67.699C67.8385 67.0161 67.5663 66.3618 67.0835 65.879C66.6006 65.3961 65.9463 65.124 65.2635 65.1219H64.9414C65.3924 63.6659 65.8691 62.1712 66.4103 60.7281C67.8534 56.8368 67.8148 52.8166 67.789 48.9252C67.7761 47.7269 67.7761 46.4899 67.8148 45.2787C69.4226 44.8433 70.8435 43.8932 71.8604 42.5739C72.8772 41.2546 73.434 39.6385 73.4456 37.9728V7.61532C73.4286 5.5808 72.6049 3.63618 71.1554 2.20842C69.7059 0.780654 67.749 -0.0135512 65.7145 0.000175006ZM65.2635 67.699V70.843H41.0265V67.699H65.2635ZM65.2635 44.1706C65.1862 45.7684 65.1991 47.3919 65.212 48.951C65.2377 52.7779 65.2764 56.3858 63.9879 59.8261C63.3694 61.4754 62.854 63.1634 62.3386 64.7869L62.2355 65.1219H43.6164C42.3665 63.9236 41.1166 62.7382 39.8668 61.527C38.8159 60.2605 38.0787 58.7639 37.715 57.1589L37.6634 56.9914C36.9161 54.6463 36.0528 51.8631 35.2668 49.0026L35.1508 48.6031C34.9077 47.9845 34.7979 47.3215 34.8287 46.6575C34.8921 46.3816 35.0266 46.1271 35.2187 45.9191C35.4108 45.7112 35.6539 45.5571 35.9239 45.472H35.9368C36.0126 45.4487 36.0902 45.4315 36.1687 45.4205C36.4648 45.3794 36.7665 45.4149 37.0449 45.5236C37.3802 45.635 37.6639 45.8638 37.8438 46.1678C38.0644 46.5614 38.2457 46.9757 38.385 47.4048C38.4881 47.6625 38.5783 47.9331 38.6813 48.165C38.8102 48.4871 38.9133 48.8093 39.0164 49.1314C39.2481 49.8942 39.5546 50.6322 39.9312 51.3348C40.1423 51.8028 40.5101 52.1824 40.9711 52.4082C41.4322 52.634 41.9576 52.6919 42.4567 52.5718C42.9592 52.4171 43.7968 51.9146 43.8483 50.304C43.887 48.3068 43.9256 46.3224 43.9514 44.3252C43.99 41.7997 44.0416 39.2699 44.106 36.7359C44.1962 33.0893 44.3251 30.0871 44.5055 27.3554L44.5312 26.9173C44.5465 26.4964 44.7241 26.0977 45.0267 25.8047C45.3293 25.5117 45.7335 25.3471 46.1548 25.3453C46.5879 25.3455 47.0057 25.5061 47.3273 25.7963C47.4696 25.9304 47.583 26.0921 47.6605 26.2716C47.7381 26.4511 47.7782 26.6445 47.7783 26.84V44.1448C47.7783 44.4866 47.914 44.8143 48.1557 45.056C48.3973 45.2976 48.7251 45.4334 49.0668 45.4334C49.4086 45.4334 49.7363 45.2976 49.9779 45.056C50.2196 44.8143 50.3553 44.4866 50.3553 44.1448V36.6457C50.3553 35.9756 51.0898 35.4345 51.9789 35.4345C52.4208 35.4222 52.8533 35.5633 53.203 35.8339C53.3284 35.9428 53.429 36.0774 53.4979 36.2286C53.5668 36.3797 53.6025 36.5439 53.6024 36.7101V44.1448C53.6024 44.4866 53.7382 44.8143 53.9798 45.056C54.2214 45.2976 54.5492 45.4334 54.8909 45.4334C55.2327 45.4334 55.5604 45.2976 55.802 45.056C56.0437 44.8143 56.1794 44.4866 56.1794 44.1448V38.0373C56.1812 37.7923 56.2479 37.5522 56.3727 37.3415C56.5152 37.1407 56.6972 36.9713 56.9076 36.8435C57.118 36.7158 57.3523 36.6324 57.5962 36.5986C57.84 36.5648 58.0881 36.5813 58.3254 36.647C58.5626 36.7127 58.7838 36.8263 58.9755 36.9807C59.0818 37.0912 59.1767 37.2121 59.259 37.3415C59.3757 37.5549 59.4377 37.794 59.4394 38.0373V44.1448C59.4394 44.4866 59.5751 44.8143 59.8168 45.056C60.0584 45.2976 60.3862 45.4334 60.7279 45.4334C61.0697 45.4334 61.3974 45.2976 61.639 45.056C61.8807 44.8143 62.0164 44.4866 62.0164 44.1448V40.2535C62.0361 39.842 62.218 39.4551 62.5223 39.1774C62.8266 38.8997 63.2284 38.7539 63.64 38.7717C64.0796 38.7704 64.5034 38.9362 64.8254 39.2356C64.9631 39.3671 65.0728 39.5251 65.1481 39.7C65.2233 39.8748 65.2626 40.0631 65.2635 40.2535V44.1706ZM42.083 25.9509H41.2326V21.5571L51.5408 21.5313V25.9381H50.2394C50.0678 25.168 49.6682 24.4675 49.0926 23.928C48.2966 23.1816 47.2459 22.7669 46.1548 22.7683C45.2158 22.7588 44.3015 23.0686 43.5618 23.6469C42.822 24.2251 42.3006 25.0375 42.083 25.9509ZM65.7145 34.1846C65.707 34.5193 65.5673 34.8374 65.3257 35.0692C65.0842 35.3011 64.7607 35.4278 64.426 35.4216H60.9985C60.9083 35.3314 60.8568 35.2154 60.7666 35.1381C59.9691 34.3762 58.9059 33.9555 57.803 33.9655C56.9966 33.9694 56.2071 34.1969 55.5223 34.6227C55.3432 34.3487 55.1263 34.1014 54.878 33.8882C54.7136 33.748 54.5367 33.6229 54.3497 33.5146C54.2351 33.4402 54.1144 33.3756 53.989 33.3213C53.9245 33.2955 53.873 33.2697 53.8086 33.244C53.2315 32.9915 52.6088 32.8599 51.9789 32.8574C51.8668 32.8591 51.7549 32.8677 51.6439 32.8832C51.5537 32.8961 51.4635 32.8961 51.3733 32.909C51.2522 32.9198 51.1318 32.937 51.0125 32.9605C50.7877 33.0035 50.5676 33.0682 50.3553 33.1538V28.5151H51.5408C52.222 28.5151 52.8756 28.2454 53.3585 27.7649C53.8414 27.2844 54.1144 26.6322 54.1178 25.9509V21.5313C54.111 20.8523 53.8365 20.2035 53.354 19.7257C52.8714 19.248 52.2198 18.98 51.5408 18.9801H41.2326C40.5536 18.98 39.902 19.248 39.4194 19.7257C38.9369 20.2035 38.6624 20.8523 38.6556 21.5313V25.9509C38.659 26.6322 38.932 27.2844 39.4149 27.7649C39.8978 28.2454 40.5514 28.5151 41.2326 28.5151H41.8511C41.8382 28.7342 41.8253 28.9532 41.8125 29.1851C41.7996 29.4171 41.7867 29.649 41.7738 29.868C41.748 30.3577 41.7223 30.8473 41.7094 31.337L41.6707 32.1874C41.6578 32.677 41.6321 33.1667 41.6192 33.6692C41.6063 33.9784 41.5934 34.2877 41.5934 34.6098C41.5805 34.8804 41.5676 35.1381 41.5676 35.4216H9.01963C8.68491 35.4278 8.36136 35.3011 8.11985 35.0692C7.87834 34.8374 7.73856 34.5193 7.73112 34.1846V8.87807C7.73856 8.54337 7.87834 8.22526 8.11985 7.99341C8.36136 7.76156 8.68491 7.63487 9.01963 7.64109H64.426C64.7607 7.63487 65.0842 7.76156 65.3257 7.99341C65.5673 8.22526 65.707 8.54337 65.7145 8.87807V34.1846ZM70.8686 37.9728C70.8621 38.9452 70.5723 39.8947 70.0344 40.7048C69.4966 41.515 68.7342 42.1508 67.8405 42.5342V40.2535C67.8383 39.711 67.7264 39.1745 67.5116 38.6763C67.2968 38.1781 66.9836 37.7285 66.5907 37.3543C67.1099 37.0034 67.536 36.5316 67.8323 35.9794C68.1286 35.4272 68.2862 34.8112 68.2915 34.1846V8.87807C68.282 7.86054 67.87 6.88817 67.1457 6.17348C66.4213 5.45879 65.4435 5.05992 64.426 5.06406H9.01963C8.00207 5.05992 7.02425 5.45879 6.29991 6.17348C5.57556 6.88817 5.1636 7.86054 5.15408 8.87807V34.1846C5.1636 35.2021 5.57556 36.1745 6.29991 36.8892C7.02425 37.6039 8.00207 38.0027 9.01963 37.9986H41.5032C41.4517 40.0989 41.4001 42.1863 41.3744 44.2866C41.3615 45.4849 41.3357 46.6832 41.3228 47.8687C41.2455 47.6496 41.1553 47.4306 41.0651 47.1857C40.9749 46.9667 40.8847 46.7348 40.8074 46.5157C40.6126 45.9347 40.3624 45.3737 40.0601 44.8406C39.6212 44.1476 38.9948 43.5933 38.2535 43.2421C37.5123 42.8909 36.6866 42.7571 35.8724 42.8563C35.6443 42.8847 35.4198 42.9365 35.2023 43.0109H7.73112C7.06188 43.0186 6.39768 42.8944 5.77646 42.6453C5.15524 42.3963 4.58916 42.0273 4.11055 41.5594C3.63195 41.0916 3.25018 40.5341 2.98706 39.9187C2.72393 39.3033 2.58461 38.6421 2.57704 37.9728V7.61532C2.58461 6.94608 2.72393 6.28489 2.98706 5.66949C3.25018 5.0541 3.63195 4.49657 4.11055 4.02873C4.58916 3.56089 5.15524 3.1919 5.77646 2.94285C6.39768 2.6938 7.06188 2.56956 7.73112 2.57721H65.7145C66.3837 2.56956 67.0479 2.6938 67.6691 2.94285C68.2904 3.1919 68.8564 3.56089 69.335 4.02873C69.8137 4.49657 70.1954 5.0541 70.4585 5.66949C70.7217 6.28489 70.861 6.94608 70.8686 7.61532V37.9728Z" fill="white"></path><path d="M38.6556 40.5112C38.6556 40.8529 38.5198 41.1807 38.2782 41.4223C38.0365 41.6639 37.7088 41.7997 37.3671 41.7997H34.79C34.4483 41.7997 34.1205 41.6639 33.8789 41.4223C33.6372 41.1807 33.5015 40.8529 33.5015 40.5112C33.5015 40.1694 33.6372 39.8417 33.8789 39.6001C34.1205 39.3584 34.4483 39.2227 34.79 39.2227H37.3671C37.7088 39.2227 38.0365 39.3584 38.2782 39.6001C38.5198 39.8417 38.6556 40.1694 38.6556 40.5112Z" fill="white"></path><path d="M21.9048 13.9418C21.9048 14.2836 21.7691 14.6113 21.5274 14.853C21.2858 15.0946 20.958 15.2304 20.6163 15.2304H14.1737C13.832 15.2304 13.5042 15.0946 13.2626 14.853C13.0209 14.6113 12.8852 14.2836 12.8852 13.9418C12.8852 13.6001 13.0209 13.2724 13.2626 13.0307C13.5042 12.7891 13.832 12.6533 14.1737 12.6533H20.6163C20.958 12.6533 21.2858 12.7891 21.5274 13.0307C21.7691 13.2724 21.9048 13.6001 21.9048 13.9418Z" fill="white"></path><path d="M21.9048 21.5312C21.9048 21.8729 21.7691 22.2007 21.5274 22.4423C21.2858 22.684 20.958 22.8197 20.6163 22.8197H14.1737C13.832 22.8197 13.5042 22.684 13.2626 22.4423C13.0209 22.2007 12.8852 21.8729 12.8852 21.5312C12.8852 21.1895 13.0209 20.8617 13.2626 20.6201C13.5042 20.3784 13.832 20.2427 14.1737 20.2427H20.6163C20.958 20.2427 21.2858 20.3784 21.5274 20.6201C21.7691 20.8617 21.9048 21.1895 21.9048 21.5312Z" fill="white"></path><path d="M21.9048 29.1208C21.9048 29.4625 21.7691 29.7903 21.5274 30.0319C21.2858 30.2736 20.958 30.4093 20.6163 30.4093H14.1737C13.832 30.4093 13.5042 30.2736 13.2626 30.0319C13.0209 29.7903 12.8852 29.4625 12.8852 29.1208C12.8852 28.7791 13.0209 28.4513 13.2626 28.2097C13.5042 27.968 13.832 27.8323 14.1737 27.8323H20.6163C20.958 27.8323 21.2858 27.968 21.5274 28.2097C21.7691 28.4513 21.9048 28.7791 21.9048 29.1208Z" fill="white"></path><path d="M34.4034 12.3315L30.5379 16.1197C30.2987 16.3589 29.9742 16.4933 29.6359 16.4933C29.2976 16.4933 28.9732 16.3589 28.734 16.1197L26.1569 13.5942C25.9138 13.3527 25.776 13.0248 25.7736 12.682C25.7712 12.3393 25.9043 12.0095 26.144 11.7645C26.3837 11.5228 26.7094 11.3858 27.0498 11.3834C27.3902 11.381 27.7177 11.5134 27.9608 11.7517L29.6359 13.401L32.5995 10.4889C32.8426 10.2506 33.1702 10.1182 33.5106 10.1206C33.851 10.1231 34.1766 10.2601 34.4163 10.5018C34.656 10.7468 34.7892 11.0766 34.7868 11.4193C34.7844 11.762 34.6466 12.0899 34.4034 12.3315Z" fill="white"></path><path d="M34.4035 19.9206L30.5379 23.7088C30.2987 23.948 29.9742 24.0824 29.6359 24.0824C29.2976 24.0824 28.9732 23.948 28.734 23.7088L26.1569 21.1833C25.9126 20.9441 25.7733 20.6176 25.7697 20.2757C25.766 19.9338 25.8984 19.6044 26.1376 19.3601C26.3768 19.1157 26.7033 18.9764 27.0452 18.9728C27.3872 18.9692 27.7165 19.1015 27.9609 19.3408L29.6359 20.9901L32.5995 18.078C32.8427 17.8397 33.1702 17.7073 33.5106 17.7097C33.851 17.7122 34.1766 17.8492 34.4163 18.0909C34.656 18.3359 34.7892 18.6657 34.7868 19.0084C34.7844 19.3511 34.6466 19.679 34.4035 19.9206Z" fill="white"></path><path d="M34.4035 27.5102L30.5379 31.2984C30.2987 31.5376 29.9742 31.672 29.6359 31.672C29.2976 31.672 28.9732 31.5376 28.734 31.2984L26.1569 28.7729C25.9126 28.5337 25.7733 28.2072 25.7697 27.8653C25.766 27.5234 25.8984 27.194 26.1376 26.9497C26.3768 26.7053 26.7033 26.566 27.0452 26.5624C27.3872 26.5588 27.7165 26.6911 27.9609 26.9304L29.6359 28.5797L32.5995 25.6676C32.8427 25.4293 33.1702 25.2969 33.5106 25.2993C33.851 25.3018 34.1766 25.4388 34.4163 25.6805C34.656 25.9255 34.7892 26.2553 34.7868 26.598C34.7844 26.9407 34.6466 27.2686 34.4035 27.5102Z" fill="white"></path></svg> 