<svg width="1246" height="790" viewBox="0 0 1246 790" fill="none" xmlns="http://www.w3.org/2000/svg">
<path d="M293.192 283.706C294.762 277.608 296.302 271.608 297.841 265.608C297.891 265.411 297.971 265.214 297.977 265.015C298.002 264.257 298.072 263.462 299.011 263.208C300.025 262.934 300.986 263.23 301.764 263.872C302.446 264.436 302.812 265.187 303.086 265.968C304.619 270.364 307.126 274.266 310.281 277.887C313.391 281.458 315.911 285.322 317.074 289.821C317.859 292.862 319.564 295.644 320.259 298.728C320.959 301.831 321.697 304.975 321.667 308.104C321.627 312.522 320.584 316.872 317.021 320.237C313.85 323.231 309.758 323.919 305.428 322.98C301.348 322.095 298.408 319.689 296.375 316.45C292.111 309.663 290.676 302.352 291.407 294.619C291.752 290.976 292.297 287.373 293.192 283.706ZM299.467 271.799C297.618 279.224 295.164 286.535 294.509 294.179C293.949 300.716 294.622 307.054 297.825 313.047C299.449 316.083 301.535 318.677 305.178 320.033C308.389 321.229 313.055 320.424 315.185 317.946C317.764 314.945 318.718 311.382 318.565 307.671C318.457 305.053 317.934 302.443 317.409 299.849C316.748 296.587 314.931 293.663 314.106 290.467C313.026 286.281 310.614 282.751 307.73 279.437C305.972 277.414 304.349 275.321 303.072 273.026C302.18 271.422 301.365 269.785 300.46 268.059C300.123 269.321 299.817 270.461 299.467 271.799Z" fill="#0B3453"/>
<path d="M736.173 208.847C734.934 208.802 733.789 208.862 732.726 208.439C731.814 208.078 731.193 207.51 731.49 206.541C731.796 205.547 732.598 204.931 733.718 204.83C734.621 204.748 734.846 205.518 734.263 206.81C735.999 207.134 737.666 206.976 739.323 206.563C744.05 205.385 748.391 203.343 752.906 201.686C754.619 201.057 756.371 200.511 758.123 199.975C758.77 199.777 759.509 199.68 759.909 200.384C760.279 201.038 759.793 201.489 759.271 201.823C756.69 203.475 756.458 208.453 757.369 210.433C758.059 211.939 759.627 212.601 761.488 212.187C763.076 211.834 764.553 211.217 766.032 210.606C766.771 210.3 767.496 209.964 768.25 209.692C768.907 209.455 769.65 209.074 770.234 209.748C770.818 210.421 770.225 210.951 769.809 211.481C768.992 212.521 768.426 213.652 768.17 214.92C767.761 216.943 769.292 218.863 771.582 219.118C773.138 219.292 774.644 219.125 776.092 218.557C777.5 218.004 778.919 217.473 780.329 216.925C780.959 216.68 781.588 216.567 782.004 217.189C782.368 217.734 782.052 218.163 781.59 218.577C780.271 219.766 780.002 221.356 779.643 222.903C779.008 225.642 779.011 228.372 779.744 231.099C780.44 233.685 782.027 235.563 784.89 236.481C785.825 236.78 786.744 237.127 787.644 237.505C788.163 237.724 788.541 238.111 788.318 238.683C788.093 239.255 787.552 239.311 786.973 239.215C781.483 238.305 777.973 234.672 777.328 229.66C776.9 226.334 777.357 223.139 778.312 219.807C776.374 220.438 774.638 221.096 772.686 221.044C767.667 220.908 765.114 217.895 766.377 213.523C766.456 213.249 766.538 212.977 766.63 212.667C766.212 212.509 765.929 212.754 765.62 212.856C764.644 213.178 763.692 213.565 762.697 213.821C758.251 214.963 755.058 212.854 754.855 208.691C754.759 206.728 754.932 204.801 755.859 202.791C754.8 202.918 754.026 203.291 753.234 203.594C749.287 205.104 745.419 206.79 741.324 207.976C739.684 208.451 738.027 208.844 736.173 208.847Z" fill="#0B3453"/>
<path d="M433.295 151.548C431.494 150.829 430.229 149.544 428.515 148.672C427.769 149.917 427.742 151.268 427.494 152.543C426.349 158.443 425.198 164.345 424.213 170.267C423.434 174.955 420.633 178.709 417.678 182.405C415.943 184.576 412.104 184.302 410.368 183.375C408.3 182.269 407.231 179.365 408.347 177.212C410.484 173.086 414.909 169.083 421.71 171.231C422.426 169.604 422.579 167.865 422.893 166.17C424.268 158.747 425.493 151.301 427.341 143.956C427.948 141.542 428.461 139.12 428.354 136.624C428.328 136.016 428.449 135.424 429.291 135.388C430.032 135.355 430.326 135.888 430.367 136.434C430.609 139.736 432.783 142.145 435.011 144.499C437.016 146.617 439.447 148.326 442.103 149.738C444.05 150.773 446.292 150.928 448.489 151.164C449.295 151.251 450.112 151.287 450.902 151.442C451.865 151.631 452.084 152.3 451.439 152.977C450.666 153.789 449.667 154.254 448.476 154.251C443.257 154.235 438.092 153.956 433.295 151.548ZM420.714 173.161C420.089 172.709 419.374 172.544 418.576 172.527C415.244 172.455 411.157 175.124 410.177 178.035C409.683 179.504 410.371 181.291 411.66 181.888C413.111 182.562 415.306 182.17 416.284 180.933C417.852 178.951 419.325 176.908 420.598 174.757C420.863 174.309 421.261 173.845 420.714 173.161ZM429.529 143.765C429.381 144.356 429.222 144.946 429.089 145.54C428.966 146.091 429.104 146.53 429.625 146.934C433.29 149.785 437.375 151.774 442.486 152.083C437.28 149.585 433.172 146.19 430.028 141.612C429.831 142.464 429.704 143.017 429.529 143.765Z" fill="#0B3453"/>
<path d="M596.281 140.05C597.366 140.85 598.388 141.58 599.615 142.192C601.612 140.071 603.634 138.002 605.558 135.861C607.792 133.375 610.334 131.212 613.293 129.437C615.062 128.375 615.71 128.549 616.531 130.277C618.167 133.718 620.507 136.627 624.206 138.549C625.065 138.996 625.552 138.994 626.252 138.316C629.417 135.253 632.516 132.128 636.546 129.897C639.477 128.275 640.47 128.642 640.735 131.705C641.054 135.384 641.239 139.074 641.609 142.748C641.825 144.88 642.24 147.001 642.659 149.111C643.145 151.566 642.755 154.06 643.168 156.516C643.317 157.394 643.384 158.275 643.78 159.112C644.287 160.186 643.695 161.041 642.373 161.168C640.714 161.329 639.055 161.511 637.391 161.596C630.406 161.955 623.422 162.358 616.431 162.598C606.538 162.939 596.638 162.844 586.74 162.884C585.008 162.89 584.454 162.317 584.437 160.425C584.408 157.095 584.539 153.76 584.396 150.435C584.167 145.089 583.803 139.746 583.167 134.421C583.095 133.817 583.098 133.206 583.075 132.597C583.049 131.917 583.353 131.404 584.079 131.16C584.825 130.91 585.475 131.073 586.074 131.555C589.508 134.314 592.951 137.064 596.281 140.05ZM638.552 143.332C638.251 139.842 637.949 136.352 637.647 132.854C636.888 132.905 636.519 133.236 636.147 133.507C632.838 135.922 629.896 138.672 627.179 141.613C626.191 142.683 624.822 142.943 623.836 141.952C623.126 141.236 622.303 140.702 621.433 140.198C618.829 138.69 616.828 136.694 615.337 134.26C614.974 133.667 614.724 132.995 614.037 132.458C613.677 132.671 613.3 132.876 612.943 133.107C610.148 134.913 608.199 137.44 605.992 139.743C604.703 141.088 603.199 142.302 602.385 143.971C601.539 145.704 600.123 146.073 598.371 144.969C595.55 143.192 592.916 141.223 590.551 138.964C589.359 137.825 588.074 136.766 586.416 135.681C586.637 138.061 586.882 140.19 587.023 142.325C587.388 147.837 587.753 153.35 587.576 158.875C587.546 159.788 587.901 160.068 588.899 160.066C597.714 160.046 606.528 160.095 615.339 159.834C616.378 159.803 617.42 159.817 618.457 159.766C624.545 159.461 630.631 159.138 636.718 158.834C637.885 158.776 639.043 158.697 640.148 158.469C640.052 153.411 639.522 148.463 638.552 143.332Z" fill="#0B3453"/>
<path d="M1100.57 407.187C1097.85 408.052 1095.3 407.572 1092.77 406.881C1091.96 406.656 1091.2 406.232 1090.38 406.04C1086.16 405.057 1084.8 402.222 1084.5 398.738C1084.09 394.039 1088.09 388.365 1092.98 386.604C1093.7 386.345 1094.46 386.245 1095.29 386.218C1095.31 385.617 1094.87 385.235 1094.58 384.808C1093.69 383.451 1093.29 381.973 1093.15 380.414C1092.61 374.53 1097.03 371.438 1101.9 369.946C1106.14 368.644 1110.48 370.24 1112.63 373.794C1112.89 374.218 1113.13 374.647 1113.35 375.018C1113.7 375.142 1113.87 375 1114.01 374.848C1116.52 372.189 1119.98 371.541 1123.58 371.124C1126.48 370.79 1129.05 371.429 1131.65 372.59C1137 374.976 1138.65 382.317 1132.91 386.045C1132.76 386.137 1132.66 386.274 1132.5 386.425C1137.07 390.038 1140.46 394.054 1136.78 399.669C1133.92 404.048 1130.5 405.153 1124.73 403.975C1124.73 404.886 1124.81 405.763 1124.71 406.627C1124.33 410.234 1121.61 412.029 1118.21 413.272C1113.29 415.07 1108.78 414.245 1105.06 410.847C1103.78 409.669 1102.26 408.638 1101.93 406.94C1101.36 406.74 1101.04 407.073 1100.57 407.187ZM1087.62 399.024C1087.81 401.189 1088.71 402.86 1091.31 403.4C1091.83 403.508 1092.31 403.767 1092.81 403.958C1096.05 405.192 1099.2 405.315 1102.16 403.31C1102.8 402.883 1103.47 402.523 1104.28 402.955C1105.07 403.381 1104.98 404.107 1105 404.8C1105.02 405.56 1104.7 406.417 1105.3 407.05C1107.59 409.463 1109.96 411.757 1114.01 411.374C1115.76 411.208 1117.3 410.602 1118.85 409.909C1120.87 409.003 1121.69 407.536 1121.69 405.571C1121.7 404.215 1121.39 402.919 1121.03 401.615C1120.8 400.806 1121.01 400.038 1121.95 399.668C1122.84 399.313 1123.77 399.157 1124.56 399.939C1126.42 401.789 1129.34 402.337 1131.53 400.864C1134.58 398.802 1136.13 396.274 1134.65 393.093C1133.93 391.552 1132.95 390.237 1131.37 389.318C1130.84 389.009 1130.27 388.737 1129.79 388.367C1128.02 386.974 1127.64 385.58 1129.84 384.538C1130.47 384.24 1131.06 383.838 1131.6 383.407C1134.84 380.797 1133.44 376.948 1130.69 375.303C1126.7 372.915 1122.66 373.662 1118.66 375.051C1116.98 375.635 1115.86 376.894 1115.48 378.61C1115.24 379.714 1114.25 380.075 1113.08 379.646C1112.28 379.354 1111.74 378.816 1111.4 378.129C1110.98 377.278 1110.65 376.388 1110.2 375.549C1108.98 373.259 1106.55 371.928 1104.11 372.311C1101.84 372.668 1099.81 373.551 1098.17 375.039C1096.84 376.24 1096.22 377.682 1096.18 379.418C1096.12 381.538 1097.03 383.274 1098.31 384.943C1098.76 385.531 1099.19 386.041 1100.12 386.017C1100.77 385.999 1101.2 386.398 1101.38 386.954C1101.55 387.469 1101.41 387.988 1100.95 388.279C1099.48 389.215 1098.09 390.461 1096.01 389.368C1095.25 388.963 1094.35 388.913 1093.57 389.424C1090.02 391.748 1086.98 394.335 1087.62 399.024Z" fill="#0B3453"/>
<path d="M1085.54 347.624C1089.26 350.206 1090.6 354.605 1089.07 359.01C1088.29 361.28 1086.85 363.171 1084.89 364.75C1083.27 366.06 1081.23 366.229 1079.2 366.368C1078.31 366.429 1077.41 366.378 1076.43 366.378C1076.57 367.734 1077.23 368.819 1077.38 370.035C1077.91 374.351 1074.32 378.205 1069.51 378.363C1064.3 378.534 1060 376.042 1057.83 371.593C1057.69 371.303 1057.56 371.014 1057.37 370.633C1053.85 372.736 1050.14 373.686 1046.06 372.438C1043.16 371.551 1041.49 369.522 1040.17 367.168C1037.83 363.028 1039.15 357.876 1046.96 354.111C1045.33 352.088 1044.2 349.853 1043.45 347.469C1042.2 343.557 1042.91 340.119 1046.36 337.246C1049.87 334.33 1056.06 333.698 1060.15 335.924C1061.13 336.463 1061.71 337.353 1062.43 337.949C1066.33 334.048 1071.22 332.551 1076.72 333.422C1081.95 334.248 1086.52 338.66 1083.44 344.285C1083.12 344.862 1082.82 345.446 1082.48 346.086C1083.52 346.601 1084.49 347.085 1085.54 347.624ZM1043.33 360.401C1041.19 363.527 1042.81 368.097 1046.61 369.66C1049.76 370.955 1053.89 369.991 1055.88 367.455C1056.58 366.556 1057.51 366.394 1058.62 366.57C1059.65 366.736 1060.09 367.419 1060.13 368.221C1060.27 371.283 1062.48 373.156 1064.89 374.83C1067.33 376.515 1071.46 375.874 1073.27 373.698C1074.95 371.684 1074.8 369.222 1072.73 366.746C1072.02 365.897 1071.78 365.098 1072.36 364.172C1072.97 363.206 1074 363.252 1075 363.412C1076.62 363.673 1078.25 363.611 1079.87 363.552C1081.15 363.506 1082.37 363.23 1083.31 362.328C1084.46 361.219 1085.4 360.007 1086.02 358.577C1087.76 354.617 1085.86 348.234 1079.24 348.844C1078.58 348.905 1078.14 348.545 1077.87 348.025C1077.59 347.478 1077.76 347.012 1078.16 346.563C1079.11 345.526 1080 344.448 1080.61 343.217C1082.44 339.537 1080.67 337.657 1076.73 336.229C1073.92 335.215 1071.14 336.323 1068.45 337.19C1066.36 337.863 1065.11 339.07 1065.09 341.14C1065.08 341.916 1064.58 342.302 1063.8 342.498C1062.53 342.817 1061.64 342.502 1061.01 341.404C1060.25 340.077 1059.55 338.621 1057.87 338.005C1054.7 336.837 1051.62 337.116 1048.89 338.963C1046.94 340.28 1045.79 342.054 1045.97 344.422C1046.1 346.168 1046.7 347.751 1047.45 349.324C1048.34 351.216 1049.37 352.946 1052.08 353.036C1052.72 353.057 1053.11 353.504 1053.2 354.1C1053.29 354.681 1053.1 355.18 1052.51 355.443C1051.67 355.82 1050.92 356.386 1049.93 356.473C1047.04 356.726 1045.05 358.234 1043.33 360.401Z" fill="#0B3453"/>
<path d="M1113.37 387.205C1116.06 387.559 1117.45 389.006 1117.99 391.186C1118.52 393.28 1117.48 394.91 1115.68 396.024C1112.9 397.747 1111.05 397.931 1109.1 396.57C1107.23 395.267 1106.23 391.787 1107.12 389.885C1107.99 388.046 1110.65 386.88 1113.37 387.205ZM1111.55 389.985C1110.7 390.229 1109.91 390.563 1109.9 391.51C1109.88 392.63 1110.11 393.698 1111.18 394.444C1111.34 394.561 1111.59 394.636 1111.8 394.64C1113.17 394.666 1115.14 393.061 1115.08 391.99C1115.01 390.579 1113.69 389.763 1111.55 389.985Z" fill="#0B3453"/>
<path d="M1068.06 350.609C1071.59 352.547 1072.13 355.789 1069.46 358.424C1066.96 360.89 1065.04 361.13 1062.31 359.323C1059.71 357.601 1058.99 355.124 1060.44 352.838C1062.02 350.332 1065.01 349.428 1068.06 350.609ZM1064.83 357.444C1066.09 357.869 1066.74 357.095 1067.4 356.361C1068.27 355.385 1068.23 354.284 1067.3 353.471C1066.35 352.645 1065.03 352.585 1063.98 353.32C1062.16 354.596 1062.39 356.004 1064.83 357.444Z" fill="#0B3453"/>
<path d="M425.678 273.138C425.656 272.607 425.787 272.168 426.216 271.991C427.205 271.583 427.569 270.726 428.162 270.024C436.266 260.425 446.122 252.585 457.678 246.488C461.64 244.399 465.99 243.126 470.423 242.106C471.49 241.861 471.877 241.524 471.593 240.431C470.886 237.711 470.457 234.928 468.885 232.445C468.562 231.936 468.59 231.401 469.028 230.971C469.604 230.405 470.306 230.178 471.214 230.277C476.409 230.845 481.332 232.304 486.22 233.886C491.955 235.741 497.768 237.409 503.418 239.477C504.416 239.842 505.378 240.312 506.301 240.815C507.675 241.564 507.894 242.445 507.026 243.685C505.508 245.856 503.543 247.733 501.919 249.83C497.812 255.129 492.925 259.902 489.036 265.345C488.506 266.087 487.887 266.766 488.348 267.794C488.575 268.302 488.179 268.844 487.552 269.046C486.87 269.264 486.208 269.179 485.676 268.683C485.059 268.107 484.793 267.367 484.559 266.625C483.726 263.971 482.887 261.319 482.102 258.653C481.794 257.605 481.302 257.256 480.088 257.729C466.744 262.927 454.426 269.505 444.352 279.106C443.348 280.063 442.329 280.993 442.287 282.529C442.257 283.636 440.602 283.889 439.505 283.047C436.964 281.097 434.445 279.124 431.868 277.214C430.557 276.243 429.254 275.282 427.391 275.118C426.398 275.03 425.996 274.061 425.678 273.138ZM498.216 240.641C489.864 238.089 481.711 234.978 472.8 233.201C473.599 235.881 474.25 238.307 474.786 240.758C475.318 243.18 474.919 243.848 472.237 244.496C468.219 245.467 464.207 246.485 460.525 248.263C451.68 252.536 444.091 258.271 437.142 264.724C434.815 266.886 432.718 269.23 430.689 271.622C430.035 272.392 430.11 272.876 431.09 273.326C432.59 274.016 433.842 275.023 435.108 276.009C436.371 276.994 437.672 277.94 438.917 278.942C439.637 279.521 440.095 279.397 440.664 278.734C443.109 275.888 446.088 273.508 449.113 271.188C456.874 265.236 465.707 260.8 474.795 256.746C476.816 255.845 478.926 255.098 481.12 254.584C482.88 254.172 483.611 254.477 484.274 256.008C484.779 257.177 485.119 258.404 485.566 259.594C485.999 260.748 486.135 261.993 486.798 263.125C492.545 256.341 498.219 249.642 503.973 242.849C502.083 241.811 500.219 241.319 498.216 240.641Z" fill="#0B3453"/>
<path d="M201.051 422.441C197.408 423.298 194.574 422.48 192.937 420.167C191.8 418.56 191.884 416.869 192.441 415.128C193.023 413.308 193.928 411.647 195.322 410.213C195.616 409.912 195.88 409.586 196.17 409.258C195.715 408.862 195.186 408.973 194.723 408.974C188.945 408.991 183.154 408.718 177.406 409.496C172.719 410.13 168.275 411.428 164.115 413.481C163.715 413.679 163.353 413.916 163.104 414.271C162.711 414.832 162.082 415.033 161.404 415.174C160.609 415.339 159.927 415.185 159.547 414.524C159.177 413.883 159.343 413.249 159.925 412.744C160.744 412.032 161.706 411.493 162.7 411.009C168.264 408.307 174.215 406.842 180.517 406.39C185.305 406.046 190.093 406.225 194.881 406.189C195.957 406.182 197.097 406.204 198.099 406.504C199.579 406.948 200.763 406.61 202.06 406.006C207.269 403.575 212.986 402.417 218.524 400.814C219.555 400.516 220.581 400.196 221.627 399.943C222.597 399.71 223.606 399.653 223.975 400.745C224.346 401.839 223.463 402.311 222.515 402.579C218.339 403.763 214.141 404.885 209.97 406.078C207.881 406.676 205.795 407.31 203.912 408.362C204.149 409.018 204.719 409.245 205.143 409.588C207.725 411.674 208.44 414.489 207.019 417.32C205.825 419.704 203.998 421.54 201.051 422.441ZM198.805 410.951C196.999 412.348 195.927 414.141 195.327 416.184C194.618 418.602 196.575 420.481 199.31 420.012C200.789 419.759 201.963 419.047 202.933 418.035C205.545 415.307 205.218 412.976 202.007 410.838C200.924 410.116 199.97 409.86 198.805 410.951Z" fill="#0B3453"/>
<path d="M235.93 408.548C231.746 404.14 228.684 399.346 227.951 393.55C227.734 391.841 227.733 390.148 228.202 388.474C229.005 385.615 232.49 383.396 235.775 383.638C237.023 383.73 237.998 384.223 238.688 385.19C239.379 386.158 239.774 387.237 240.248 388.288C240.602 389.07 240.808 389.916 241.39 390.633C242.055 390.528 242.324 390.006 242.722 389.653C244.712 387.894 247.022 386.729 249.817 386.36C252.289 386.034 254.12 386.734 255.245 388.704C257.042 391.851 257.157 394.98 254.898 398.039C252.914 400.729 250.234 402.889 248.035 405.413C246.727 406.916 245.391 408.399 244.06 409.886C243.636 410.36 243.26 410.805 243.213 411.483C243.164 412.184 241.034 413.551 240.243 413.506C239.643 413.473 239.115 413.174 239.029 412.675C238.723 410.873 237.131 409.888 235.93 408.548ZM246.206 390.62C244.885 391.563 243.743 392.653 242.933 393.991C242.515 394.681 242.192 395.408 241.103 395.362C240.003 395.316 239.763 394.54 239.44 393.824C238.491 391.719 237.53 389.618 236.597 387.508C236.176 386.557 235.554 386.231 234.383 386.556C232.132 387.182 231.091 388.283 230.974 390.41C230.545 398.128 235.051 403.766 240.566 409.02C241.321 408.642 241.718 408.089 242.156 407.589C244.755 404.623 247.407 401.7 250.236 398.905C251.022 398.128 251.699 397.256 252.378 396.397C253.967 394.386 253.748 392.292 252.642 390.186C252.129 389.209 251.244 388.86 250.069 389.081C248.724 389.334 247.49 389.809 246.206 390.62Z" fill="#0B3453"/>
<path d="M1038.11 522.221C1033.75 523.584 1029.28 523.883 1024.87 524.462C1023.13 524.69 1021.4 525.227 1019.67 525.232C1016.01 525.241 1012.25 526.137 1008.71 524.706C1004.99 523.205 1001.53 521.339 998.393 518.933C992.218 514.193 987.915 508.238 984.905 501.625C981.737 494.662 980.796 487.362 983.212 479.947C984.425 476.224 986.712 473.025 989.157 469.885C995.08 462.28 1002.78 456.726 1012.46 453.435C1016.68 452.001 1021.15 451.628 1025.54 450.917C1032.25 449.831 1038.5 451.577 1044.49 453.814C1049.84 455.808 1053.7 459.621 1056.85 463.938C1058.38 466.043 1059.83 468.203 1061.48 470.242C1063.29 472.481 1063.81 475.115 1064.33 477.766C1064.96 480.919 1065.92 484.061 1065.6 487.278C1064.85 494.582 1064.3 501.94 1059.51 508.337C1057.27 511.327 1054.7 514.026 1051.75 516.44C1050.58 517.397 1049.25 518.165 1047.75 518.699C1044.56 519.838 1041.39 521.024 1038.11 522.221ZM1059.93 473.253C1057.26 469.779 1055.01 466.054 1052.07 462.751C1050.29 460.744 1048.25 458.857 1045.77 457.618C1039.56 454.513 1032.96 452.651 1025.7 453.71C1021.56 454.313 1017.38 454.724 1013.41 456.066C1002.42 459.785 994.556 466.691 988.66 475.611C985.077 481.032 984.524 486.885 985.415 493.012C986.391 499.72 989.878 505.436 994.143 510.75C997.51 514.945 1001.73 518.453 1006.98 520.853C1009.27 521.899 1011.48 522.991 1014.15 522.662C1017.26 522.277 1020.43 522.478 1023.51 521.867C1024.09 521.754 1024.67 521.685 1025.25 521.619C1030.18 521.069 1035.12 520.603 1039.71 518.699C1041.48 517.969 1043.25 517.232 1045.08 516.67C1047.32 515.984 1049.2 514.87 1050.86 513.385C1055.72 509.048 1059.62 504.202 1060.96 498.007C1061.3 496.419 1061.47 494.8 1061.83 493.213C1063.32 486.455 1062.13 479.907 1059.93 473.253Z" fill="#0B3453"/>
<path d="M1022.25 493.428C1023.53 489.416 1029.53 488.334 1032.88 490.976C1033.57 491.526 1034.03 492.174 1034.24 493.01C1034.99 496.005 1032.81 499.05 1029.45 499.473C1027.09 499.77 1024.74 499.85 1023.11 497.778C1022.09 496.472 1021.76 495.069 1022.25 493.428ZM1031.18 494.812C1031.27 494.213 1031.44 493.617 1030.87 493.101C1029.49 491.857 1026.69 492.056 1025.58 493.491C1024.84 494.446 1025.03 495.897 1025.96 496.447C1027.63 497.429 1030.27 496.678 1031.18 494.812Z" fill="#0B3453"/>
<path d="M1016.43 478.058C1017.38 478.055 1018.17 477.965 1018.98 477.814C1019.91 477.64 1020.76 477.867 1021.03 478.773C1021.3 479.702 1020.65 480.239 1019.73 480.469C1016.23 481.34 1012.92 480.592 1009.71 479.381C1008.94 479.092 1008.52 478.429 1008.9 477.666C1009.28 476.891 1009.99 476.643 1010.92 476.94C1012.67 477.495 1014.42 478.023 1016.43 478.058Z" fill="#0B3453"/>
<path d="M1044.28 479.731C1040.96 480.101 1037.8 479.865 1034.72 478.966C1033.83 478.705 1033.27 478.044 1033.64 477.147C1034.02 476.25 1034.84 476.162 1035.78 476.435C1038.17 477.13 1040.68 477.049 1043.14 477.25C1043.86 477.309 1044.52 477.445 1044.85 478.059C1045.17 478.676 1045 479.25 1044.28 479.731Z" fill="#0B3453"/>
<path d="M1150.7 466.252C1149.83 466.361 1149.11 466.274 1148.71 465.598C1148.28 464.851 1148.6 464.173 1149.14 463.57C1151.27 461.156 1153.56 458.843 1155.47 456.272C1155.91 455.678 1156.34 455.076 1156.93 454.274C1153.16 455.129 1149.71 456.05 1146.29 457.063C1145.65 457.252 1145.02 457.506 1144.32 457.444C1143.45 457.368 1142.89 456.941 1142.81 456.137C1142.74 455.396 1143.15 454.884 1143.95 454.677C1148.42 453.53 1152.89 452.388 1157.36 451.255C1158.14 451.058 1158.93 450.885 1159.73 450.763C1160.5 450.645 1161.31 450.629 1161.8 451.329C1162.31 452.051 1162.06 452.724 1161.53 453.353C1159.18 456.138 1157.21 459.161 1154.74 461.867C1154.63 461.985 1154.55 462.128 1154.33 462.45C1157.36 461.928 1160.12 461.248 1162.86 460.498C1163.34 460.367 1163.81 460.211 1164.29 460.104C1165.16 459.909 1165.83 460.189 1166.14 460.945C1166.45 461.721 1166.08 462.354 1165.28 462.634C1163.97 463.083 1162.64 463.472 1161.29 463.797C1157.8 464.637 1154.3 465.43 1150.7 466.252Z" fill="#0B3453"/>
<path d="M1190.41 408.214C1189.46 408.233 1188.91 407.906 1188.77 407.136C1188.64 406.325 1189.15 405.822 1189.88 405.49C1191.79 404.624 1193.83 404.115 1195.92 403.774C1198.41 403.367 1200.9 402.988 1203.44 403.423C1205.92 403.844 1206.76 405.195 1205.35 407.073C1203.54 409.492 1201.48 411.762 1199.54 414.103C1198.9 414.876 1198.29 415.67 1197.5 416.659C1199.92 416.654 1202 416.162 1204.12 416.003C1205.51 415.9 1206.9 415.741 1208.29 415.732C1209.26 415.728 1210.13 416.081 1210.07 417.155C1210.02 418.205 1209.2 418.423 1208.19 418.472C1204.22 418.667 1200.31 419.245 1196.39 419.782C1196.3 419.795 1196.21 419.833 1196.12 419.838C1195.07 419.894 1193.89 420.269 1193.13 419.28C1192.33 418.249 1193.19 417.404 1193.77 416.627C1196 413.623 1198.42 410.738 1200.9 407.894C1201.34 407.387 1201.74 406.851 1202.35 406.085C1198.02 405.882 1194.22 406.805 1190.41 408.214Z" fill="#0B3453"/>
<path d="M1178.29 433.281C1177.06 435.262 1175.88 437.165 1174.55 439.302C1176.56 438.988 1178.35 438.71 1180.13 438.426C1180.53 438.363 1180.93 438.282 1181.33 438.2C1182.38 437.98 1183.18 438.292 1183.41 439.242C1183.63 440.177 1182.91 440.669 1181.99 440.863C1180.85 441.102 1179.69 441.275 1178.53 441.463C1176.27 441.831 1174.03 442.335 1171.83 442.927C1171.11 443.119 1170.47 443.053 1169.96 442.551C1169.42 442.01 1169.4 441.392 1169.72 440.735C1170.05 440.062 1170.44 439.427 1170.94 438.844C1173.44 435.934 1175.03 432.539 1177.24 429.496C1176.88 429.053 1176.47 429.23 1176.09 429.281C1173.68 429.604 1171.28 429.912 1169.07 430.979C1168.24 431.38 1167.26 431.287 1166.73 430.378C1166.24 429.511 1166.67 428.812 1167.55 428.471C1171.19 427.06 1174.98 426.162 1178.99 426.581C1181.33 426.826 1181.96 428.166 1180.71 429.935C1179.93 431.03 1179.13 432.113 1178.29 433.281Z" fill="#0B3453"/>
<path d="M1001.76 251.988C1004.41 255.721 1006.64 259.594 1009.97 262.81C1012.6 265.358 1014.49 268.381 1016.47 271.333C1019.44 275.751 1022.94 279.854 1025.89 284.274C1028.3 287.891 1030.46 291.649 1032.68 295.371C1033.95 297.512 1032.8 299.26 1030.14 299.214C1023.46 299.1 1016.78 299.041 1010.1 298.758C1002.47 298.436 994.833 298.692 987.203 298.489C980.835 298.319 974.468 298.259 968.098 298.303C966.011 298.318 965.606 297.592 965.893 295.793C966.566 291.564 969.795 288.492 971.766 284.859C974.864 279.158 978.754 273.863 982.888 268.732C986.407 264.365 989.884 259.949 994.099 256.077C995.649 254.653 996.755 252.899 998.458 251.587C999.923 250.459 1000.61 250.478 1001.76 251.988ZM1022.58 284.58C1019.81 281.016 1017.1 277.424 1014.53 273.736C1012.62 270.986 1010.98 268.048 1008.54 265.625C1005.83 262.929 1003.55 259.97 1001.46 256.875C1000.93 256.096 1000.5 255.231 999.579 254.463C997.228 257.592 994.098 260 991.586 262.935C987.093 268.187 982.699 273.499 978.856 279.141C975.792 283.64 973.126 288.356 970.242 292.954C969.759 293.723 969.503 294.479 969.564 295.444C989.583 295.722 1009.55 295.741 1029.86 296.509C1027.31 292.34 1025 288.536 1022.58 284.58Z" fill="#0B3453"/>
<path d="M994.449 267.299C994.83 266.11 995.13 264.998 995.92 264.071C997.207 262.56 998.756 262.415 1000.36 263.635C1001.58 264.568 1002.04 265.808 1002.19 267.182C1002.49 269.955 1002.16 272.679 1001.41 275.374C1000.76 277.692 1000.12 280.014 999.511 282.341C999.294 283.167 998.907 283.841 997.872 283.851C996.859 283.86 996.627 283.128 996.34 282.4C995.332 279.836 994.339 277.292 994.076 274.537C993.848 272.129 993.881 269.762 994.449 267.299ZM997.3 275.566C997.319 276.016 997.416 276.44 997.769 276.868C999.467 272.423 999.736 267.231 998.217 265.941C996.687 269.042 996.876 272.192 997.3 275.566Z" fill="#0B3453"/>
<path d="M1001.35 287.467C1003.43 290.453 1002.52 293.362 999.129 294.882C997.943 295.413 996.918 295.003 995.964 294.415C994.243 293.352 993.43 291.031 994.078 289.193C994.642 287.59 996.747 286.292 998.814 286.308C999.815 286.317 1000.65 286.694 1001.35 287.467ZM997.098 291.299C997.35 291.744 997.595 292.242 998.304 291.897C999.222 291.451 999.521 290.735 999.282 289.841C999.168 289.413 998.931 289.09 998.333 289.217C997.351 289.426 996.836 289.925 997.021 290.874C997.036 290.955 997.042 291.036 997.098 291.299Z" fill="#0B3453"/>
<path d="M252.741 192.252C245.949 186.882 243.195 179.929 242.419 172.164C242.301 170.977 242.517 169.797 242.961 168.689C244.427 165.033 246.669 161.707 249.992 159.287C255.774 155.076 263.12 156.184 267.301 160.743C268.504 162.054 268.848 163.646 269.27 165.497C269.811 164.86 270.205 164.355 270.645 163.884C272.34 162.066 274.357 160.585 276.485 159.185C282.91 154.954 290.599 158.187 293.41 163.527C294.58 165.748 294.738 168.135 295.098 170.499C295.721 174.578 295.614 178.651 293.961 182.498C290.342 190.924 283.587 195.9 273.489 197.205C270.855 197.546 268.27 198.019 265.594 197.906C264.545 197.862 263.501 197.777 262.544 197.407C259.072 196.063 255.383 195.042 252.741 192.252ZM284.236 160.112C282.883 160.037 281.489 159.838 280.245 160.464C275.545 162.828 271.421 165.634 270.797 170.963C270.7 171.786 270.298 172.393 269.351 172.477C268.343 172.565 267.913 171.897 267.7 171.148C267.117 169.108 266.382 167.084 266.055 165.009C265.425 161.024 260.32 159.079 256.964 159.497C254.242 159.836 251.773 160.89 250.14 163.077C249.135 164.425 248.083 165.745 247.081 167.095C245.428 169.325 245.14 171.852 245.675 174.356C247.018 180.649 249.539 186.393 255.31 190.65C259.105 193.449 263.174 195.298 268.197 195.149C269.528 195.11 270.765 194.721 272.058 194.552C275.645 194.08 279.272 193.533 282.291 191.625C288.527 187.687 292.113 182.348 292.323 175.358C292.396 172.913 292.037 170.498 291.701 168.089C291.148 164.124 288.862 161.329 284.236 160.112Z" fill="#0B3453"/>
<path d="M238.554 201.344C236.712 199.748 235.174 198.067 234.425 195.909C234.12 195.029 234.105 194.154 234.622 193.32C234.995 192.717 235.569 192.451 236.321 192.62C237.023 192.779 237.415 193.249 237.374 193.873C237.197 196.593 239.255 198.141 241.197 199.696C242.818 200.993 244.787 201.863 246.639 202.872C247.912 203.567 248.368 204.377 247.798 205.093C246.984 206.116 245.986 205.718 245.046 205.226C242.824 204.064 240.57 202.943 238.554 201.344Z" fill="#0B3453"/>
<path d="M244.455 199.207C242.252 197.354 240.638 195.211 239.285 192.909C238.529 191.62 239.094 190.386 240.57 189.849C241.208 189.616 241.81 189.645 242.337 190.065C242.834 190.46 242.997 191.015 242.695 191.499C242.274 192.175 242.608 192.646 242.977 193.165C244.02 194.641 245.17 196.037 246.62 197.218C247.121 197.627 247.607 198.05 248.081 198.484C249.083 199.404 249.259 200.231 248.518 200.794C247.527 201.545 246.686 201.098 245.905 200.431C245.448 200.04 244.985 199.654 244.455 199.207Z" fill="#0B3453"/>
<path d="M300.384 156.062C301.047 157.003 301.401 157.962 301.704 158.939C302.134 160.321 301.869 161.159 300.839 161.352C299.429 161.615 299.07 160.687 298.803 159.743C298.227 157.706 296.925 156.179 294.878 155.168C294.133 154.8 293.423 154.452 292.468 154.599C291.59 154.733 291.033 154.191 290.887 153.413C290.73 152.575 291.139 151.974 292.037 151.729C292.692 151.55 293.372 151.624 294.033 151.819C296.639 152.59 298.784 153.923 300.384 156.062Z" fill="#0B3453"/>
<path d="M308.652 155.463C308.936 155.982 309.201 156.41 309.401 156.861C309.714 157.566 309.505 158.18 308.752 158.511C308.042 158.823 307.304 158.741 306.824 158.11C306.417 157.577 306.1 156.989 305.753 156.419C304.325 154.066 302.899 151.713 300.847 149.726C300.172 149.073 299.812 148.287 300.705 147.594C301.54 146.945 302.415 147.221 303.11 147.879C305.279 149.932 306.819 152.367 308.283 154.846C308.39 155.024 308.496 155.203 308.652 155.463Z" fill="#0B3453"/>
<path d="M83.5909 384.733C85.3805 380.923 88.0535 377.673 90.2921 374.2C90.6406 373.659 91.2486 373.465 91.9425 373.675C92.6259 373.88 92.919 374.334 92.9556 374.971C92.9881 375.531 92.7568 376.001 92.4407 376.454C90.2868 379.552 88.0702 382.615 86.3214 385.926C85.9404 386.646 85.2769 387.123 84.3465 386.756C83.4088 386.387 83.2015 385.673 83.5909 384.733Z" fill="#0B3453"/>
<path d="M39.4045 379.202C40.4145 377.803 41.5301 377.77 42.7264 378.821C44.4312 380.317 46.2554 381.706 48.0252 383.144C48.6269 383.633 49.2371 384.117 49.8106 384.631C50.4878 385.239 50.7871 385.973 50.0838 386.68C49.3407 387.426 48.4679 387.261 47.6871 386.655C45.1303 384.672 42.8289 382.424 40.0272 380.69C39.5301 380.382 39.2915 379.875 39.4045 379.202Z" fill="#0B3453"/>
<path d="M66.1047 372.22C66.4417 374.427 66.3036 376.539 66.3999 378.64C66.4334 379.377 65.9624 379.866 65.1168 379.96C64.2722 380.055 63.7269 379.687 63.503 378.966C63.3826 378.579 63.2916 378.174 63.2727 377.773C63.1597 375.389 63.0665 373.005 62.9818 370.619C62.9671 370.217 62.9734 369.803 63.0613 369.412C63.2309 368.659 63.7416 368.127 64.6364 368.176C65.5176 368.225 66.0043 368.781 66.0597 369.554C66.1225 370.403 66.0922 371.256 66.1047 372.22Z" fill="#0B3453"/>
<path d="M1084.73 528.22C1088.74 527.086 1092.28 529.404 1092.49 533.676C1092.6 536.144 1092.06 538.32 1090.41 540.305C1088.56 542.536 1087.33 545.2 1084.62 546.834C1083.08 547.764 1081.52 548.666 1079.87 549.418C1079.02 549.803 1078.46 550.259 1078.52 551.169C1078.54 551.367 1078.43 551.569 1078.42 551.771C1078.4 552.825 1078.08 553.982 1078.46 554.911C1078.91 556.021 1080.44 555.49 1081.48 555.762C1084.74 556.621 1086.73 558.568 1087.59 561.436C1088.6 564.834 1088.9 568.308 1088.43 571.81C1088.1 574.274 1086.64 576.012 1084.03 576.921C1082.67 577.391 1081.29 577.805 1079.85 577.911C1078.71 577.994 1078.54 578.48 1078.57 579.335C1078.64 581.366 1078.66 583.397 1078.66 585.429C1078.64 590.359 1075.82 593.888 1071.5 596.535C1069.2 597.938 1065.62 597.716 1063.83 596.341C1061.9 594.865 1061.03 591.381 1062.01 589.119C1062.66 587.64 1064.28 586.898 1065.83 587.373C1067.54 587.898 1068.49 589.636 1067.92 591.233C1067.53 592.344 1066.73 593.205 1065.74 593.93C1066.84 594.847 1068.71 594.97 1070.11 594.047C1073.31 591.947 1075.57 589.313 1075.55 585.53C1075.54 583.499 1075.45 581.465 1075.53 579.437C1075.56 578.477 1075.13 578.14 1074.16 578.037C1071.78 577.786 1069.46 577.267 1067.14 576.747C1064.59 576.179 1062.87 574.872 1061.75 572.707C1059.24 567.899 1059.34 563.337 1062.3 558.643C1065.17 554.105 1069.01 550.723 1074.39 548.779C1075.44 548.399 1075.67 547.738 1075.8 546.803C1076.48 541.835 1077.51 536.93 1080.12 532.436C1081.14 530.666 1082.33 528.961 1084.73 528.22ZM1066.63 573.656C1069.08 574.526 1071.68 574.86 1074.25 575.312C1074.98 575.442 1075.25 575.138 1075.22 574.52C1075.2 574.114 1075.2 573.709 1075.16 573.304C1074.79 569.136 1074.57 564.964 1074.77 560.781C1074.79 560.235 1075.16 559.685 1074.7 558.987C1073 559.839 1071.94 561.121 1071.68 562.775C1071.49 563.993 1071.19 565.361 1072.86 566.215C1073.63 566.611 1073.58 567.386 1073.04 568.033C1072.03 569.228 1069.99 569.048 1069.38 567.662C1067.07 562.474 1069.47 557.979 1074.2 556.133C1074.62 555.972 1075.15 555.861 1075.17 555.386C1075.22 554.149 1075.19 552.909 1075.19 551.647C1074.96 551.657 1074.81 551.633 1074.7 551.675C1074.41 551.781 1074.13 551.919 1073.84 552.041C1069.42 553.931 1066.59 557.154 1064.43 560.981C1063.14 563.268 1062.47 565.642 1063.23 568.148C1063.83 570.151 1064.25 572.311 1066.63 573.656ZM1077.87 560.338C1077.77 565.304 1077.81 570.263 1078.46 575.279C1079.93 575.154 1081.19 574.886 1082.43 574.52C1084.14 574.016 1085.26 573.009 1085.41 571.396C1085.73 567.988 1085.6 564.591 1084.31 561.326C1083.73 559.865 1082.49 558.938 1080.83 558.489C1078.54 557.866 1078.21 558.053 1077.87 560.338ZM1086 530.79C1084.62 531.067 1083.94 532.055 1083.29 533.021C1080.88 536.594 1080.06 540.629 1079.21 544.647C1079.09 545.233 1078.7 545.863 1079.15 546.559C1079.54 546.385 1079.85 546.238 1080.17 546.108C1083.65 544.68 1085.52 541.918 1087.56 539.216C1088.97 537.358 1089.56 535.488 1089.35 533.303C1089.18 531.586 1088.12 530.661 1086 530.79Z" fill="#0B3453"/>
<path d="M111.397 194.843C110.71 194.499 110.168 194.131 109.794 193.607C109.217 192.798 109.438 191.823 110.275 191.36C111.251 190.819 112.528 190.895 112.911 191.712C113.394 192.744 114.327 192.995 115.307 193.255C117.615 193.867 119.821 194.672 121.882 195.799C123.081 196.455 123.305 197.338 122.287 198.161C118.858 200.934 116.676 204.49 114.47 208.037C114.338 208.249 114.23 208.478 114.067 208.668C113.63 209.177 113.031 209.327 112.373 209.122C111.691 208.911 111.402 208.411 111.43 207.785C111.459 207.117 111.819 206.544 112.173 205.976C113.59 203.708 115.101 201.494 116.827 199.403C117.029 199.157 117.374 198.96 117.316 198.473C115.023 198.395 112.754 198.73 110.501 199.002C100.717 200.184 91.1523 202.24 81.9079 205.355C76.3245 207.235 70.8697 209.421 65.8085 212.31C65.0613 212.737 64.2596 212.91 63.573 212.292C62.7787 211.576 63.055 210.8 63.6693 210.101C66.7274 206.617 69.2214 202.793 71.8682 199.063C71.9875 198.895 72.0911 198.719 72.2889 198.414C71.0068 198.408 70.0199 198.918 69.034 199.288C59.5626 202.84 50.6384 207.251 42.607 213.04C42.0806 213.419 41.6128 213.866 41.1167 214.279C40.3862 214.888 39.5699 215.04 38.8299 214.384C38.0963 213.731 38.225 212.94 38.8854 212.312C39.5646 211.666 40.3286 211.08 41.1157 210.539C51.4003 203.48 62.5244 197.854 75.0184 194.581C75.1921 194.536 75.3616 194.474 75.5375 194.44C76.4741 194.257 77.4694 193.995 78.0848 194.947C78.7002 195.899 77.955 196.508 77.3083 197.169C74.494 200.044 72.6029 203.468 70.3276 206.728C83.999 200.752 98.4658 197.526 113.691 195.84C112.809 195.458 112.147 195.172 111.397 194.843Z" fill="#0B3453"/>
<path d="M91.3837 495.985C86.8373 498.03 82.2596 499.879 77.3376 500.565C73.9279 501.04 70.3821 501.654 66.8949 500.598C66.1602 500.377 65.4244 500.17 64.8059 499.758C62.5192 498.238 60.2397 496.708 57.9875 495.148C57.4213 494.755 56.8698 494.292 56.4721 493.765C52.3538 488.303 48.6887 482.622 47.1146 476.097C45.4276 469.105 45.774 462.21 48.6301 455.437C50.8718 450.119 54.9932 446.481 60.56 444.031C66.7264 441.317 73.2643 439.923 80.1225 439.607C84.5077 439.405 88.4135 440.478 91.9781 442.716C95.5291 444.946 98.5862 447.651 101.215 450.712C104.392 454.413 105.862 458.731 106.272 463.337C106.592 466.926 107.437 470.512 107.042 474.11C106.474 479.308 105.171 484.422 101.478 488.604C98.7871 491.652 95.4234 494.172 91.3837 495.985ZM104.014 472.614C104.1 469.851 103.526 467.127 103.338 464.379C103.068 460.418 102.08 456.568 99.4768 453.263C96.583 449.589 93.0624 446.456 88.7138 444.137C86.4061 442.905 83.93 442.33 81.2225 442.371C74.1382 442.476 67.4276 443.917 61.1659 446.867C57.6411 448.528 54.6374 450.742 52.7431 454.028C49.6076 459.469 48.7965 465.264 49.3407 471.261C50.0492 479.079 54.1141 485.686 58.8677 492.026C59.2758 492.57 59.842 492.978 60.4292 493.364C62.1058 494.466 63.8347 495.513 65.4255 496.708C66.5882 497.58 67.8284 498.132 69.3219 498.215C72.0629 498.37 74.7651 497.799 77.5019 497.844C77.6317 497.846 77.7635 497.786 77.8944 497.752C82.4103 496.553 86.8792 495.194 90.9535 493.065C94.6448 491.135 98.1686 488.776 100.223 485.391C102.552 481.553 104.044 477.347 104.014 472.614Z" fill="#0B3453"/>
<path d="M71.2779 476.573C70.6531 476.037 70.0513 475.595 69.572 475.064C68.9985 474.429 68.9263 473.687 69.6421 473.097C70.358 472.508 71.3376 472.557 71.8169 473.205C73.5249 475.517 76.0953 475.008 78.5422 475.11C81.3051 475.226 83.1283 473.947 84.6636 472.117C85.2057 471.471 85.8828 471.071 86.7484 471.573C87.616 472.076 87.7395 472.857 87.2057 473.596C85.5584 475.869 83.2905 477.453 80.2544 477.814C78.3423 478.04 76.3779 477.966 74.4386 477.771C73.2779 477.654 72.2565 477.285 71.2779 476.573Z" fill="#0B3453"/>
<path d="M69.5302 463.571C70.9022 465.665 69.7813 467.126 67.8713 467.599C65.9331 468.08 64.4271 466.986 64.5977 465.186C64.7149 463.946 65.4559 463.097 66.7672 462.666C67.9132 462.289 68.7693 462.693 69.5302 463.571Z" fill="#0B3453"/>
<path d="M83.099 466.24C81.0278 466.322 79.8755 464.307 80.4721 462.87C80.9137 461.806 82.0524 461.126 83.3177 461.172C84.5872 461.219 85.3072 461.878 85.616 462.911C85.9645 464.078 85.4255 465.317 84.3475 465.879C84.0064 466.059 83.5919 466.122 83.099 466.24Z" fill="#0B3453"/>
<path d="M1170.83 265.575C1171.7 267.895 1172.55 270.12 1173.38 272.353C1173.53 272.771 1173.65 273.219 1173.66 273.656C1173.69 274.338 1173.3 274.821 1172.54 274.999C1171.83 275.166 1171.29 274.897 1170.94 274.362C1170.71 274.018 1170.53 273.631 1170.42 273.244C1169.5 270.259 1167.51 267.959 1164.83 266.093C1160.65 263.175 1156.18 260.634 1151.72 258.084C1148.21 256.078 1144.72 254.045 1141.4 251.782C1140.66 251.277 1140.2 251.335 1139.56 251.892C1134.71 256.15 1129.45 260.004 1124.3 263.962C1123.77 264.373 1123.4 264.847 1123.17 265.439C1122.86 266.202 1122.49 266.944 1122.14 267.69C1121.89 268.202 1121.49 268.606 1120.85 268.675C1119.39 268.835 1119.09 267.571 1118.36 266.893C1117.79 266.367 1117.96 265.589 1118.61 265.159C1120.45 263.932 1121.07 262.161 1121.64 260.293C1123.34 254.773 1125.37 249.35 1127.9 244.09C1128.34 243.188 1128.22 242.701 1127.27 242.112C1120.09 237.655 1113.02 233.064 1105.6 228.936C1104.79 228.486 1103.96 228.081 1103.16 227.622C1102.53 227.258 1102 226.774 1102.12 226.035C1102.24 225.245 1102.9 224.933 1103.71 224.738C1108.05 223.699 1112.5 223.311 1116.96 223.078C1123 222.764 1129.04 222.531 1135.05 221.842C1136.14 221.717 1136.54 221.176 1136.83 220.313C1139.23 213.252 1141.25 206.101 1143.31 198.956C1143.6 197.936 1143.91 196.921 1144.2 195.9C1144.48 194.938 1145.07 194.675 1146.24 194.596C1148.33 194.455 1149.02 195.412 1149.68 196.92C1151.56 201.211 1152.5 205.721 1153.77 210.154C1154.58 212.98 1155.33 215.818 1156.08 218.657C1156.26 219.331 1156.57 219.547 1157.39 219.482C1164.67 218.892 1171.96 218.311 1179.25 217.811C1182.18 217.611 1185.1 217.409 1188.01 217.033C1188.96 216.911 1189.88 216.955 1190.3 217.88C1190.72 218.779 1189.98 219.248 1189.32 219.801C1181.37 226.548 1172.09 231.591 1162.76 236.582C1161.87 237.063 1161.64 237.501 1161.94 238.423C1164.58 246.596 1166.83 254.874 1169.78 262.969C1170.09 263.815 1170.46 264.645 1170.83 265.575ZM1149.07 223.016C1146.11 223.331 1143.16 223.659 1140.2 223.954C1139.28 224.045 1138.63 224.252 1138.3 225.178C1136.44 230.393 1134.53 235.591 1132.58 240.78C1132.28 241.582 1132.47 242.029 1133.2 242.522C1135.25 243.917 1137.29 245.338 1139.25 246.836C1140.08 247.471 1140.63 247.43 1141.44 246.827C1146.46 243.097 1151.59 239.504 1157.17 236.46C1157.83 236.1 1157.94 235.7 1157.73 235.049C1156.51 231.273 1155.31 227.488 1154.39 223.64C1154.21 222.925 1153.8 222.613 1152.96 222.702C1151.75 222.83 1150.53 222.898 1149.07 223.016ZM1145.24 247.602C1144.59 248.202 1143.69 248.573 1143.13 249.47C1150.71 254.639 1159.12 258.639 1166.71 263.884C1164.09 255.492 1161.5 247.222 1158.87 238.816C1153.95 241.413 1149.63 244.403 1145.24 247.602ZM1121.02 234.814C1123.9 236.455 1126.49 238.481 1129.59 240.107C1131.66 234.986 1133.47 229.96 1135.32 224.531C1126.07 225.821 1117 225.391 1107.76 226.755C1112.35 229.545 1116.6 232.132 1121.02 234.814ZM1160.91 234.207C1162.09 233.881 1163.06 233.201 1164.09 232.632C1170.4 229.149 1176.84 225.837 1182.46 221.443C1182.84 221.144 1183.34 220.918 1183.5 220.353C1183.23 220.337 1183.05 220.308 1182.87 220.321C1178.42 220.637 1173.97 220.943 1169.53 221.283C1165.8 221.569 1162.08 221.905 1158.35 222.198C1157.66 222.253 1157.15 222.42 1157.36 223.144C1158.41 226.827 1159.29 230.554 1160.91 234.207ZM1141.87 214.55C1141.19 216.701 1140.51 218.853 1139.77 221.219C1144.02 220.783 1147.95 220.353 1151.89 219.994C1153.03 219.889 1153.16 219.487 1152.91 218.563C1151.65 214.047 1150.48 209.51 1149.24 204.99C1148.61 202.688 1147.97 200.38 1146.8 197.923C1145.12 203.581 1143.53 208.97 1141.87 214.55ZM1135.35 251.632C1136.14 250.884 1137.13 250.295 1137.83 249.336C1135.58 247.767 1133.56 246.051 1131.02 244.604C1128.68 249.406 1126.75 254.18 1125.4 259.177C1128.93 256.929 1132.1 254.37 1135.35 251.632Z" fill="#0B3453"/>
<path d="M101.322 609.012C100.867 610.597 100.419 612.082 100.028 613.58C99.7887 614.499 99.2717 615.103 98.1623 614.919C97.1095 614.744 96.9525 614.039 97.0216 613.157C97.2612 610.102 97.0425 607.108 95.8013 604.19C94.3486 600.777 91.1681 598.874 88.1247 596.865C86.5674 595.837 84.8081 595.071 82.9483 594.501C81.436 594.038 81.2392 592.793 82.493 591.894C83.0184 591.518 83.6118 591.201 84.2168 590.934C87.4025 589.532 89.8253 587.416 91.5595 584.653C92.7338 582.785 94.0797 580.981 94.5548 578.824C94.7746 577.826 94.8803 576.85 94.3591 575.854C93.8337 574.848 94.2796 573.843 95.2393 573.48C96.2178 573.109 97.6861 573.725 98.1854 574.595C101.519 580.408 105.78 585.269 113.508 586.553C114.299 586.685 115.082 586.937 115.818 587.236C117.288 587.834 117.551 588.905 116.415 589.946C115.15 591.102 113.81 592.198 112.429 593.245C106.904 597.429 103.275 602.683 101.322 609.012ZM103.755 585.74C101.107 584.198 99.7039 581.672 97.7249 579.416C95.4747 584.873 92.5841 589.744 86.9002 592.875C92.4166 595.946 97.5354 599.001 99.5208 604.875C101.948 598.35 106.982 593.693 112.765 589.257C109.412 588.423 106.534 587.39 103.755 585.74Z" fill="#0B3453"/>
<path d="M66.7274 577.407C65.7583 573.656 63.4914 570.612 60.9545 567.76C59.4402 566.056 57.0435 565.687 54.7159 565.462C54.089 565.402 53.4496 565.441 52.8206 565.389C52.088 565.33 51.3334 565.215 51.055 564.48C50.7766 563.743 51.0854 563.129 51.7311 562.64C52.7337 561.881 53.7928 561.174 54.7327 560.359C59.2717 556.419 62.5977 551.809 64.1581 546.263C64.4815 545.114 64.3381 543.92 64.3444 542.745C64.3465 542.254 64.3507 541.764 64.6134 541.319C65.1408 540.423 66.6521 540.225 67.0268 541.118C67.5699 542.414 68.8865 542.932 69.7384 543.886C70.9818 545.278 72.2345 546.667 73.4433 548.086C75.1251 550.06 77.0875 551.799 79.0226 553.564C80.6657 555.062 82.6657 555.932 84.9472 556.312C85.9226 556.474 86.8698 556.685 86.965 557.773C87.0582 558.853 86.8373 559.79 85.4318 560.151C84.5077 560.39 83.7908 560.996 83.0362 561.509C76.9671 565.639 72.8457 570.984 70.6626 577.538C70.5087 578 70.2921 578.457 70.0241 578.875C69.5898 579.553 68.965 580.002 68.021 579.823C67.1544 579.659 66.9755 579.001 66.8206 578.357C66.7536 578.083 66.7599 577.793 66.7274 577.407ZM77.6934 556.244C73.8818 553.179 70.717 549.596 67.5145 545.811C65.8609 552.589 61.8316 557.94 56.4668 562.935C63.7562 563.736 65.6987 569.211 68.9357 573.9C71.3931 567.286 76.2879 562.662 82.2125 558.544C80.514 557.959 79.0707 557.318 77.6934 556.244Z" fill="#0B3453"/>
<path d="M1142.4 547.224C1146.97 544.544 1152.24 545.371 1155.58 549.283C1156.96 550.89 1158.21 552.577 1159.57 554.28C1159.75 554.161 1159.91 554.093 1160.01 553.978C1163.13 550.313 1167.41 548.371 1172.34 547.741C1178.71 546.922 1183.21 549.931 1184.45 555.67C1185.39 560.06 1184.42 564.153 1182.37 568.194C1179.45 573.963 1175.26 578.797 1170.01 582.963C1167.63 584.843 1165.41 586.868 1163.13 588.846C1162.78 589.15 1162.53 589.549 1162.23 589.895C1161.45 590.772 1160.19 590.932 1158.93 590.239C1151.93 586.386 1145.92 581.65 1141.75 575.165C1139.18 571.157 1137.09 567.008 1136.19 562.436C1134.98 556.333 1136.83 551.203 1142.4 547.224ZM1150.92 549.252C1147.83 547.794 1145.45 548.241 1142.87 550.519C1139.02 553.915 1138.13 558.07 1139.3 562.527C1142.09 573.059 1148.74 581.166 1158.93 586.957C1159.81 587.457 1160.34 587.377 1161.02 586.791C1163.54 584.633 1166.07 582.486 1168.64 580.371C1173.33 576.508 1177.11 572.083 1179.7 566.817C1181.31 563.542 1182.15 560.235 1181.56 556.654C1181.02 553.374 1178.81 550.076 1173.9 550.425C1168.19 550.832 1163.59 552.981 1161.11 557.927C1160.79 558.567 1160.38 559.09 1159.56 559.108C1158.79 559.124 1158.3 558.652 1158.06 558.045C1157.07 555.504 1155.11 553.497 1153.45 551.327C1152.84 550.519 1152.05 549.841 1150.92 549.252Z" fill="#0B3453"/>
<path d="M1132.53 593.457C1131.46 592.407 1130.46 591.413 1129.67 590.27C1129.21 589.614 1128.98 588.935 1129.47 588.214C1129.88 587.62 1130.52 587.461 1131.24 587.574C1132.12 587.713 1132.52 588.254 1132.62 589.02C1132.69 589.535 1133.13 589.867 1133.47 590.245C1135.94 593.013 1139.04 595.074 1142.52 596.717C1143.08 596.98 1143.63 597.258 1144.17 597.551C1145.03 598.016 1145.38 598.707 1144.87 599.508C1144.38 600.278 1143.54 600.284 1142.73 599.928C1140.09 598.765 1137.52 597.483 1135.27 595.765C1134.34 595.058 1133.48 594.271 1132.53 593.457Z" fill="#0B3453"/>
<path d="M1192.78 534.5C1193.62 533.911 1194.28 534.081 1195.05 534.557C1198.94 536.98 1200.32 540.689 1201.46 544.518C1201.68 545.258 1201.4 545.919 1200.53 546.178C1199.67 546.431 1198.99 546.102 1198.66 545.373C1198.26 544.475 1197.94 543.544 1197.61 542.619C1196.79 540.294 1195.61 538.213 1193.18 536.868C1192.18 536.312 1192.03 535.473 1192.78 534.5Z" fill="#0B3453"/>
<path d="M1184.33 539.112C1185.3 538.346 1186.36 538.399 1187.36 538.662C1190.89 539.594 1193.09 541.747 1194.1 544.893C1194.36 545.715 1194.11 546.466 1193.1 546.75C1192.04 547.046 1191.45 546.463 1191.19 545.654C1190.76 544.269 1189.88 543.186 1188.67 542.286C1187.84 541.673 1186.94 541.326 1185.83 541.322C1184.19 541.315 1183.74 540.659 1184.33 539.112Z" fill="#0B3453"/>
<path d="M1135.49 587.608C1135.04 587.143 1134.67 586.738 1134.53 586.204C1134.3 585.353 1134.7 584.741 1135.55 584.454C1136.4 584.165 1137.46 584.156 1137.78 585.021C1138.58 587.238 1140.69 588.329 1142.43 589.745C1142.83 590.07 1143.32 590.302 1143.71 590.634C1144.35 591.175 1144.74 591.842 1144.15 592.573C1143.52 593.354 1142.65 593.245 1141.86 592.788C1139.46 591.387 1137.42 589.617 1135.49 587.608Z" fill="#0B3453"/>
<path d="M1038.48 150.088C1036.05 150.776 1033.73 151.427 1031.65 152.493C1031.52 153.07 1031.97 153.317 1032.19 153.643C1034.34 156.77 1034.14 160.154 1031.62 162.926C1029.8 164.939 1027.3 165.189 1025.08 163.533C1024.43 163.044 1023.83 162.473 1023.29 161.875C1021.92 160.332 1021.7 158.677 1022.75 156.888C1023.54 155.559 1024.54 154.365 1025.65 153.023C1022.95 152.694 1020.47 153.027 1018.03 153.53C1013.67 154.428 1009.64 156.057 1005.94 158.301C1004.73 159.035 1003.52 159.796 1003.25 161.323C1003.08 162.271 1001.47 162.75 1000.44 162.335C999.441 161.934 999.201 160.988 999.924 159.962C1001 158.436 1002.32 157.09 1004.01 156.106C1010.39 152.393 1017.24 149.988 1024.99 150.118C1025.3 150.123 1025.67 150.045 1025.93 150.153C1028.09 151.028 1029.86 150.129 1031.79 149.351C1036.86 147.3 1042.18 146.063 1047.8 146.272C1050.01 146.355 1052.2 146.644 1054.37 147.059C1054.93 147.166 1055.41 147.18 1055.93 146.94C1060.64 144.766 1065.76 144.08 1070.93 143.516C1073.18 143.27 1075.44 143.337 1077.92 143.251C1076.81 142.395 1075.59 142.092 1074.53 141.554C1073.31 140.932 1072.89 140.127 1073.44 139.326C1073.93 138.607 1075.36 138.343 1076.24 138.955C1078.12 140.277 1080.4 140.882 1082.5 141.804C1083.88 142.41 1085.28 142.978 1086.51 143.828C1087.18 144.298 1087.74 144.838 1087.43 145.68C1087.14 146.46 1086.43 146.677 1085.59 146.619C1084.91 146.573 1084.48 146.942 1084.1 147.342C1081.88 149.635 1079.38 151.716 1077.67 154.382C1077.3 154.955 1076.69 155.257 1075.94 155.026C1075.22 154.805 1074.9 154.294 1074.89 153.611C1074.88 152.823 1075.31 152.214 1075.84 151.648C1077.5 149.881 1079.17 148.121 1081 146.179C1073.4 145.779 1066.15 146.376 1059.16 148.607C1059.09 149.293 1059.55 149.571 1059.8 149.937C1061.44 152.387 1061.33 155.04 1059.48 157.24C1058.21 158.761 1056.73 159.218 1054.73 158.711C1052.32 158.099 1050.96 156.856 1050.74 155.049C1050.49 153.096 1050.67 152.444 1052.2 149.604C1047.57 148.591 1043.07 149.002 1038.48 150.088ZM1026.67 156.408C1026.27 156.997 1025.82 157.566 1025.48 158.179C1024.82 159.347 1026.55 161.787 1028.01 161.797C1028.35 161.799 1028.63 161.663 1028.86 161.471C1031.15 159.612 1031.24 156.305 1028.68 154.426C1027.84 154.854 1027.4 155.637 1026.67 156.408ZM1053.78 154.517C1053.89 155.665 1054.92 155.948 1055.87 156.092C1056.87 156.243 1057.2 155.4 1057.52 154.748C1058.16 153.435 1057.84 152.212 1056.91 151.104C1056.43 150.533 1055.9 150.352 1055.25 150.981C1054.25 151.933 1053.57 152.976 1053.78 154.517Z" fill="#0B3453"/>
<path d="M908.947 166.528C908.051 168.119 907.364 169.693 905.383 170.441C903.996 170.965 902.994 171.074 901.923 170.098C896.968 165.575 892.133 160.976 889.717 154.8C888.387 151.395 887.64 147.928 887.95 144.317C888.167 141.772 890.438 139.558 892.895 139.374C894.926 139.221 896.219 140.235 897.22 141.626C897.93 142.611 898.552 143.652 899.144 144.701C899.674 145.646 900.136 145.708 901.052 144.973C903.989 142.615 907.277 140.812 911.279 140.305C914.243 139.93 916.469 141.184 917.409 143.792C918.88 147.873 917.818 151.706 915.968 155.463C914.059 159.338 911.435 162.846 908.947 166.528Z" fill="#0B3453"/>
<path d="M863.718 176.009C865.529 175.816 866.799 176.434 867.773 177.662C869.445 179.772 871.082 181.9 872.493 184.249C873.674 183.65 874.469 182.807 875.332 182.071C877.967 179.828 881.139 178.863 884.679 178.701C887.522 178.572 889.06 179.598 889.78 182.115C890.797 185.67 890.709 189.215 889.149 192.613C886.376 198.658 883.193 204.533 879.668 210.257C879.472 210.574 879.157 210.858 879.19 211.246C879.315 212.728 878.023 212.953 876.92 213.205C875.895 213.44 875.441 212.724 875.022 211.988C874.547 211.152 873.807 210.465 873.02 209.857C866.344 204.692 862.462 197.871 859.166 190.754C857.775 187.75 856.991 184.513 857.864 181.238C858.583 178.541 860.338 176.561 863.718 176.009ZM861.608 188.906C865.11 196.531 869.236 203.777 876.678 209.01C877.097 208.81 877.277 208.471 877.464 208.153C880.75 202.554 883.957 196.916 886.517 191.013C887.586 188.546 887.598 185.938 886.969 183.349C886.53 181.545 886.013 181.323 883.921 181.521C879.256 181.964 876.283 184.532 873.871 187.829C873.456 188.396 873.064 188.951 872.232 188.926C871.343 188.899 870.863 188.339 870.61 187.648C869.546 184.752 867.644 182.284 865.721 179.824C864.725 178.548 863.633 178.412 862.368 179.498C861.248 180.46 860.651 181.664 860.653 183.083C860.656 185 860.969 186.876 861.608 188.906Z" fill="#0B3453"/>
<path d="M156.239 319.327C152.779 324.286 149.273 329.127 146.193 334.202C145.814 334.826 145.344 335.32 145.48 336.119C145.573 336.665 145.029 337.024 144.477 337.194C143.889 337.374 143.269 337.372 142.797 336.941C142.465 336.637 142.204 336.27 141.923 335.924C137.827 330.896 134.65 325.384 131.44 319.888C129.196 316.046 126.443 312.449 124.494 308.467C120.695 300.7 117.521 292.739 116.225 284.295C115.416 279.025 115.204 273.729 117.135 268.55C118.686 264.386 123.334 261.132 127.8 261.127C129.236 261.125 130.47 261.569 131.536 262.367C134.208 264.367 136.127 266.779 136.926 269.91C138.748 277.038 141.604 283.894 143.916 291.116C145.552 284.371 148.071 278.126 151.534 272.192C153.504 268.818 156.022 265.83 159.38 263.469C164.443 259.909 172.261 261.531 175.032 266.774C176.979 270.456 177.509 274.403 177.012 278.424C176.077 285.98 173.043 292.89 169.098 299.578C165.13 306.306 160.758 312.807 156.239 319.327ZM160.357 265.874C157.3 268.318 154.987 271.248 153.218 274.556C150.898 278.896 148.923 283.336 147.533 288.002C146.325 292.058 145.51 296.098 146.223 300.306C146.45 301.645 146.053 302.3 145.138 302.34C143.815 302.398 143.647 301.438 143.467 300.598C142.411 295.67 141.149 290.793 139.407 286.016C137.544 280.91 135.662 275.802 134.338 270.555C133.718 268.095 132.233 266.182 130.215 264.52C129.257 263.732 128.138 263.328 126.915 263.666C123.786 264.53 120.92 265.744 119.889 268.907C119.654 269.629 119.366 270.339 119.174 271.069C117.836 276.164 118.345 281.266 119.312 286.328C120.554 292.819 123.067 298.981 125.748 305.085C127.722 309.579 130.675 313.608 133.261 317.812C136.311 322.768 138.956 327.934 142.674 332.545C142.916 332.846 143.031 333.277 143.56 333.357C145.511 330.381 147.392 327.385 149.409 324.464C154.963 316.419 160.73 308.5 165.709 300.134C169.729 293.38 173.209 286.506 174.238 278.826C174.74 275.074 174.531 271.325 172.602 267.896C171.066 265.166 168.197 264.039 164.925 263.871C163.152 263.78 161.795 264.815 160.357 265.874Z" fill="#0B3453"/>
</svg>
