<svg width="60" height="60" viewBox="0 0 60 60" fill="none" xmlns="http://www.w3.org/2000/svg">
<g clip-path="url(#clip0_2027_25)">
<path d="M30 0C13.4325 0 0 13.4306 0 30C0 46.5694 13.4306 60 30 60C46.5694 60 60 46.5694 60 30C60 13.4306 46.5694 0 30 0ZM30 56.31C15.525 56.31 3.75 44.475 3.75 30C3.75 15.525 15.525 3.75 30 3.75C44.475 3.75 56.25 15.525 56.25 30C56.25 44.475 44.475 56.31 30 56.31ZM41.9737 19.0237L24.3713 36.735L16.4438 28.8094C15.7125 28.0781 14.5238 28.0781 13.7906 28.8094C13.0575 29.5406 13.0575 30.7275 13.7906 31.4606L23.0719 40.7419C23.8031 41.4731 24.9919 41.4731 25.725 40.7419C25.8094 40.6575 25.8825 40.5656 25.9481 40.47L44.6269 21.675C45.3581 20.9438 45.3581 19.755 44.6269 19.0219C43.8956 18.2888 42.7069 18.2925 41.9737 19.0237Z" fill="#0B3453"/>
</g>
<defs>
<clipPath id="clip0_2027_25">
<rect width="60" height="60" fill="white"/>
</clipPath>
</defs>
</svg>
