<svg width="42" height="42" viewBox="0 0 42 42" fill="none" xmlns="http://www.w3.org/2000/svg">
<path d="M21 41C32.0456 41 41 32.0456 41 21C41 9.9543 32.0456 1 21 1C9.9543 1 1 9.9543 1 21C1 32.0456 9.9543 41 21 41Z" stroke="#fff" stroke-width="2" stroke-linecap="round" stroke-linejoin="round"/>
<path d="M25.6666 35V31.274C25.7166 30.655 25.6308 30.0326 25.4146 29.4484C25.1986 28.8642 24.8572 28.3314 24.4134 27.8856C28.6 27.4312 33 25.8862 33 18.7978C32.9996 16.9851 32.2836 15.242 31 13.9292C31.6078 12.3434 31.5648 10.5906 30.88 9.03478C30.88 9.03478 29.3066 8.5804 25.6666 10.9562C22.6106 10.1498 19.3894 10.1498 16.3333 10.9562C12.6933 8.5804 11.12 9.03478 11.12 9.03478C10.4351 10.5906 10.3922 12.3434 11 13.9292C9.70682 15.2518 8.99002 17.0106 8.99998 18.8366C8.99998 25.8732 13.4 27.4182 17.5866 27.9244C17.148 28.3658 16.8097 28.8922 16.5937 29.4694C16.3778 30.0464 16.2891 30.6612 16.3333 31.274V35" stroke="#fff" stroke-width="2" stroke-linecap="round" stroke-linejoin="round"/>
<path d="M16.3333 32.4036C12.3333 33.667 9 32.4036 7 28.5088" stroke="#fff" stroke-width="2" stroke-linecap="round" stroke-linejoin="round"/>
</svg>
