<svg width="38" height="38" viewBox="0 0 38 38" fill="none" xmlns="http://www.w3.org/2000/svg">
<g clip-path="url(#clip0_2059_27)">
<path d="M1.39001 24.6454H2.80883V37.2656H13.3856V24.6454H14.8045V9.49884H1.39001V24.6454ZM3.67867 11.7875H6.95283V18.9237H9.24149V11.7875H12.5157V22.3567H11.0968V34.977H5.09749V22.3568H3.67867V11.7875Z" fill="#C4C4C4"/>
<path d="M8.09712 7.96994C10.2212 7.96994 11.9492 6.24185 11.9492 4.11782C11.9492 1.99379 10.2212 0.265625 8.09712 0.265625C5.97301 0.265625 4.245 1.99372 4.245 4.11774C4.245 6.24177 5.97301 7.96994 8.09712 7.96994ZM8.09712 2.55428C8.95925 2.55428 9.66058 3.25568 9.66058 4.11774C9.66058 4.97981 8.95925 5.6812 8.09712 5.6812C7.23498 5.6812 6.53366 4.97981 6.53366 4.11774C6.53366 3.25568 7.23498 2.55428 8.09712 2.55428Z" fill="#C4C4C4"/>
<path d="M32.1493 7.87946C34.2484 7.87946 35.9562 6.17167 35.9562 4.07258C35.9562 1.97342 34.2484 0.265625 32.1493 0.265625C30.0501 0.265625 28.3424 1.97342 28.3424 4.07258C28.3424 6.17167 30.0502 7.87946 32.1493 7.87946ZM32.1493 2.55429C32.9865 2.55429 33.6675 3.23539 33.6675 4.07258C33.6675 4.90977 32.9864 5.5908 32.1493 5.5908C31.3122 5.5908 30.6311 4.9097 30.6311 4.07258C30.6311 3.23539 31.3122 2.55429 32.1493 2.55429Z" fill="#C4C4C4"/>
<path d="M32.1493 29.6518C30.0501 29.6518 28.3424 31.3596 28.3424 33.4587C28.3424 35.5578 30.0502 37.2656 32.1493 37.2656C34.2484 37.2656 35.9562 35.5578 35.9562 33.4587C35.9562 31.3596 34.2484 29.6518 32.1493 29.6518ZM32.1493 34.977C31.3121 34.977 30.6311 34.2959 30.6311 33.4587C30.6311 32.6215 31.3122 31.9405 32.1493 31.9405C32.9864 31.9405 33.6675 32.6216 33.6675 33.4587C33.6676 34.2959 32.9865 34.977 32.1493 34.977Z" fill="#C4C4C4"/>
<path d="M32.1493 19.8564C30.0501 19.8564 28.3424 21.5642 28.3424 23.6633C28.3424 25.7624 30.0502 27.4702 32.1493 27.4702C34.2484 27.4702 35.9562 25.7624 35.9562 23.6633C35.9562 21.5642 34.2484 19.8564 32.1493 19.8564ZM32.1493 25.1816C31.3121 25.1816 30.6311 24.5005 30.6311 23.6633C30.6311 22.8261 31.3122 22.145 32.1493 22.145C32.9864 22.145 33.6675 22.8261 33.6675 23.6633C33.6676 24.5005 32.9865 25.1816 32.1493 25.1816Z" fill="#C4C4C4"/>
<path d="M32.1493 10.061C30.0501 10.061 28.3424 11.7688 28.3424 13.868C28.3424 15.9672 30.0502 17.6749 32.1493 17.6749C34.2484 17.6749 35.9562 15.9671 35.9562 13.868C35.9562 11.7688 34.2484 10.061 32.1493 10.061ZM32.1493 15.3862C31.3121 15.3862 30.6311 14.7051 30.6311 13.868C30.6311 13.0308 31.3122 12.3497 32.1493 12.3497C32.9864 12.3497 33.6675 13.0308 33.6675 13.868C33.6676 14.7051 32.9865 15.3862 32.1493 15.3862Z" fill="#C4C4C4"/>
<path d="M20.5053 17.6213H17.4744V19.9099H20.5053V34.603H25.8248V32.3143H22.794V24.8076H25.8248V22.5189H22.794V15.0123H25.8248V12.7236H22.794V5.21688H25.8248V2.92822H20.5053V17.6213Z" fill="#C4C4C4"/>
</g>
<defs>
<clipPath id="clip0_2059_27">
<rect width="37" height="37" fill="white" transform="translate(0.173096 0.265625)"/>
</clipPath>
</defs>
</svg>
