<svg width="40" height="40" viewBox="0 0 40 40" fill="none" xmlns="http://www.w3.org/2000/svg">
<path d="M20.4972 14.869C17.5158 14.869 15.1098 17.1606 15.1098 20C15.1098 22.8394 17.5158 25.131 20.4972 25.131C23.4785 25.131 25.8846 22.8394 25.8846 20C25.8846 17.1606 23.4785 14.869 20.4972 14.869ZM20.4972 23.3348C18.5692 23.3348 16.9958 21.8362 16.9958 20C16.9958 18.1638 18.5692 16.6652 20.4972 16.6652C22.4252 16.6652 23.9986 18.1638 23.9986 20C23.9986 21.8362 22.4252 23.3348 20.4972 23.3348ZM26.1052 13.4631C25.4092 13.4631 24.847 13.9984 24.847 14.6614C24.847 15.3243 25.4092 15.8597 26.1052 15.8597C26.8013 15.8597 27.3634 15.3268 27.3634 14.6614C27.3636 14.504 27.3312 14.3481 27.2681 14.2026C27.2049 14.0571 27.1123 13.9249 26.9954 13.8136C26.8785 13.7023 26.7397 13.614 26.587 13.5539C26.4342 13.4937 26.2705 13.4629 26.1052 13.4631ZM30.9988 20C30.9988 18.6191 31.012 17.2506 30.9305 15.8722C30.8491 14.2711 30.4656 12.8502 29.2363 11.6794C28.0044 10.5061 26.515 10.1433 24.8339 10.0658C23.3839 9.98824 21.9471 10.0007 20.4998 10.0007C19.0499 10.0007 17.613 9.98824 16.1657 10.0658C14.4846 10.1433 12.9926 10.5086 11.7633 11.6794C10.5314 12.8527 10.1505 14.2711 10.0691 15.8722C9.98765 17.2531 10.0008 18.6216 10.0008 20C10.0008 21.3784 9.98765 22.7494 10.0691 24.1278C10.1505 25.7289 10.534 27.1498 11.7633 28.3206C12.9952 29.4939 14.4846 29.8567 16.1657 29.9342C17.6157 30.0118 19.0525 29.9993 20.4998 29.9993C21.9498 29.9993 23.3866 30.0118 24.8339 29.9342C26.515 29.8567 28.007 29.4914 29.2363 28.3206C30.4682 27.1473 30.8491 25.7289 30.9305 24.1278C31.0146 22.7494 30.9988 21.3809 30.9988 20ZM28.6873 25.899C28.4956 26.3543 28.2644 26.6945 27.894 27.0448C27.5237 27.3975 27.1691 27.6176 26.691 27.8003C25.3093 28.3231 22.0286 28.2055 20.4972 28.2055C18.9658 28.2055 15.6824 28.3231 14.3007 27.8028C13.8227 27.6201 13.4654 27.4 13.0977 27.0473C12.7273 26.6945 12.4962 26.3568 12.3044 25.9015C11.7581 24.5831 11.8815 21.4585 11.8815 20C11.8815 18.5415 11.7581 15.4144 12.3044 14.0985C12.4962 13.6432 12.7273 13.303 13.0977 12.9527C13.4681 12.6025 13.8227 12.3799 14.3007 12.1972C15.6824 11.6769 18.9658 11.7945 20.4972 11.7945C22.0286 11.7945 25.312 11.6769 26.6936 12.1972C27.1717 12.3799 27.5289 12.6 27.8967 12.9527C28.267 13.3055 28.4982 13.6432 28.6899 14.0985C29.2363 15.4144 29.1128 18.5415 29.1128 20C29.1128 21.4585 29.2363 24.5831 28.6873 25.899Z" fill="#0B3453"/>
<path d="M20 0C8.95313 0 0 8.95313 0 20C0 31.0469 8.95313 40 20 40C31.0469 40 40 31.0469 40 20C40 8.95313 31.0469 0 20 0ZM32.4844 32.4766C30.8594 34.1016 28.9766 35.375 26.875 36.2578C24.7031 37.1797 22.3906 37.6406 20 37.6406C17.6172 37.6406 15.3047 37.1719 13.125 36.2578C11.0234 35.3672 9.13281 34.0938 7.51562 32.4766C5.89062 30.8516 4.61719 28.9687 3.73437 26.8672C2.8125 24.6953 2.34375 22.3828 2.34375 20C2.34375 17.6172 2.8125 15.3047 3.72656 13.125C4.61719 11.0234 5.89062 9.13281 7.50781 7.51562C9.14062 5.89062 11.0234 4.61719 13.125 3.72656C15.3047 2.8125 17.6172 2.34375 20 2.34375C22.3828 2.34375 24.6953 2.8125 26.875 3.72656C28.9766 4.61719 30.8672 5.89062 32.4844 7.50781C34.1094 9.13281 35.3828 11.0156 36.2656 13.1172C37.1875 15.2891 37.6484 17.6016 37.6484 19.9922C37.6484 22.375 37.1797 24.6875 36.2656 26.8672C35.375 28.9687 34.1016 30.8594 32.4844 32.4766Z" fill="#0B3453"/>
</svg>
