<svg width="41" height="40" viewBox="0 0 41 40" fill="none" xmlns="http://www.w3.org/2000/svg">
<g clip-path="url(#clip0_2007_143)">
<path d="M20.5 0C9.45313 0 0.5 8.95313 0.5 20C0.5 31.0469 9.45313 40 20.5 40C31.5469 40 40.5 31.0469 40.5 20C40.5 8.95313 31.5469 0 20.5 0ZM32.9844 32.4766C31.3594 34.1016 29.4766 35.375 27.375 36.2578C25.2031 37.1797 22.8906 37.6406 20.5 37.6406C18.1172 37.6406 15.8047 37.1719 13.625 36.2578C11.5234 35.3672 9.63281 34.0938 8.01562 32.4766C6.39062 30.8516 5.11719 28.9687 4.23438 26.8672C3.3125 24.6953 2.84375 22.3828 2.84375 20C2.84375 17.6172 3.3125 15.3047 4.22656 13.125C5.11719 11.0234 6.39062 9.13281 8.00781 7.51562C9.64062 5.89062 11.5234 4.61719 13.625 3.72656C15.8047 2.8125 18.1172 2.34375 20.5 2.34375C22.8828 2.34375 25.1953 2.8125 27.375 3.72656C29.4766 4.61719 31.3672 5.89063 32.9844 7.50781C34.6094 9.13281 35.8828 11.0156 36.7656 13.1172C37.6875 15.2891 38.1484 17.6016 38.1484 19.9922C38.1484 22.375 37.6797 24.6875 36.7656 26.8672C35.875 28.9687 34.6016 30.8594 32.9844 32.4766Z" fill="#0B3453"/>
<path d="M14.9062 15.8906H11.0078V28.3672H14.9062V15.8906Z" fill="#0B3453"/>
<path d="M12.875 10C11.4375 10 10.4922 10.9297 10.4922 12.1641C10.4922 13.375 11.4062 14.3281 12.8203 14.3281H12.8516C14.3203 14.3281 15.2344 13.3672 15.2266 12.1641C15.1953 10.9297 14.3125 10 12.875 10Z" fill="#0B3453"/>
<path d="M25.5547 15.7734C23.3203 15.7734 21.9219 16.9922 21.6641 17.8516V15.8906H17.2812C17.3359 16.9297 17.2812 28.3672 17.2812 28.3672H21.6641V21.625C21.6641 21.2422 21.6484 20.8672 21.7578 20.6016C22.0547 19.8516 22.7031 19.0703 23.8672 19.0703C25.3906 19.0703 26.0781 20.2266 26.0781 21.9141V28.3672H30.5V21.4297C30.5 17.5703 28.3281 15.7734 25.5547 15.7734Z" fill="#0B3453"/>
</g>
<defs>
<clipPath id="clip0_2007_143">
<rect width="40" height="40" fill="white" transform="translate(0.5)"/>
</clipPath>
</defs>
</svg>
