<svg width="37" height="37" viewBox="0 0 37 37" fill="none" xmlns="http://www.w3.org/2000/svg">
<path d="M6.87976 0.122878C6.56902 0.274635 6.30886 0.585377 6.21492 0.925025C6.17156 1.09846 6.14265 3.15803 6.14265 6.7713V12.3574H3.29539C1.72723 12.3574 0.390322 12.3791 0.325283 12.4008C-0.0143642 12.5309 8.89079e-05 12.0684 8.89079e-05 24.7148V36.5808L0.209659 36.7904L0.419229 36.9999H15.3348H30.2504L30.5684 36.8337C30.7418 36.747 30.9442 36.588 31.0236 36.4869C31.2115 36.2267 37 19.9959 37 19.7285C37 19.266 36.6314 18.7457 36.1834 18.5795C36.0605 18.5289 35.2295 18.5 34.0371 18.5H32.0932L32.0715 15.8406L32.0498 13.174L31.8692 12.9139C31.5584 12.4658 31.2766 12.3574 30.4022 12.3574H29.6362L29.6145 9.73418C29.5928 6.77853 29.5856 6.74239 29.0291 6.37384C28.7473 6.18595 28.6822 6.17872 27.6272 6.14982L26.5215 6.12814V5.10197C26.5215 4.16252 26.5071 4.03967 26.3553 3.7506C26.0735 3.22307 25.8711 3.1508 24.5703 3.10744L23.4502 3.07131L23.4141 1.95119C23.3707 0.650416 23.284 0.41194 22.7348 0.151784C22.4313 2.67029e-05 22.3735 2.67029e-05 14.7711 2.67029e-05C7.87702 2.67029e-05 7.09656 0.0144798 6.87976 0.122878ZM22.1856 2.16799V3.10744H16.1731H10.1534L9.86432 3.27365C9.67643 3.37482 9.51745 3.54103 9.41628 3.75783L9.25007 4.0758V11.2879V18.5H8.31062H7.37117V9.86426V1.22854H14.7784H22.1856V2.16799ZM25.293 5.23927V6.14259H19.425C15.6022 6.14259 13.4559 6.1715 13.2825 6.21486C13.1307 6.25821 12.9139 6.37384 12.7911 6.48224C12.3358 6.86524 12.3575 6.5256 12.3575 12.791V18.5H11.418H10.4786V11.418V4.33595H17.8858H25.293V5.23927ZM28.386 12.95L28.4004 18.5H26.442H24.4836L24.9533 18.0014C26.3192 16.5488 26.8178 14.5904 26.2975 12.7187C25.8711 11.165 24.8377 9.9293 23.378 9.2211C22.518 8.80196 21.9037 8.65743 20.9426 8.65743C17.8786 8.66465 15.4215 11.1361 15.4504 14.193C15.4649 15.7611 15.9635 16.9535 17.0836 18.117L17.445 18.5H15.5155H13.586V12.9355V7.3711L20.9787 7.38556L28.3643 7.40724L28.386 12.95ZM22.0411 10.0088C24.4114 10.6375 25.8133 13.1668 25.069 15.4721C24.9028 15.9996 24.4547 16.7945 24.1873 17.0402L24.0067 17.2137L23.9561 16.968C23.8549 16.5055 23.5948 16.0719 23.1756 15.6672L22.7493 15.248L22.9299 15.0312C23.4647 14.4025 23.5659 13.268 23.1612 12.4658C22.8938 11.9455 22.3735 11.4686 21.8387 11.2734C21.275 11.0566 20.4295 11.0928 19.9092 11.3457C18.8686 11.8516 18.2905 13.109 18.6012 14.1785C18.6663 14.4025 18.8252 14.7494 18.9625 14.9445L19.2082 15.3058L18.9553 15.4865C18.5795 15.7539 18.1532 16.3682 18.0231 16.8234L17.9002 17.2281L17.6618 16.9463C17.0403 16.2092 16.679 15.1758 16.6862 14.1641C16.6934 12.9283 17.0692 12.0395 17.9508 11.165C18.5723 10.5508 19.1215 10.2184 19.8803 10.016C20.3934 9.87871 21.5352 9.87149 22.0411 10.0088ZM21.5135 12.473C22.0411 12.726 22.3084 13.3908 22.1205 13.9689C22.07 14.1135 21.9037 14.3375 21.752 14.482C20.7692 15.3709 19.2661 14.1785 19.8875 13.0078C20.1983 12.4297 20.9137 12.1912 21.5135 12.473ZM6.1282 16.0935L6.10652 18.6084L4.82019 18.818C4.11922 18.9336 3.51942 19.0058 3.49774 18.9842C3.4616 18.948 1.51766 13.6654 1.51766 13.6076C1.51766 13.5932 2.55829 13.5859 3.83016 13.5859H6.14265L6.1282 16.0935ZM30.8574 16.043V18.5H30.2432H29.6289V16.043V13.5859H30.2432H30.8574V16.043ZM21.9616 16.2959C22.1711 16.4115 22.4241 16.6066 22.5108 16.7295C22.7131 16.9896 22.8577 17.5099 22.8215 17.8568C22.7998 18.0881 22.7782 18.1097 22.294 18.276C21.5713 18.5289 20.4151 18.5361 19.678 18.2904L19.1504 18.117V17.6906C19.1504 17.1992 19.3022 16.8451 19.6707 16.4982C20.0538 16.1297 20.3356 16.0357 20.9932 16.0646C21.4702 16.0863 21.6436 16.1224 21.9616 16.2959ZM1.80673 18.0303C2.3704 19.5984 2.50047 19.8658 2.79676 20.0537C3.15086 20.2849 3.41825 20.2994 4.495 20.1187C5.0659 20.0248 5.59344 19.9453 5.68015 19.9453C5.81746 19.9453 5.62957 20.5162 3.57 26.283C2.31981 29.7734 1.28641 32.6568 1.27196 32.7001C1.25751 32.7363 1.23583 29.1158 1.23583 24.6498C1.2286 20.1838 1.24305 16.5416 1.25751 16.556C1.27196 16.5705 1.51766 17.2353 1.80673 18.0303ZM35.5258 20.3933C35.3957 20.7619 34.1022 24.3752 32.6641 28.422L30.0408 35.7714H15.7756H1.51044L1.56102 35.6052C1.59716 35.4824 7.04597 20.2127 7.1905 19.8152C7.21218 19.7502 10.1462 19.7285 21.4991 19.7285H35.7715L35.5258 20.3933Z" fill="#0b3453"/>
<path d="M13.3692 21.116C12.9934 21.2389 12.8128 21.3617 12.4587 21.7086C12.1046 22.0699 11.9962 22.2361 11.8661 22.6408C11.6782 23.2189 11.671 23.4574 11.8155 24.0283C12.0106 24.7799 12.5237 25.3797 13.203 25.6615L13.5716 25.8205L13.6005 26.7672C13.6294 27.8078 13.6872 27.9884 14.1208 28.422C14.2509 28.5521 14.4821 28.7256 14.6411 28.805C14.9085 28.9351 15.1397 28.9424 19.613 28.964C24.7727 28.9857 24.6932 28.9929 25.2352 28.5449C25.3797 28.422 25.5821 28.1619 25.6833 27.9523C25.8567 27.6127 25.8711 27.497 25.8711 26.7021V25.8277L26.2686 25.6615C26.7817 25.4519 27.2731 24.9678 27.5188 24.4402C27.7717 23.891 27.7862 22.9877 27.5477 22.4601C27.0852 21.4267 25.9001 20.8125 24.8088 21.0293C24.0645 21.181 23.443 21.658 23.0672 22.3662C22.901 22.6842 22.8794 22.8142 22.8721 23.414C22.8721 23.9994 22.901 24.1512 23.0528 24.4619C23.284 24.9388 23.7971 25.4447 24.2669 25.6543L24.6426 25.8277V26.5648C24.6426 26.9695 24.621 27.3597 24.5993 27.4248C24.4764 27.7427 24.3969 27.75 19.7286 27.75C16.5055 27.75 15.2698 27.7283 15.1542 27.6633C14.8579 27.5115 14.8218 27.3814 14.8145 26.5937V25.8349L15.2481 25.6254C15.7973 25.3652 16.2743 24.8521 16.4766 24.2957C16.6862 23.7465 16.6501 22.8937 16.3971 22.3662C15.8696 21.2533 14.5544 20.7113 13.3692 21.116ZM14.7495 22.3517C15.4432 22.7203 15.6167 23.6959 15.0891 24.2596C14.8796 24.4836 14.8145 24.4691 14.8145 24.209C14.8145 23.7392 14.3954 23.3418 14.0341 23.4646C13.7233 23.573 13.586 23.7898 13.586 24.1656V24.5269L13.3403 24.2885C12.7188 23.6814 12.8995 22.6842 13.6872 22.3228C14.0847 22.1422 14.3665 22.1494 14.7495 22.3517ZM25.9073 22.3951C26.3626 22.6553 26.5938 23.2334 26.4565 23.7537C26.3842 24.0283 26.0735 24.4258 25.9362 24.4258C25.9001 24.4258 25.8711 24.2885 25.8711 24.115C25.8711 23.6308 25.5026 23.349 25.069 23.5008C24.8305 23.5803 24.6426 23.9055 24.6426 24.2451C24.6426 24.4113 24.6282 24.4258 24.4909 24.3535C24.303 24.2523 24.0717 23.7392 24.0645 23.4285C24.0645 23.0816 24.2307 22.7348 24.527 22.5035C24.9462 22.1639 25.4448 22.1277 25.9073 22.3951Z" fill="#0b3453"/>
</svg>
