<svg width="40" height="40" viewBox="0 0 40 40" fill="none" xmlns="http://www.w3.org/2000/svg">
<g clip-path="url(#clip0_2007_110)">
<path d="M20 0C8.95313 0 0 8.95313 0 20C0 31.0469 8.95313 40 20 40C31.0469 40 40 31.0469 40 20C40 8.95313 31.0469 0 20 0ZM32.4844 32.4766C30.8594 34.1016 28.9766 35.375 26.875 36.2578C24.7031 37.1797 22.3906 37.6406 20 37.6406C17.6172 37.6406 15.3047 37.1719 13.125 36.2578C11.0234 35.3672 9.13281 34.0938 7.51562 32.4766C5.89062 30.8516 4.61719 28.9687 3.73437 26.8672C2.8125 24.6953 2.34375 22.3828 2.34375 20C2.34375 17.6172 2.8125 15.3047 3.72656 13.125C4.61719 11.0234 5.89062 9.13281 7.50781 7.51562C9.14062 5.89062 11.0234 4.61719 13.125 3.72656C15.3047 2.8125 17.6172 2.34375 20 2.34375C22.3828 2.34375 24.6953 2.8125 26.875 3.72656C28.9766 4.61719 30.8672 5.89062 32.4844 7.50781C34.1094 9.13281 35.3828 11.0156 36.2656 13.1172C37.1875 15.2891 37.6484 17.6016 37.6484 19.9922C37.6484 22.375 37.1797 24.6875 36.2656 26.8672C35.375 28.9687 34.1016 30.8594 32.4844 32.4766Z" fill="#0B3453"/>
<path d="M28.0781 14.2422H22.7812V15.7812H28.0781V14.2422Z" fill="#0B3453"/>
<path d="M29.1875 18.4219C28.7734 17.8047 28.25 17.3516 27.6094 17.0703C26.9766 16.7813 26.2578 16.6406 25.4531 16.6484C24.1172 16.6484 23.0313 17.0703 22.1875 17.9141C21.3516 18.7578 20.9297 19.9688 20.9297 21.5547C20.9297 23.2422 21.3984 24.4609 22.3281 25.2109C23.2578 25.9609 24.3281 26.3359 25.5469 26.3359C27.0234 26.3359 28.1641 25.8906 28.9844 25C29.5078 24.4375 29.8047 23.8828 29.8672 23.3438H27.4297C27.2891 23.6172 27.125 23.8281 26.9375 23.9766C26.5937 24.2578 26.1484 24.3984 25.6094 24.3984C25.0937 24.3984 24.6562 24.2813 24.2891 24.0547C23.6875 23.6875 23.375 23.0391 23.3359 22.125H29.9922C30.0078 21.3359 29.9766 20.7344 29.9141 20.3125C29.8047 19.5938 29.5625 18.9609 29.1875 18.4219ZM23.3984 20.5469C23.4922 19.9531 23.7031 19.4844 24.0391 19.1328C24.375 18.7891 24.8516 18.6094 25.4609 18.6094C26.0234 18.6094 26.5 18.7734 26.8828 19.1016C27.2578 19.4297 27.4688 19.9141 27.5156 20.5469H23.3984Z" fill="#0B3453"/>
<path d="M18.2266 19.3984C18.6406 19.1875 18.9609 18.9531 19.1719 18.6953C19.5547 18.2344 19.7422 17.625 19.7422 16.875C19.7422 16.1406 19.5547 15.5078 19.1797 14.9844C18.5469 14.125 17.4766 13.6875 15.9766 13.6641H10V26.0313H15.5625C16.1953 26.0313 16.7734 25.9766 17.3125 25.8672C17.8516 25.75 18.3203 25.5469 18.7109 25.2422C19.0625 24.9844 19.3516 24.6563 19.5859 24.2734C19.9609 23.6953 20.1406 23.0391 20.1406 22.3047C20.1406 21.5938 19.9766 20.9922 19.6563 20.4922C19.3359 19.9922 18.8594 19.6328 18.2266 19.3984ZM12.4609 15.8125H15.1484C15.7422 15.8125 16.2266 15.8828 16.6094 16.0078C17.0547 16.1953 17.2734 16.5703 17.2734 17.1484C17.2734 17.6641 17.1094 18.0313 16.7734 18.2344C16.4375 18.4375 16.0078 18.5391 15.4688 18.5391H12.4609V15.8125ZM16.7188 23.6562C16.4219 23.8047 16.0078 23.875 15.4688 23.875H12.4609V20.5781H15.5078C16.0391 20.5859 16.4453 20.6563 16.7422 20.7891C17.2734 21.0313 17.5312 21.4766 17.5312 22.1172C17.5312 22.875 17.2656 23.3828 16.7188 23.6562Z" fill="#0B3453"/>
</g>
<defs>
<clipPath id="clip0_2007_110">
<rect width="40" height="40" fill="white"/>
</clipPath>
</defs>
</svg>
