<svg width="41" height="46" viewBox="0 0 41 46" fill="none" xmlns="http://www.w3.org/2000/svg">
<path d="M27.331 15.1357H27.3023C26.8964 15.1357 26.5823 15.4646 26.5823 15.8701C26.5823 16.2756 26.9251 16.6045 27.331 16.6045C27.7369 16.6045 28.0653 16.2756 28.0653 15.8701C28.0653 15.4646 27.7369 15.1357 27.331 15.1357Z" fill="#fff"/>
<path d="M31.1743 15.1357H31.1456C30.7397 15.1357 30.4255 15.4646 30.4255 15.8701C30.4255 16.2756 30.7683 16.6045 31.1742 16.6045C31.5801 16.6045 31.9086 16.2756 31.9086 15.8701C31.9086 15.4646 31.5802 15.1357 31.1743 15.1357Z" fill="#fff"/>
<path d="M35.0176 15.1357H34.9889C34.583 15.1357 34.2688 15.4646 34.2688 15.8701C34.2688 16.2756 34.6116 16.6045 35.0175 16.6045C35.4234 16.6045 35.7519 16.2756 35.7519 15.8701C35.7519 15.4646 35.4235 15.1357 35.0176 15.1357Z" fill="#fff"/>
<path d="M39.8972 13.1693C38.4825 8.49731 33.7035 5.75309 29.0149 6.76932V2.5861C29.0149 1.16002 27.8545 0 26.4281 0H3.28813C1.86241 0 0.702026 1.16002 0.702026 2.5861V42.9423C0.702026 44.3698 1.86241 45.5312 3.28813 45.5312H26.4281C27.8546 45.5312 29.015 44.3698 29.015 42.9423V24.9678C29.6534 25.1058 30.3047 25.184 30.9621 25.1839C31.8671 25.1839 32.7808 25.0512 33.6758 24.7798C36.0576 24.0601 38.0168 22.4562 39.1915 20.2635C40.3662 18.0708 40.6172 15.5513 39.8972 13.1693ZM9.7333 1.46875H20.6399V2.32753C20.6399 2.8012 20.2548 3.18631 19.7815 3.18631H10.5917C10.1184 3.18631 9.7333 2.8012 9.7333 2.32753V1.46875ZM27.5461 42.9423C27.5461 43.5601 27.0449 44.0625 26.4281 44.0625H3.28813C2.67206 44.0625 2.17078 43.5601 2.17078 42.9423V41.6127H27.5461V42.9423ZM27.5461 40.1439H2.17078V2.5861C2.17078 1.97003 2.67206 1.46875 3.28813 1.46875H8.26455V2.32753C8.26455 3.61092 9.30875 4.65506 10.5917 4.65506H19.7815C21.0645 4.65506 22.1086 3.61085 22.1086 2.32753V1.46875H26.4281C27.0448 1.46875 27.5461 1.97003 27.5461 2.5861V7.21516C24.227 8.53043 22.0295 11.6016 21.7118 15.0162C19.8738 13.5342 17.5784 12.6967 15.1851 12.6967C9.44491 12.6967 4.77546 17.3669 4.77546 23.107C4.77546 28.8487 9.44491 33.5199 15.1851 33.5199C20.8112 33.5199 25.3977 29.0296 25.5783 23.4451C26.1961 23.8866 26.8566 24.2444 27.5461 24.5195V40.1439ZM21.2201 22.9087C21.3621 23.1271 21.6131 23.2536 21.8691 23.2407L24.1254 23.1343C24.1181 25.5246 23.1638 27.6924 21.6252 29.2946C20.8642 27.6616 19.5096 26.3935 17.875 25.7193C18.901 24.9172 19.5641 23.6716 19.5641 22.2715C19.5641 19.8571 17.5998 17.8928 15.1851 17.8928C12.7725 17.8928 10.8097 19.8571 10.8097 22.2715C10.8097 23.6715 11.4723 24.9171 12.4973 25.7191C10.8625 26.3937 9.50777 27.663 8.74688 29.2975C7.20088 27.689 6.24421 25.5094 6.24421 23.107C6.24421 18.1764 10.2553 14.1654 15.1851 14.1654C17.6833 14.1654 20.0624 15.2195 21.7534 17.0533C21.8182 17.5564 21.9142 18.0606 22.0655 18.5619C22.176 18.9237 22.3051 19.2744 22.4514 19.609L21.1769 22.1808C21.0609 22.4142 21.0773 22.691 21.2201 22.9087ZM15.1851 26.6502C17.5413 26.6502 19.6281 28.1434 20.4444 30.3238C18.9667 31.4047 17.1522 32.0511 15.1851 32.0511C13.2194 32.0511 11.4057 31.4055 9.9282 30.3257C10.7445 28.1444 12.8303 26.6502 15.1851 26.6502ZM12.2785 22.2715C12.2785 20.6668 13.5823 19.3616 15.1851 19.3616C16.7901 19.3616 18.0954 20.6668 18.0954 22.2715C18.0954 23.8761 16.7902 25.1814 15.1851 25.1814C13.5823 25.1814 12.2785 23.8761 12.2785 22.2715ZM37.897 19.5699C36.9073 21.4166 35.2572 22.7678 33.2506 23.3741C30.6595 24.1598 27.8848 23.5667 25.8337 21.7867C25.6996 21.6705 25.5289 21.6071 25.3524 21.6071C25.341 21.6071 25.3294 21.6074 25.318 21.6078L23.0467 21.715L23.9231 19.9469C24.0242 19.7429 24.0256 19.5037 23.926 19.2989C23.7488 18.9361 23.5961 18.5441 23.4713 18.1357C22.2206 13.9948 24.5708 9.6079 28.7095 8.35609C32.8511 7.10537 37.2387 9.45589 38.4916 13.5946C39.0975 15.6008 38.8867 17.7229 37.897 19.5699Z" fill="#fff"/>
</svg>
