<svg width="40" height="40" viewBox="0 0 40 40" fill="none" xmlns="http://www.w3.org/2000/svg">
<path d="M30.9432 14.4202C30.8441 13.9284 30.6226 13.4784 30.3132 13.1066C30.248 13.0256 30.1799 12.953 30.106 12.8805C29.5579 12.3382 28.7887 12 27.9484 12H12.0517C11.2113 12 10.4449 12.3382 9.89422 12.8805C9.82053 12.953 9.75238 13.0256 9.68699 13.1066C9.37748 13.4783 9.15598 13.9284 9.05955 14.4202C9.01994 14.61 9 14.8062 9 15.0045V25.9958C9 26.4175 9.09084 26.8228 9.25283 27.1889C9.40309 27.5383 9.62464 27.8544 9.89418 28.1195C9.9625 28.1866 10.0303 28.2483 10.1044 28.3096C10.6323 28.7401 11.3137 29 12.0517 29H27.9484C28.6866 29 29.371 28.7401 29.8958 28.3069C29.9697 28.2483 30.0378 28.1866 30.106 28.1195C30.3754 27.8544 30.5969 27.5383 30.7503 27.1889V27.1861C30.9122 26.8201 31 26.4175 31 25.9959V15.0045C31 14.8062 30.9804 14.61 30.9432 14.4202ZM10.9984 13.9674C11.2711 13.6993 11.6372 13.537 12.0517 13.537H27.9484C28.3628 13.537 28.7322 13.6993 29.0016 13.9674C29.0498 14.0152 29.0952 14.0684 29.1353 14.1213L20.8034 21.27C20.5736 21.4683 20.2897 21.5662 20 21.5662C19.7132 21.5662 19.4296 21.4683 19.1967 21.27L10.8679 14.1182C10.9048 14.0653 10.9502 14.0152 10.9984 13.9674ZM10.5612 25.9958V15.7087L16.5908 20.8871L10.5643 26.0599C10.5612 26.0403 10.5612 26.0182 10.5612 25.9958ZM27.9484 27.4627H12.0517C11.7818 27.4627 11.5293 27.3929 11.3137 27.2702L17.6722 21.815L18.2658 22.3234C18.7626 22.7483 19.3842 22.9636 20 22.9636C20.619 22.9636 21.2406 22.7483 21.7373 22.3234L22.3307 21.815L28.6866 27.2702C28.4708 27.3929 28.2182 27.4627 27.9484 27.4627ZM29.4388 25.9958C29.4388 26.0182 29.4388 26.0403 29.4359 26.0599L23.4094 20.8901L29.4388 15.7115V25.9958Z" fill="#10568B"/>
<path d="M20 0C8.95313 0 0 8.95313 0 20C0 31.0469 8.95313 40 20 40C31.0469 40 40 31.0469 40 20C40 8.95313 31.0469 0 20 0ZM32.4844 32.4766C30.8594 34.1016 28.9766 35.375 26.875 36.2578C24.7031 37.1797 22.3906 37.6406 20 37.6406C17.6172 37.6406 15.3047 37.1719 13.125 36.2578C11.0234 35.3672 9.13281 34.0938 7.51562 32.4766C5.89062 30.8516 4.61719 28.9687 3.73437 26.8672C2.8125 24.6953 2.34375 22.3828 2.34375 20C2.34375 17.6172 2.8125 15.3047 3.72656 13.125C4.61719 11.0234 5.89062 9.13281 7.50781 7.51562C9.14062 5.89062 11.0234 4.61719 13.125 3.72656C15.3047 2.8125 17.6172 2.34375 20 2.34375C22.3828 2.34375 24.6953 2.8125 26.875 3.72656C28.9766 4.61719 30.8672 5.89062 32.4844 7.50781C34.1094 9.13281 35.3828 11.0156 36.2656 13.1172C37.1875 15.2891 37.6484 17.6016 37.6484 19.9922C37.6484 22.375 37.1797 24.6875 36.2656 26.8672C35.375 28.9687 34.1016 30.8594 32.4844 32.4766Z" fill="#10568B"/>
</svg>
