<svg width="37" height="37" viewBox="0 0 37 37" fill="none" xmlns="http://www.w3.org/2000/svg">
<g clip-path="url(#clip0_2006_37)">
<path d="M36.4538 12.4345L33.8157 9.79634C33.0874 9.06805 31.9058 9.06805 31.1775 9.79634L16.6662 24.3071C16.4608 24.5119 16.3066 24.7616 16.2154 25.0367L14.8963 28.9938C14.8303 29.1924 14.8094 29.3964 14.8112 29.5994H12.9673H3.7002V31.4494H13.4626H16.6502V31.4382C16.853 31.4401 17.0572 31.4197 17.2558 31.3531L21.2129 30.034C21.4879 29.9422 21.7377 29.788 21.9424 29.5832L36.4532 15.0725C37.1821 14.3449 37.1821 13.1634 36.4538 12.4345ZM16.6662 29.584L17.9852 25.6268L20.6234 28.265L16.6662 29.584ZM21.943 26.9459L19.3043 24.3072L32.4967 11.1155L35.1348 13.7536L21.943 26.9459Z" fill="#0b3453"/>
<path d="M9.9532 3.70001C6.89268 3.70001 4.4032 6.18949 4.4032 9.25001C4.4032 12.3105 6.89268 14.8 9.9532 14.8C13.0137 14.8 15.5032 12.3105 15.5032 9.25001C15.5032 6.18949 13.0137 3.70001 9.9532 3.70001ZM9.9532 12.95C7.9096 12.95 6.2532 11.2936 6.2532 9.25001C6.2532 7.20641 7.9096 5.55001 9.9532 5.55001C11.9968 5.55001 13.6532 7.20641 13.6532 9.25001C13.6532 11.2936 11.9968 12.95 9.9532 12.95Z" fill="#0b3453"/>
<path d="M15.4736 16.3194C15.3132 15.4395 14.5473 14.8 13.6532 14.8H9.9532H6.2532C5.35905 14.8 4.59311 15.4395 4.4334 16.3194L3.7002 20.35H5.5804L6.2532 16.65H9.0282V20.35H10.8782V16.65H13.6532L14.326 20.35H16.2062L15.4736 16.3194Z" fill="#0b3453"/>
<path d="M27.7501 5.54999H16.6501V7.39999H27.7501V5.54999Z" fill="#0b3453"/>
<path d="M3.7002 24.05V25.9H13.9776L14.4605 24.4508C14.508 24.3096 14.5856 24.1832 14.6492 24.05H3.7002Z" fill="#0b3453"/>
<path d="M16.6501 11.1V12.95H25.4074L27.2574 11.1H16.6501Z" fill="#0b3453"/>
<path d="M29.8698 8.48716C30.3157 8.04129 30.8615 7.73914 31.4504 7.5665V0H0.000366211V37H31.4504V22.6934L29.6004 24.5434V35.15H1.85037V1.85H29.6004V8.75664L29.8698 8.48716Z" fill="#0b3453"/>
</g>
<defs>
<clipPath id="clip0_2006_37">
<rect width="37" height="37" fill="white"/>
</clipPath>
</defs>
</svg>
