<svg width="60" height="60" viewBox="0 0 60 60" fill="none" xmlns="http://www.w3.org/2000/svg">
<path d="M39.63 22.4525H28.16V0H39.63C45.82 0 50.855 5.035 50.855 11.225C50.855 17.415 45.82 22.4525 39.63 22.4525ZM31.8375 18.775H39.63C43.7925 18.775 47.1775 15.3875 47.1775 11.2275C47.1775 7.0675 43.79 3.68 39.63 3.68H31.8375V18.775ZM31.8375 22.4525H20.37C14.18 22.4525 9.14499 17.4175 9.14499 11.2275C9.14499 5.0375 14.18 0 20.37 0H31.84V22.4525H31.8375ZM20.37 3.6775C16.2075 3.6775 12.8225 7.065 12.8225 11.225C12.8225 15.385 16.2075 18.775 20.37 18.775H28.1625V3.6775H20.37ZM31.8375 41.225H20.37C14.18 41.225 9.14499 36.19 9.14499 30C9.14499 23.81 14.18 18.775 20.37 18.775H31.84V41.225H31.8375ZM20.37 22.4525C16.2075 22.4525 12.8225 25.84 12.8225 30C12.8225 34.16 16.21 37.5475 20.37 37.5475H28.1625V22.4525H20.37ZM20.43 60C14.2075 60 9.14249 54.965 9.14249 48.775C9.14249 42.585 14.1775 37.55 20.3675 37.55H31.8375V48.6525C31.8375 54.91 26.72 60 20.43 60ZM20.37 41.225C18.3691 41.2276 16.4509 42.0237 15.036 43.4385C13.6212 44.8534 12.8251 46.7716 12.8225 48.7725C12.8225 52.935 16.235 56.32 20.4325 56.32C24.695 56.32 28.165 52.88 28.165 48.65V41.225H20.37ZM39.63 41.225H39.385C33.195 41.225 28.16 36.19 28.16 30C28.16 23.81 33.195 18.775 39.385 18.775H39.63C45.82 18.775 50.855 23.81 50.855 30C50.855 36.19 45.82 41.225 39.63 41.225ZM39.3875 22.4525C35.225 22.4525 31.84 25.84 31.84 30C31.84 34.16 35.2275 37.5475 39.3875 37.5475H39.6325C43.795 37.5475 47.18 34.16 47.18 30C47.18 25.84 43.79 22.4525 39.63 22.4525H39.3875Z" fill="#0B3453"/>
</svg>
