<svg width="240" height="225" viewBox="0 0 240 225" fill="none" xmlns="http://www.w3.org/2000/svg">
<g clip-path="url(#clip0_2083_2)">
<path d="M190.215 60.0404C186.07 61.0845 182.007 62.2902 177.983 63.5717C180.015 61.7565 182.046 59.9407 184.025 58.0331C185.006 57.0848 174.788 39.2647 173.727 39.8067C171.933 40.7266 170.138 41.6445 168.343 42.5624C165.722 37.0898 160.203 27.6836 159.372 28.1289C116.459 51.0483 73.5446 73.9659 30.6309 96.8855C30.0716 97.1858 33.5905 104.172 36.6883 109.411C35.4976 110.199 34.3079 110.989 33.1167 111.777C32.4907 112.191 36.6185 120.167 39.8613 125.434C38.9336 126.931 38.0968 128.56 37.3665 130.345C36.9852 131.282 39.8867 136.993 42.7217 141.78C41.8918 142.417 41.0354 143.011 40.2136 143.665C39.2538 144.427 49.3433 162.433 50.5103 161.889C62.2195 156.435 73.9281 150.984 85.6363 145.529C75.2053 151.27 64.7776 157.018 54.3416 162.75C53.4158 163.259 63.4344 181.624 64.6393 180.975C76.8362 174.386 89.0285 167.767 101.095 160.917C111.577 155.152 122.061 149.391 132.568 143.671C133.599 143.109 134.634 142.553 135.668 141.996C116.232 155.521 96.6828 168.853 77.0219 181.988C76.001 182.669 86.3159 200.883 87.3195 200.213C127.094 173.644 166.409 146.276 205.259 118.11C206.119 117.485 196.586 99.7569 194.962 99.8841C192.744 100.056 190.564 100.31 188.399 100.599C190.592 98.6382 192.773 96.6568 194.925 94.6273C195.449 94.1331 192.704 88.6661 189.903 83.8449C193.44 81.9851 196.976 80.1251 200.512 78.2656C201.318 77.8434 191.772 59.6477 190.215 60.0404Z" fill="#FCF512"/>
</g>
<defs>
<clipPath id="clip0_2083_2">
<rect width="188.804" height="154.261" fill="white" transform="translate(0 88.7813) rotate(-28.0493)"/>
</clipPath>
</defs>
</svg>
