<svg width="40" height="40" viewBox="0 0 40 40" fill="none" xmlns="http://www.w3.org/2000/svg">
<g clip-path="url(#clip0_2042_24)">
<path d="M20 0C8.95313 0 0 8.95313 0 20C0 31.0469 8.95313 40 20 40C31.0469 40 40 31.0469 40 20C40 8.95313 31.0469 0 20 0ZM32.4844 32.4766C30.8594 34.1016 28.9766 35.375 26.875 36.2578C24.7031 37.1797 22.3906 37.6406 20 37.6406C17.6172 37.6406 15.3047 37.1719 13.125 36.2578C11.0234 35.3672 9.13281 34.0938 7.51562 32.4766C5.89062 30.8516 4.61719 28.9687 3.73438 26.8672C2.8125 24.6953 2.34375 22.3828 2.34375 20C2.34375 17.6172 2.8125 15.3047 3.72656 13.125C4.61719 11.0234 5.89062 9.13281 7.50781 7.51562C9.14062 5.89062 11.0234 4.61719 13.125 3.72656C15.3047 2.8125 17.6172 2.34375 20 2.34375C22.3828 2.34375 24.6953 2.8125 26.875 3.72656C28.9766 4.61719 30.8672 5.89063 32.4844 7.50781C34.1094 9.13281 35.3828 11.0156 36.2656 13.1172C37.1875 15.2891 37.6484 17.6016 37.6484 19.9922C37.6484 22.375 37.1797 24.6875 36.2656 26.8672C35.375 28.9687 34.1016 30.8594 32.4844 32.4766Z" fill="#10568B"/>
<path d="M14.4062 15.8906H10.5078V28.3672H14.4062V15.8906Z" fill="#10568B"/>
<path d="M12.375 10C10.9375 10 9.99219 10.9297 9.99219 12.1641C9.99219 13.375 10.9062 14.3281 12.3203 14.3281H12.3516C13.8203 14.3281 14.7344 13.3672 14.7266 12.1641C14.6953 10.9297 13.8125 10 12.375 10Z" fill="#10568B"/>
<path d="M25.0547 15.7734C22.8203 15.7734 21.4219 16.9922 21.1641 17.8516V15.8906H16.7812C16.8359 16.9297 16.7812 28.3672 16.7812 28.3672H21.1641V21.625C21.1641 21.2422 21.1484 20.8672 21.2578 20.6016C21.5547 19.8516 22.2031 19.0703 23.3672 19.0703C24.8906 19.0703 25.5781 20.2266 25.5781 21.9141V28.3672H30V21.4297C30 17.5703 27.8281 15.7734 25.0547 15.7734Z" fill="#10568B"/>
</g>
<defs>
<clipPath id="clip0_2042_24">
<rect width="40" height="40" fill="white"/>
</clipPath>
</defs>
</svg>
