<svg width="120" height="121" viewBox="0 0 120 121" fill="none" xmlns="http://www.w3.org/2000/svg">
<path d="M118.159 13.0907L115.945 11.4803C113.932 9.86987 111.114 10.2725 109.705 12.2854L106.319 16.7022L106.082 16.5126C105.478 16.1099 105.075 16.1099 104.471 16.1099C103.867 16.1099 103.465 16.5126 103.062 16.915L102.312 17.9352L95.0107 16.1097C94.4068 15.9085 93.4003 16.3109 92.9978 16.9148L88.5694 22.8194V20.2463C88.5897 20.0153 88.5635 19.7896 88.4954 19.5737C88.418 19.3027 88.2786 19.0711 88.0771 18.8465C88.0415 18.8059 88.0045 18.766 87.9655 18.7271L69.8491 0.610666C69.8102 0.571744 69.7703 0.534709 69.7297 0.49909C69.5052 0.297638 69.2735 0.158227 69.0025 0.0808542C68.7866 0.0126816 68.5609 -0.0137382 68.3299 0.00678434H2.01286C0.805097 0.00678434 0 0.811882 0 2.01965V118.77C0 119.978 0.805097 120.783 2.01286 120.783H86.5563C87.7641 120.783 88.5692 119.978 88.5692 118.77V64.3162L116.549 27.3827C117.153 26.5776 116.952 25.1684 116.146 24.5645L115.675 24.1875L119.166 19.331C120.575 17.3179 120.172 14.4999 118.159 13.0907ZM95.2119 20.3373L99.7604 21.4076L88.5692 36.632V29.234L95.2119 20.3373ZM74.076 75.8945L67.8518 71.6779L70.2933 68.3382L76.2474 73.0253L74.076 75.8945ZM78.6764 69.8155L72.68 65.0951L75.0019 61.945L81.1455 66.5527L78.6764 69.8155ZM66.0765 75.38L71.1529 79.1873L64.2127 83.9461L63.4604 83.3819L66.0765 75.38ZM83.5751 63.3422L77.3908 58.7039L79.7943 55.4431L86.0829 60.0286L83.5751 63.3422ZM88.5123 56.8182L82.1824 52.2027L84.581 48.9483L90.9847 53.5511L88.5123 56.8182ZM81.7253 18.1232H70.4527V6.8507L81.7253 18.1232ZM84.5435 116.757H4.02572V4.03251H66.4268V20.1361C66.4268 21.3439 67.2319 22.149 68.4396 22.149H84.5432V28.1878L80.9199 33.0188C80.3161 33.8239 80.5173 35.2331 81.3226 35.837C81.7253 36.0382 82.1277 36.2397 82.5304 36.2397C83.1343 36.2397 83.7381 36.0385 83.9394 35.4346L84.5432 34.6257V42.0773L63.2062 70.8624C63.2062 71.0636 63.0049 71.2651 63.0049 71.4663L58.979 83.5439C58.7844 84.3224 59.155 85.1006 59.7256 85.6972L58.5763 87.3687C57.9724 88.3752 58.1736 89.583 59.1802 90.1869C59.5829 90.3881 59.9853 90.5895 60.388 90.5895C60.9918 90.5895 61.5957 90.3883 61.9984 89.583L62.9799 88.1554L63.0049 88.174C63.4076 88.3752 63.81 88.5767 64.2127 88.5767C64.6154 88.5767 65.0178 88.3755 65.2192 88.3755L75.6865 81.1289C75.7407 81.0746 75.7947 81.0161 75.848 80.955L75.8879 80.9274C76.0891 80.9274 76.0891 80.7262 76.2906 80.5248L84.5437 69.6308V116.757H84.5435ZM93.7642 50.655L86.9045 45.7961L105.075 21.1427L111.919 26.5776L93.7642 50.655ZM115.543 16.9155L112.214 21.4186L109.415 19.1791L112.725 14.7012C112.926 14.4999 113.127 14.4999 113.329 14.7012L115.543 16.3116C115.744 16.5128 115.744 16.714 115.543 16.9155Z" fill="#760604"/>
<path d="M42.2715 38.2527H18.1163C16.9085 38.2527 16.1034 39.0578 16.1034 40.2655C16.1034 41.4733 16.9085 42.2784 18.1163 42.2784H42.2715C43.4793 42.2784 44.2844 41.4733 44.2844 40.2655C44.2844 39.0578 43.4793 38.2527 42.2715 38.2527Z" fill="#760604"/>
<path d="M42.2715 62.4078H18.1163C16.9085 62.4078 16.1034 63.2129 16.1034 64.4207C16.1034 65.6285 16.9085 66.4336 18.1163 66.4336H42.2715C43.4793 66.4336 44.2844 65.6285 44.2844 64.4207C44.2846 63.2129 43.4793 62.4078 42.2715 62.4078Z" fill="#760604"/>
<path d="M42.2715 86.5631H18.1163C16.9085 86.5631 16.1034 87.3682 16.1034 88.576C16.1034 89.7837 16.9085 90.5888 18.1163 90.5888H42.2715C43.4793 90.5888 44.2844 89.7837 44.2844 88.576C44.2844 87.3682 43.4793 86.5631 42.2715 86.5631Z" fill="#760604"/>
<path d="M56.9662 43.6876C57.3688 44.0902 57.7713 44.2915 58.3752 44.2915C58.979 44.2915 59.5829 44.0902 59.7841 43.4864L69.8489 31.4087C70.654 30.6036 70.4528 29.3959 69.6477 28.5905C68.8426 27.7852 67.6348 27.9866 66.8295 28.7917L58.1739 39.259L55.7584 36.8434C54.9533 36.0383 53.7455 36.0383 52.9402 36.8434C52.1349 37.6485 52.1351 38.8563 52.9402 39.6616L56.9662 43.6876Z" fill="#760604"/>
<path d="M59.7841 67.6416L69.8489 55.564C70.654 54.7589 70.4528 53.5511 69.6477 52.7458C68.8426 51.9405 67.6348 52.1419 66.8295 52.947L58.1739 63.4142L55.7584 60.9987C54.9533 60.1936 53.7455 60.1936 52.9402 60.9987C52.1349 61.8038 52.1351 63.0116 52.9402 63.8169L56.9662 67.8428C57.3688 68.2455 57.7713 68.4467 58.3752 68.4467C58.979 68.4467 59.5829 68.2455 59.7841 67.6416Z" fill="#760604"/>
</svg>
