<svg width="35" height="29" viewBox="0 0 35 29" fill="none" xmlns="http://www.w3.org/2000/svg">
<path fill-rule="evenodd" clip-rule="evenodd" d="M1.94444 0C0.870567 0 0 0.92742 0 2.07143C0 3.21544 0.870567 4.14286 1.94444 4.14286H33.0556C34.1295 4.14286 35 3.21544 35 2.07143C35 0.92742 34.1295 0 33.0556 0H1.94444ZM0 14.5C0 13.3559 0.870567 12.4286 1.94444 12.4286H33.0556C34.1295 12.4286 35 13.3559 35 14.5C35 15.644 34.1295 16.5714 33.0556 16.5714H1.94444C0.870567 16.5714 0 15.644 0 14.5ZM0 26.9286C0 25.7845 0.870567 24.8571 1.94444 24.8571H33.0556C34.1295 24.8571 35 25.7845 35 26.9286C35 28.0726 34.1295 29 33.0556 29H1.94444C0.870567 29 0 28.0726 0 26.9286Z" fill="#DF1C1A"/>
</svg>
