<svg width="120" height="120" viewBox="0 0 120 120" fill="none" xmlns="http://www.w3.org/2000/svg">
<g clip-path="url(#clip0_1193_415)">
<path d="M118 78H96C94.234 78 92.66 78.782 91.56 80H80C78.896 80 78 80.894 78 82V83.588L61.694 79.776C60.47 79.494 59.216 79.594 58.062 80.068L42.402 86.468C40.378 87.296 38.898 88.97 38.296 90.992L7.736 81.758C5.904 81.204 3.966 81.544 2.422 82.686C0.882 83.826 0 85.582 0 87.5V91.968C0 93.978 1 95.844 2.672 96.96L24.89 111.772C25.088 111.904 25.308 112 25.542 112.056L58.628 119.842C59.076 119.948 59.536 119.998 59.998 119.998C60.462 119.998 60.928 119.946 61.378 119.84L78 115.912V116C78 117.106 78.896 118 80 118H91.56C92.658 119.218 94.234 120 96 120H118C119.104 120 120 119.106 120 118V80C120 78.894 119.104 78 118 78ZM77.874 111.832L60.458 115.946C60.158 116.022 59.838 116.02 59.54 115.948L26.81 108.246L4.89 93.632C4.334 93.262 4 92.638 4 91.968V87.5C4 86.862 4.294 86.276 4.808 85.894C5.32 85.512 5.964 85.396 6.58 85.584L38.336 95.142C39.252 97.98 41.93 100 45.08 100H60C61.104 100 62 99.106 62 98C62 96.894 61.104 96 60 96H45.08C43.382 96 42 94.67 42 92.984C42 91.728 42.752 90.626 43.916 90.152L59.578 83.762C59.962 83.602 60.382 83.574 60.788 83.67L77.994 87.694L77.874 111.832ZM90 114H82V84H90V114ZM116 116H96C94.898 116 94 115.104 94 114V84C94 82.896 94.898 82 96 82H116V116Z" fill="#760604"/>
<path d="M108.358 108H102.358C101.254 108 100.358 108.894 100.358 110C100.358 111.106 101.252 112 102.358 112H108.358C109.462 112 110.358 111.106 110.358 110C110.358 108.894 109.462 108 108.358 108Z" fill="#760604"/>
<path d="M100.106 31.034L90.1641 13.034C89.8141 12.396 89.1421 12 88.4161 12C88.4141 12 88.4121 12 88.4101 12C88.4021 12 88.3941 12.004 88.3861 12.004C88.3741 12.004 88.3661 12 88.3581 12H68.6241C68.5881 12 68.5541 12.012 68.5181 12.014C68.4821 12.012 68.4501 12 68.4161 12C68.4141 12 68.4121 12 68.4101 12C68.4021 12 68.3941 12.004 68.3861 12.004C68.3741 12.004 68.3661 12 68.3581 12H48.6241C48.5881 12 48.5541 12.012 48.5181 12.014C48.4821 12.012 48.4501 12 48.4161 12C48.4141 12 48.4121 12 48.4101 12C48.4021 12 48.3941 12.004 48.3861 12.004C48.3741 12.004 48.3661 12 48.3581 12H28.6241C28.5881 12 28.5541 12.012 28.5181 12.014C28.4821 12.012 28.4501 12 28.4161 12C28.4141 12 28.4121 12 28.4101 12C27.6801 12.002 27.0081 12.402 26.6601 13.044L16.8681 31.044C16.8481 31.082 16.8401 31.126 16.8221 31.164C16.8081 31.196 16.7821 31.22 16.7701 31.252C16.7541 31.292 16.7541 31.334 16.7421 31.372C16.7061 31.482 16.6801 31.594 16.6621 31.708C16.6521 31.78 16.6401 31.85 16.6381 31.924C16.6341 32.04 16.6441 32.154 16.6601 32.27C16.6701 32.338 16.6741 32.404 16.6901 32.472C16.7201 32.592 16.7681 32.706 16.8201 32.822C16.8461 32.878 16.8621 32.938 16.8921 32.992C16.8981 33.002 16.8981 33.012 16.9041 33.02C16.9961 33.174 17.1061 33.312 17.2321 33.434C17.2341 33.436 17.2361 33.44 17.2381 33.442L56.9701 71.566C57.0021 71.598 57.0441 71.608 57.0761 71.636C57.2081 71.748 57.3521 71.838 57.5081 71.914C57.5701 71.942 57.6241 71.978 57.6881 72C57.9001 72.076 58.1221 72.126 58.3561 72.126C58.5901 72.126 58.8121 72.076 59.0241 72C59.0861 71.978 59.1421 71.944 59.2041 71.914C59.3601 71.84 59.5041 71.748 59.6361 71.636C59.6681 71.608 59.7101 71.598 59.7401 71.568L99.0321 33.866C99.4621 33.71 99.8381 33.422 100.078 33.016C100.438 32.406 100.448 31.652 100.106 31.034ZM84.9681 16L78.4281 27.84L71.9881 16H84.9681ZM68.4281 18.16L74.9681 30H74.0901H61.9881L68.4281 18.16ZM64.9681 16L58.4281 27.84L51.9881 16H64.9681ZM48.4281 18.16L54.9681 30H42.6241H41.9881L48.4281 18.16ZM44.9681 16L38.4281 27.84L31.9881 16H44.9681ZM28.4281 18.16L34.9681 30H21.9881L28.4281 18.16ZM23.5961 34H38.3561H38.4061H38.4121H38.6201H41.2821L52.8781 62.1L23.5961 34ZM58.3561 64.882L45.6141 34H58.3581H58.4081H58.4141H58.6221H71.0981L58.3561 64.882ZM63.8321 62.1L75.4281 34H78.3581H78.4081H78.4141H78.6221H93.1161L63.8321 62.1ZM81.9881 30L88.4281 18.16L94.9681 30H81.9881Z" fill="#760604"/>
<path d="M28 62H24V58C24 56.894 23.104 56 22 56C20.896 56 20 56.894 20 58V62H16C14.896 62 14 62.894 14 64C14 65.106 14.896 66 16 66H20V70C20 71.106 20.896 72 22 72C23.104 72 24 71.106 24 70V66H28C29.104 66 30 65.106 30 64C30 62.894 29.104 62 28 62Z" fill="#760604"/>
<path d="M113.186 10L114.6 8.58601C115.38 7.80401 115.38 6.54001 114.6 5.75801C113.818 4.97601 112.554 4.97601 111.772 5.75801L110.358 7.17201L108.944 5.75801C108.162 4.97601 106.898 4.97601 106.116 5.75801C105.334 6.54001 105.334 7.80401 106.116 8.58601L107.528 10L106.114 11.414C105.332 12.196 105.332 13.46 106.114 14.242C106.504 14.632 107.016 14.828 107.528 14.828C108.04 14.828 108.552 14.632 108.942 14.242L110.356 12.828L111.77 14.242C112.16 14.632 112.672 14.828 113.184 14.828C113.696 14.828 114.208 14.632 114.598 14.242C115.38 13.46 115.38 12.196 114.598 11.414L113.186 10Z" fill="#760604"/>
<path d="M102 56C98.692 56 96 58.692 96 62C96 65.308 98.692 68 102 68C105.308 68 108 65.308 108 62C108 58.692 105.308 56 102 56ZM102 64C100.898 64 100 63.104 100 62C100 60.896 100.898 60 102 60C103.102 60 104 60.896 104 62C104 63.104 103.102 64 102 64Z" fill="#760604"/>
<path d="M10 0C6.692 0 4 2.692 4 6C4 9.308 6.692 12 10 12C13.308 12 16 9.308 16 6C16 2.692 13.308 0 10 0ZM10 8C8.898 8 8 7.104 8 6C8 4.896 8.898 4 10 4C11.102 4 12 4.896 12 6C12 7.104 11.102 8 10 8Z" fill="#760604"/>
</g>
<defs>
<clipPath id="clip0_1193_415">
<rect width="120" height="120" fill="white"/>
</clipPath>
</defs>
</svg>
