<svg width="131" height="78" viewBox="0 0 131 78" fill="none" xmlns="http://www.w3.org/2000/svg">
<path d="M129.806 37.192C109.322 12.3652 87.2989 0.157545 64.3438 0.745745C27.3093 1.78104 1.81611 35.8915 0.748513 37.3416C0.699213 37.4096 0.665212 37.4844 0.622712 37.5558C0.587012 37.6102 0.554712 37.6663 0.522412 37.7258C0.445912 37.8618 0.381312 37.9978 0.326912 38.1389C0.301412 38.2069 0.279313 38.2749 0.257213 38.3429C0.214713 38.4772 0.179012 38.6115 0.153512 38.7475C0.136512 38.8359 0.126312 38.9244 0.117812 39.0145C0.105912 39.1301 0.0974121 39.2456 0.0974121 39.3629C0.0974121 39.4785 0.105912 39.5942 0.117812 39.7098C0.128012 39.7999 0.138212 39.8865 0.153512 39.9766C0.179012 40.1126 0.214713 40.2469 0.257213 40.3812C0.279313 40.4492 0.301412 40.5173 0.326912 40.5853C0.381312 40.7263 0.447612 40.8624 0.522412 40.9983C0.554712 41.0561 0.585312 41.1105 0.622712 41.1683C0.665212 41.238 0.699213 41.3145 0.748513 41.3825C1.81611 42.8343 27.3093 76.9432 64.3438 77.9784C64.9167 77.9938 65.4862 78.0023 66.0557 78.0023C88.392 78.0023 109.831 65.7402 129.806 41.5321C130.331 40.8963 130.569 40.1262 130.567 39.3629C130.569 38.5979 130.331 37.8278 129.806 37.192ZM64.575 71.1835C35.7804 70.3998 13.7773 46.5046 7.83241 39.3629C13.7773 32.2212 35.7787 8.32435 64.575 7.54065C84.6724 7.01535 104.194 17.7219 122.717 39.3629C104.195 61.0056 84.6928 71.7649 64.575 71.1835Z" fill="#760604"/>
<path d="M67.0349 16.979C54.6912 16.979 44.651 27.0192 44.651 39.3612C44.651 51.7049 54.6912 61.7451 67.0349 61.7451C79.3786 61.7451 89.4188 51.7049 89.4188 39.3612C89.4188 27.0192 79.3786 16.979 67.0349 16.979ZM67.0349 54.9451C58.4414 54.9451 51.451 47.9547 51.451 39.3612C51.451 30.7694 58.4414 23.779 67.0349 23.779C75.6284 23.779 82.6188 30.7694 82.6188 39.3612C82.6188 47.953 75.6284 54.9451 67.0349 54.9451Z" fill="#760604"/>
</svg>
